<svg xmlns="http://www.w3.org/2000/svg" viewBox="0 0 500 500"><path d="M314 275c0 43.2 34 64.2 61.5 64.2 27.4 0 61.5-21 61.5-64.2 0-33.6-33.2-60.4-61.5-76.4-28.2 16-61.5 42.8-61.5 76.4zM64.2 275.7c0 43.3 34.1 64.2 61.5 64.2s61.5-21 61.5-64.2c0-33.6-33.2-60.4-61.5-76.4-28.3 16.1-61.5 42.9-61.5 76.4z"/><path d="M0 86.8v326.3h500V86.8H0zm499.9 79.4c-30 0-66.5 5.6-95.2 18 30.9 20.7 60.8 52 60.8 91.5 0 52.2-43.8 92.1-92 92.1S283 327.9 283 275.7c0-39.5 28.4-70.8 59.3-91.5-28.6-12.4-62.3-18-92.3-18s-63.8 5.6-92.4 18c30.9 20.7 59.3 52 59.3 91.5 0 52.2-42.3 92.1-90.5 92.1s-92.7-39.9-92.7-92.1c0-39.5 30.6-70.8 61.5-91.5-28.6-12.4-65-18-95.1-18v-28.6c50.8 0 95.7 12.7 126.3 28.6 30.6-15.9 72.8-28.6 123.6-28.6s93 12.7 123.6 28.6c30.6-15.9 75.6-28.6 126.4-28.6v28.6z"/></svg>