<svg xmlns="http://www.w3.org/2000/svg" viewBox="0 0 500 500"><path d="M128.9 181.6c9.1-9.1 19.3-16.7 30.1-22.6 60.1-33.1 137.3-15.5 175.9 43.1l-46.8 46.8c-13.4-30.6-46.7-48-79.9-40.6-12.5 2.8-24.3 9-34 18.7l-89.7 89.7c-27.2 27.2-27.2 71.5 0 98.7 27.2 27.2 71.5 27.2 98.7 0l27.6-27.6c25.1 10 52.1 14 78.7 12l-61 61c-52.3 52.3-137.1 52.3-189.4 0s-52.3-137.1 0-189.4c.2-.1 89.8-89.8 89.8-89.8zM271.3 39.2l-61 61c26.6-2 53.6 2 78.7 12l27.6-27.6c27.2-27.2 71.5-27.2 98.7 0 27.2 27.2 27.2 71.5 0 98.7L325.7 273c-27.3 27.3-71.7 27.1-98.7 0-6.3-6.3-11.7-14.2-15.1-21.9L165 297.9c4.9 7.5 10 13.9 16.6 20.5 16.9 16.9 38.5 29.5 63.2 35.5 32.1 7.7 66.5 3.5 96.1-12.9 10.8-6 20.9-13.5 30.1-22.6l89.7-89.7c52.3-52.3 52.3-137.1 0-189.4-52.3-52.4-137.1-52.4-189.4-.1z"/></svg>