<svg xmlns="http://www.w3.org/2000/svg" viewBox="0 0 500 500"><path d="M253.1 120.3c97.5 0 145.2 6.2 145.2 18.7 0 6.2-6.2 14.5-16.6 29-4.1 4.1-6.2 8.3-6.2 10.4 0 2.1 2.1 6.2 8.3 8.3 8.3 4.1 22.8 8.3 43.6 12.4 20.7 4.1 37.3 6.2 53.9 6.2 12.4 0 18.7-8.3 18.7-24.9 0-27-6.2-49.8-16.6-68.5-14.5-22.8-37.3-39.4-68.5-47.7-45.6-14.4-99.5-20.6-163.9-20.6S132.8 51.9 87.1 64.3c-33.2 10.4-56 27-70.5 47.7C6.2 130.7 0 153.5 0 180.5c0 18.7 6.2 27 18.7 27 14.5 0 33.2-2.1 53.9-6.2 20.7-4.1 35.3-8.3 43.6-12.4 6.2-2.1 8.3-4.1 8.3-8.3 0-2.1-2.1-6.2-6.2-10.4-12.4-12.4-16.6-22.8-16.6-29 0-14.6 51.8-20.9 151.4-20.9zm-70.5 244.8c-18.7-18.7-29-41.5-29-68.5s8.3-47.7 29-68.5 41.5-29 68.5-29 49.8 8.3 68.5 29c18.7 18.7 29 41.5 29 68.5s-10.4 49.8-29 68.5c-18.7 18.7-41.5 27-68.5 27-27 2.1-49.9-6.2-68.5-27zM388 230.3c-2.1 0-8.3-8.3-22.8-22.8-8.3-8.3-14.5-14.5-14.5-18.7-2.1-6.2-2.1-12.4-2.1-18.7v-16.6-16.6c0-4.1 0-6.2-2.1-10.4-2.1-4.1-10.4-8.3-27-8.3-12.4 0-18.7 4.1-18.7 8.3 0 16.6 0 29-2.1 33.2 0 8.3-6.2 12.4-14.5 12.4h-74.7c-8.3 0-12.4-4.1-12.4-12.4-2.1-14.5-2.1-24.9-2.1-33.2 0-6.2-6.2-8.3-18.7-8.3-16.6 0-24.9 2.1-27 6.2-2.1 2.1-2.1 6.2-2.1 10.4v31.1c0 6.2-2.1 14.5-2.1 20.7 0 4.1-6.2 10.4-14.5 18.7L107.8 226c-45.6 52-66.3 103.9-66.3 159.9 0 29 6.2 45.6 18.7 51.9 8.3 4.1 20.7 6.2 37.3 6.2 6.2 8.3 14.5 12.4 24.9 12.4s18.7-4.1 27-12.4h246.9c16.6 0 27-2.1 35.3-6.2 12.4-6.2 18.7-24.9 18.7-53.9 6.1-49.9-16.7-103.8-62.3-153.6z"/></svg>