<?xml version="1.0" encoding="utf-8"?>
<!-- Generator: Adobe Illustrator 22.1.0, SVG Export Plug-In . SVG Version: 6.00 Build 0)  -->
<svg version="1.1" id="レイヤー_1" xmlns="http://www.w3.org/2000/svg" xmlns:xlink="http://www.w3.org/1999/xlink" x="0px"
	 y="0px" viewBox="0 0 500 500" style="enable-background:new 0 0 500 500;" xml:space="preserve">
<g id="指差しアイコンの無料素材" transform="translate(627 1629.109)">
	<path id="パス_3" d="M-541.4-1419h-67.1c-10.2,0-18.5,8.3-18.5,18.5c0,0,0,0,0,0v193.4c0,10.2,8.3,18.5,18.5,18.5c0,0,0,0,0,0
		h67.1c10.2,0,18.5-8.3,18.5-18.5c0,0,0,0,0,0v-193.4C-522.9-1410.7-531.2-1419-541.4-1419C-541.4-1419-541.4-1419-541.4-1419z
		 M-564.5-1218c-9.5,0-17.1-7.7-17.1-17.1c0-9.5,7.7-17.1,17.1-17.1c9.5,0,17.1,7.7,17.1,17.1l0,0
		C-547.4-1225.7-555-1218-564.5-1218z"/>
	<path id="パス_4" d="M-158.2-1449.8h-183.7c-2.3,0-4.6,0.3-6.9,0.8h-2.6c9.4-17.6,13.5-37.6,11.8-57.5
		c-2.1-21.9-20.6-60.6-49-62.9c-21.9-1.8-26.2,6.5-26.2,28.6c0,0,0.2,21.3,0.2,35c0,24.5-8.2,36.9-37,57.6
		c-17.6,10.4-32.8,24.5-44.6,41.3v146.7c-0.6,28.7,22.2,52.5,50.9,53.1c2.3,0,4.5-0.1,6.7-0.3h136.8c18.9,0,44.4-9.1,44.4-34.2
		c0-9-3.6-17.7-9.9-24c18.6-2.5,31.7-19.5,29.2-38.1c-1.2-8.7-5.6-16.7-12.5-22.1c17.3-7.4,25.3-27.4,17.9-44.6
		c-3.2-7.4-8.8-13.4-16-17.1h90.4c17.2,0,31.2-14,31.2-31.2C-127-1435.9-141-1449.8-158.2-1449.8L-158.2-1449.8z"/>
</g>
</svg>
