<?xml version="1.0" encoding="utf-8"?>
<!-- Generator: Adobe Illustrator 22.1.0, SVG Export Plug-In . SVG Version: 6.00 Build 0)  -->
<svg version="1.1" id="レイヤー_1" xmlns="http://www.w3.org/2000/svg" xmlns:xlink="http://www.w3.org/1999/xlink" x="0px"
	 y="0px" viewBox="0 0 500 500" style="enable-background:new 0 0 500 500;" xml:space="preserve">
<g id="目のフリーアイコン5" transform="translate(1509 144.215)">
	<path id="パス_1" d="M-1009.4,102.1c-0.3-1.2-0.7-2.4-1.1-3.6c-0.6-1.5-1.4-2.9-2.2-4.3c-4.3-7.2-9-14.1-14.1-20.7
		c-11.8-15.9-24.5-31.1-38-45.6c-14.7-16.3-31.1-31.1-48.7-44.2c-22-16.1-46-29.3-71.4-39.2c-47.7-18.2-100.4-18.2-148.1,0
		c-25.4,10-49.4,23.1-71.4,39.2c-25.9,19.7-49.2,42.4-69.5,67.8c-9.5,11.6-17.7,22.3-23.5,30.6c-2.9,4.2-5.3,7.7-7.1,10.8
		c-0.9,1.5-1.7,2.9-2.4,4.4c-0.4,0.9-0.8,1.8-1.1,2.7c-0.2,0.7-0.4,1.4-0.6,2.1c-0.5,2.4-0.5,5,0,7.4c0.3,1.2,0.7,2.4,1.1,3.6
		c0.6,1.5,1.4,2.9,2.2,4.3c4.3,7.2,9,14.1,14.1,20.7c11.8,15.9,24.5,31.1,38,45.6c14.7,16.3,31.1,31.1,48.7,44.2
		c22,16.1,46,29.3,71.4,39.2c47.7,18.2,100.4,18.2,148.1,0c25.4-10,49.3-23.1,71.4-39.2c25.8-19.7,49.1-42.5,69.4-67.8
		c9.5-11.6,17.7-22.3,23.5-30.6c2.9-4.2,5.3-7.7,7.1-10.8c0.9-1.5,1.7-2.9,2.4-4.4c0.4-0.9,0.8-1.8,1.1-2.7c0.3-0.7,0.5-1.4,0.7-2.1
		C-1008.9,107-1008.9,104.5-1009.4,102.1L-1009.4,102.1z M-1078.7,151.9c-15.8,18.6-33.6,35.4-53.1,50.2
		c-19.8,14.5-41.4,26.4-64.2,35.4c-40.5,15.5-85.3,15.5-125.8,0c-22.8-9-44.4-20.9-64.2-35.4c-23.5-18.1-44.8-39-63.3-62.2
		c-9.1-10.9-16.7-21.1-22-28.6c-1.5-2.1-2.7-3.9-3.8-5.5c11-16.1,23-31.5,35.9-46.1c15.8-18.6,33.6-35.4,53.1-50.1
		c19.8-14.5,41.4-26.4,64.2-35.4c40.5-15.5,85.3-15.5,125.8,0c22.8,9,44.4,20.9,64.2,35.4c23.5,18.1,44.8,39,63.3,62.2
		c9.1,10.9,16.7,21.1,22,28.6c1.5,2.1,2.7,3.9,3.8,5.5C-1053.8,122-1065.8,137.3-1078.7,151.9z"/>
	<path id="パス_2" d="M-1259.1-5.7c-61.6,0-111.6,50-111.6,111.6c0,61.6,50,111.6,111.6,111.6c61.6,0,111.6-50,111.6-111.6
		c0,0,0,0,0,0C-1147.5,44.3-1197.4-5.7-1259.1-5.7z M-1259.1,157.7c-28.6,0-51.8-23.2-51.7-51.8c0-28.6,23.2-51.8,51.8-51.7
		c5.4,0,10.8,0.9,16,2.5l-7.3,22.3c-2.9,8.8,1.9,18.4,10.7,21.3c2.7,0.9,5.6,1.1,8.4,0.6l23-4.2c5.3,28-13.1,55-41.2,60.3
		C-1252.5,157.5-1255.8,157.8-1259.1,157.7L-1259.1,157.7z"/>
</g>
</svg>
