<?xml version="1.0" encoding="utf-8"?>
<!-- Generator: Adobe Illustrator 20.1.0, SVG Export Plug-In . SVG Version: 6.00 Build 0)  -->
<svg version="1.1" id="レイヤー_1" xmlns="http://www.w3.org/2000/svg" xmlns:xlink="http://www.w3.org/1999/xlink" x="0px"
	 y="0px" viewBox="0 0 500 500" style="enable-background:new 0 0 500 500;" xml:space="preserve">
<g>
	<path d="M497.3,258.9c-0.4,1.6-0.7,3.2-1.4,4.6c-0.6,1.1-1.9,2.7-2.8,2.6c-1,0-2.3-1.6-2.7-2.8c-0.7-1.7-1.1-3.6-1.1-5.5
		c-0.1-6.3,0-12.6,0-18.9c0-3.2-2-5.1-6-5.9c-3-0.6-4,1.2-4.7,3.6c-1.8,5.6-3.5,11.2-5.6,17.6c-0.2-5.6-0.3-10.4-0.5-15.2
		c-0.2-3.5-1.7-5.3-5-6c-2.9-0.6-3.8,0.1-5.4,3.9c-0.4,0.9-0.7,1.8-1.1,2.8c-0.9,2.5-1.7,5-2.7,7.8c-0.3-0.6-0.4-0.8-0.4-0.9
		c0-2.8-0.1-5.6-0.1-8.4c0-4.2-0.3-4.5-4.4-5.2c-2.2-0.3-3.1,0.3-3.1,2.7c0,6.8,0.2,13.7-0.4,20.5c-0.3,3.1-1.8,6.3-3.4,9.1
		c-1.3,2.2-3.7,1.7-4.8-0.7c-0.3-0.7-0.6-1.6-0.6-2.3c-0.1-8.2-0.3-16.3-0.1-24.5c0.1-2.9-1.5-3.6-3.6-4c-1.9-0.4-4.1-0.8-4.7,2.4
		c-0.4-0.3-0.5-0.8-0.9-1.1c-4.2-4-9.8-4-13.4,0.6c-1.8,2.2-3.4,4.8-4,7.5c-1,4.8-1,9.7-1.4,14.6c-0.2,2.2-0.2,4.5-0.9,6.5
		c-0.4,1-2.1,2.1-3.2,2.1c-1,0-2.5-1.3-2.8-2.3c-0.8-2.3-1.6-4.9-1.4-7.3c0.4-5.3,1.3-10.5,2.1-15.7c0.6-3.9-1.4-5.8-5.3-5.1
		c-2.5,0.4-4.9,0.9-7.6,1.5c0-0.9,0-1.5,0-2.1c0-3.2-1.5-4.4-4.6-3.9c-3.7,0.6-6,5.8-3.6,8.9c1.3,1.7,1.3,3.1,0.6,4.9
		c-1.1,2.8-2.1,5.7-3.5,8.5c-1.2,2.5-2.8,4.8-4.2,7.3c-0.3-0.1-0.5-0.2-0.7-0.3c0-0.9,0-1.7,0-2.6c0-6.8,0.1-13.7,0.1-20.5
		c0-0.9-0.1-2.1-0.7-2.7c-2-2.1-6-1.6-7.3,0.6c-1.8-1-3.4-2.4-5.3-2.9c-4.2-1.2-7.8,0.5-10.5,4.7c-4.2,6.6-4.6,14-4.1,21.6
		c0.1,1.1,0.2,2.2-0.2,3.2c-0.8,2-1.4,4.7-4.2,4.5c-3-0.2-3.2-2.9-3.3-5.1c-0.2-7.7-0.2-15.4-0.1-23.2c0-2.3-0.4-3.8-2.9-4.3
		c-2.2-0.4-4.5-1.2-5.3,2c-6-6.4-12.9-3.9-16.2,2c-1,1.8-2,3.7-2.4,5.6c-0.7,3.4-1.2,6.9-1.5,10.4c-0.3,3.6-1.6,6.8-4,9.5
		c-0.9,1-2.4,1.9-3.6,1.8c-0.9-0.1-1.8-1.8-2.2-3c-0.5-1.3-0.7-2.8-0.7-4.2c0-7,0.1-14,0.2-21c0-1.8,0.3-3.7,0.4-6
		c3.2,0,6.1,0,9.1,0c2.3,0,2.5-1.9,2.5-3.4c0-0.6-1.5-1.4-2.4-1.5c-3-0.4-6-0.5-9-0.7c-0.1-0.6-0.2-0.9-0.2-1.1
		c0.1-1.9,0.2-3.8,0.3-5.6c0.2-3.9,0.2-4-3.8-5.1c-0.6-0.2-1.2-0.3-1.8-0.4c-1.9-0.3-2.8,0.4-2.9,2.4c-0.1,3.1-0.3,6.2-0.5,9.4
		c-2.5,0-4.7,0-6.9,0c-2.7,0-2.5,2.1-2.7,3.8c-0.3,2,1,2.1,2.5,2.1c2.2-0.1,4.4,0,6.7,0c0,6.9,0.3,13.3-0.1,19.6
		c-0.3,4.1-2.5,7.6-6.1,10.8c0.7-9.7-7.4-12.2-12.3-16.9c1.2-2.4,2.6-4.6,3.4-7.1c1.1-3.1-0.3-4.9-3.6-5c-5.9-0.1-10.4,7.1-7.4,12.1
		c1,1.6,0.8,2.7,0,4.1c-2.1,3.6-3.9,7.3-6.2,10.7c-1.2,1.8-3,3.1-4.6,4.6c-0.5-2.1-1.4-4.2-1.4-6.3c-0.1-6,0.2-12,0.4-18.1
		c0.1-2.1-0.7-3.6-2.5-4.7c-4.2-2.7-7.7-2.4-10.5,1.7c-2.4,3.4-4,7.4-5.8,11.1c-0.7,1.4-1.1,2.9-1.7,4.3c-0.5-4.8-0.5-9.5-0.5-14.1
		c0-3.4-0.8-4.2-4.3-4.7c-1.9-0.2-2.8,0.2-2.8,2.4c0.1,6.6,0,13.1,0,19.7c0,3.9,0,7.7,0.1,11.6c0,1.8,0.5,3.6,2.5,4.4
		c3,1.1,4.7,0.1,5.3-3c1.7-9,4.1-17.8,9.3-25.6c0.8-1.1,1.7-2.1,2.6-3.1c0,5.7-0.1,11.1,0,16.4c0.1,3.8,0.2,7.6,0.9,11.2
		c0.9,4.3,4.3,5.5,8,3.2c1.5-0.9,2.9-2.2,4-3.5c1.8-2.2,3.3-4.7,4.9-7.1c2.1-3.4,4.1-6.9,6.2-10.4c4.7,3.5,7.4,6.6,8.2,9.7
		c0.7,2.4,0.3,4.6-1.6,6.1c-2,1.5-3.9,0.5-5.7-0.7c-0.4-0.3-0.7-0.5-1.1-0.8c-1.6-1.3-2.9-1-4.1,0.6c-2.3,2.9-1.8,4.7,1.7,6.1
		c7.8,3.1,15.9,0.8,20.9-6c1.5-2,2.6-4.2,3.9-6.2c0.9,2.9,1.5,5.9,2.8,8.6c2.9,5.8,9,6.4,13.1,1.3c1.4-1.8,2.5-3.9,3.9-6
		c1.7,4.7,3.8,9,9.4,9.4c5.4,0.4,8.8-2.9,11.5-7.2c2.3,7.9,11,10.6,16.2,1.4c2.1,3.4,4.7,5.9,9,5.9c4.1-0.1,6.9-2.5,9.6-5.3
		c0.9,2.1,0.3,3.4-1.1,4.7c-4.1,4-8.4,7.9-12,12.3c-4.6,5.4-3.7,14.2,5.2,16.1c0.2,0,0.3,0.2,0.4,0.3c1.3,0,2.5,0,3.8,0
		c9-2.9,10.6-10.4,11.2-18.3c0.3-3.8-0.1-7.5,0.1-11.3c0.1-1.3,0.5-2.8,1.3-3.9c4.8-6.1,8.7-12.7,11.6-20c1.7-4.3,2.5-4.7,7.6-3.8
		c-0.4,3-1.2,6-1.3,8.9c-0.1,4.1,0.2,8.2,0.9,12.3c0.4,1.9,1.8,4,3.2,5.4c3.9,3.8,8.8,3.2,12.1-1.1c0.4-0.6,0.8-1.1,1.4-1.9
		c2.5,3.9,5.6,6.2,10.1,5.5c4.3-0.7,7.2-3.5,9.4-7.2c4.6,9,9.2,9.7,15.5,2.4c0.6,1.3,0.8,3.2,1.8,4c1.1,0.8,2.9,0.7,4.4,0.9
		c2.1,0.2,3-0.7,3.2-2.9c0.4-4.9,0.6-9.9,1.6-14.7c0.7-3.8,2.5-7.4,3.8-11c0.4,0.1,0.7,0.1,1,0.2c0.1,1.1,0.3,2.1,0.4,3.2
		c0.6,5.9,1.1,11.8,1.8,17.7c0.3,2.6,1.8,4.5,4.7,4.7c2.1,0.1,3.3-0.3,3.4-2.9c0.3-7.5,2-14.7,5-21.7c0.2-0.4,0.4-0.7,0.9-1.8
		c0.1,1.4,0.1,2,0.2,2.6c0.3,5.7,0.3,11.5,1,17.2c0.2,2.2,1.3,4.5,2.7,6.3c3.6,4.9,10,4.1,12.6-1.4c0.8-1.8,1.2-3.7,1.9-5.6
		c0-1.1,0-2.2,0-3.2C498.6,257,497.7,257.1,497.3,258.9z M333.3,259.5c-0.4,1.5-1.1,3.2-2.1,4.3c-1.1,1.2-2.9,2.6-4.1,2.4
		c-1.4-0.2-3.1-1.9-3.6-3.3c-2.5-7-2-14.1,0.8-21c0.9-2.2,2.5-3.8,5.2-3.6c2.7,0.2,3.9,2.3,4.4,4.5c0.6,2.4,0.7,4.9,1.1,7.7
		C334.4,253.4,334,256.5,333.3,259.5z M369,259.8c-0.3,1.3-0.8,2.7-1.7,3.6c-1.2,1.2-3,2.9-4.4,2.8c-1.4-0.1-3.2-2.1-3.7-3.6
		c-2.2-6.9-1.9-13.8,1-20.5c1.3-3,3.5-4.2,5.9-3.8c2.8,0.6,3.4,2.9,3.9,5.2c0.4,1.9,0.5,3.9,0.8,6.7
		C370.3,253,369.7,256.4,369,259.8z M369.9,290.9c-0.1,0.9-0.6,1.7-1.1,2.5c-1.3,2.2-4,3.2-6,2.2c-2.3-1.1-3.1-3.3-2.3-5.4
		c1.1-3,2.6-5.8,4.4-8.5c1.6-2.3,3.7-4.3,5.6-6.4c0.4,0.1,0.8,0.2,1.2,0.3C371.1,280.7,370.6,285.8,369.9,290.9z M431.4,261.1
		c-0.3,1.1-1,2.1-1.7,3.1c-2.6,3.5-6.4,3.2-7.5-1c-1.1-4.3-1.3-9-1.3-13.5c0-2.7,1-5.4,2-8c0.8-2.1,2.5-3.5,5-3.3
		c2.5,0.2,3.6,1.9,4.1,4c0.6,2.6,0.9,5.3,1.4,8.4C433,253.9,432.3,257.5,431.4,261.1z"/>
	<path d="M62.3,203.5c-12.4-0.3-24.8-0.3-37.2,0c-13.5,0.3-22.1,8-24.3,21c-0.4,2.1-0.5,4.2-0.8,6.3c0,11,0,21.9,0,32.9
		c0.2,1.4,0.5,2.8,0.5,4.2c0.8,12.7,9.7,22.2,22.3,22.6c13.8,0.5,27.7,0.5,41.5,0c12.9-0.5,22-9.9,22.4-22.8
		c0.4-13.3,0.4-26.6,0.1-39.8C86.4,213.1,77.1,203.9,62.3,203.5z M79.2,266.3c-0.3,10.6-6.7,16.7-17.4,16.9
		c-12.1,0.2-24.2,0.2-36.4,0C14.7,283,8.3,276.7,8.1,266c-0.2-12.5-0.2-25,0-37.4c0.2-10.6,6.2-16.7,16.8-17.2
		c6.3-0.3,12.6-0.1,18.9-0.1c6.3,0,12.6-0.2,18.8,0.1c10.3,0.5,16.4,6.3,16.7,16.7C79.5,240.8,79.5,253.5,79.2,266.3z"/>
	<path d="M147.1,201.7c0,29.6,0,59.1,0,88.7c0,0.6,0.3,1.2,0.4,1.8c0.3,0,0.5-0.1,0.8-0.1c0-1,0-2,0-3c0-29.5,0-59,0.1-88.4
		c-0.4,0-0.7,0-1.1,0C147.2,201,147.1,201.3,147.1,201.7z"/>
	<path d="M217.3,213.3c-1.8-0.2-4.1,0.1-5.6,1C204,219,199.5,226,198.3,235c-0.6,4.8,2.3,9.9,6.7,11.9c0.9,0.4,1.9,0.5,2.9,0.7
		c0.2-0.2,0.4-0.3,0.7-0.5c-3.2-4.8-4.1-10-2.9-15.4c1.1-5.2,3.1-10.1,7.9-14.1c0.1,1.5,0.2,2.3,0.2,3.1c0,11.5,0,23-0.1,34.5
		c-0.1,7.2,0.3,14.4-2,21.4c-0.2,0.4,0.1,1,0.1,1.9c3.2-0.7,5.2-2.6,6.8-5.1c2.5-4,3.1-8.4,3.1-12.9c0.1-14,0.1-28,0.1-42
		C221.7,215,220.7,213.6,217.3,213.3z"/>
	<path d="M43.5,224.6c-12.4,0.2-22.2,10.2-22.1,22.7c0.1,12.6,9.9,22.4,22.4,22.4c12.4,0,22.2-10.1,22.1-22.6
		C65.9,234.5,55.8,224.5,43.5,224.6z M43.5,262.1c-8-0.1-14.5-6.8-14.5-15c0-8.2,6.6-14.7,14.7-14.6c8.1,0,14.5,6.7,14.5,14.9
		C58.3,255.4,51.5,262.2,43.5,262.1z"/>
	<path d="M67,218.5c-2.8,0-5,2.2-5,5.1c0,3,2,5.1,4.9,5.2c3,0.1,5.3-2.3,5.3-5.2C72.1,220.7,69.8,218.5,67,218.5z"/>
</g>
</svg>
