<?xml version="1.0" encoding="utf-8"?>
<!-- Generator: Adobe Illustrator 21.1.0, SVG Export Plug-In . SVG Version: 6.00 Build 0)  -->
<svg version="1.1" id="レイヤー_1" xmlns="http://www.w3.org/2000/svg" xmlns:xlink="http://www.w3.org/1999/xlink" x="0px"
	 y="0px" viewBox="0 0 500 500" style="enable-background:new 0 0 500 500;" xml:space="preserve">
<path d="M109,499c0-106.9,0-211.3,0-317.8c-18.1,0-33.8,0-54.4,0c0,104.7,0,210.9,0,318.6c-20.6,0-36.2,0-54.6,0
	c0-127.7,0-255.4,0-388.2c33,0,69,0,107.4,0c0-39.3,0-73.7,0-111.4c131.9,0,261.3,0,392.6,0c0,165.1,0,330.3,0,498.3
	c-21.2,0-43.2,0-67.8,0c0-147.7,0-294.2,0-443.1c-88.1,0-173.9,0-264.6,0c-0.7,14.6-1.6,31.9-2.6,51.9c75,0,146.7,0,221.6,0
	c0,131.9,0,261.3,0,392.4c-16.2,0-31.9,0-50.3,0c0-104.3,0-208.7,0-317.9c-19.5-1.1-36.7-2.1-56.7-3.3c0,107.3,0,211.8,0,319.5
	c-19.7,0-37,0-56.9,0c0-104.4,0-208.8,0-316.1c-19.7,0-37.1,0-56.9,0c0,105.6,0,210.1,0,317C147.8,499,132.1,499,109,499z"/>
</svg>
