<?xml version="1.0" encoding="utf-8"?>
<!-- Generator: Adobe Illustrator 22.1.0, SVG Export Plug-In . SVG Version: 6.00 Build 0)  -->
<svg version="1.1" id="レイヤー_1" xmlns="http://www.w3.org/2000/svg" xmlns:xlink="http://www.w3.org/1999/xlink" x="0px"
	 y="0px" viewBox="0 0 500 500" style="enable-background:new 0 0 500 500;" xml:space="preserve">
<g>
	<path d="M483.2,247.5c-10.7-11-25.5-17.1-40.9-16.8h-67.3c-15.9,0.1-28.8-12.7-28.8-28.6c0-0.1,0-0.1,0-0.2v-9.6
		c-0.3-20.5,7.8-40.2,22.5-54.4c14.2-14.7,33.9-22.9,54.4-22.5h19.2c5.1,0,9.9-2,13.4-5.7c3.7-3.5,5.7-8.4,5.7-13.4V57.7
		c0-5.1-2-9.9-5.7-13.4c-3.5-3.7-8.4-5.7-13.4-5.7h-19.2c-20.5-0.1-40.8,4.1-59.6,12.2c-18.4,7.7-35.1,18.9-49.2,32.9
		c-14,14.1-25.2,30.8-32.9,49.2c-8.1,18.8-12.2,39.1-12.2,59.6v211.3c-0.1,31.7,25.5,57.5,57.2,57.7c0.3,0,0.4,0,0.7,0h115.3
		c15.4,0.3,30.1-5.8,40.8-16.8c11-10.7,17.1-25.5,16.8-40.8V288.4C500.3,273,494.2,258.2,483.2,247.5z"/>
	<path d="M173.6,230.7c-0.2,0-0.3,0-0.5,0h-67.3c-15.9,0.1-28.8-12.7-28.8-28.6c0-0.1,0-0.1,0-0.2v-9.6c0-42.5,34.4-76.9,76.9-76.9
		h19.2c10.6-0.2,19.1-8.7,19.2-19.2V57.6c-0.2-10.6-8.7-19.1-19.2-19.2h-19.2c-20.5-0.1-40.8,4.1-59.6,12.2
		c-37.1,15.5-66.6,44.9-82,82C4.1,151.5,0,171.8,0,192.3v211.6c-0.3,15.3,5.8,30.1,16.8,40.8c10.7,11,25.5,17.1,40.9,16.8h115.3
		c31.7,0.1,57.5-25.5,57.7-57.2c0-0.2,0-0.3,0-0.5V288.4C230.9,256.7,205.3,230.9,173.6,230.7z"/>
</g>
</svg>
