<?xml version="1.0" encoding="utf-8"?>
<!-- Generator: Adobe Illustrator 20.1.0, SVG Export Plug-In . SVG Version: 6.00 Build 0)  -->
<svg version="1.1" id="レイヤー_1" xmlns="http://www.w3.org/2000/svg" xmlns:xlink="http://www.w3.org/1999/xlink" x="0px"
	 y="0px" viewBox="0 0 500 500" style="enable-background:new 0 0 500 500;" xml:space="preserve">
<g>
	<path d="M250,412.5c-58.333,0-89.583-47.917-89.583-108.333S191.667,195.833,250,195.833s89.583,47.917,89.583,108.333
		S308.333,412.5,250,412.5z M304.167,158.333H195.833v-35.417h108.333C304.167,122.917,304.167,158.333,304.167,158.333z
		 M158.333,147.917c0,37.5-25,70.833-66.667,116.667c-37.5,43.75-50,97.917-50,154.167c0,20.833,6.25,31.25,25,31.25H431.25
		c18.75,0,25-10.417,25-31.25c0-58.333-12.5-110.417-50-154.167c-41.667-45.833-66.667-81.25-66.667-116.667v-25h58.333
		l-20.833,43.75C375,168.75,375,172.917,375,177.083c0,6.25,2.083,10.417,10.417,12.5l100,20.833
		C495.833,212.5,500,206.25,500,191.667c0-29.167-4.167-66.667-29.167-85.417C422.917,68.75,362.5,50,250,50
		S77.083,68.75,29.167,106.25C4.167,125,0,162.5,0,191.667c0,12.5,6.25,18.75,14.583,18.75l100-20.833
		c8.333-2.083,10.417-6.25,10.417-12.5c0-4.167,0-8.333-2.083-10.417L100,122.917h58.333
		C158.333,122.917,158.333,147.917,158.333,147.917z"/>
</g>
</svg>
