<?xml version="1.0" encoding="utf-8"?>
<!-- Generator: Adobe Illustrator 21.1.0, SVG Export Plug-In . SVG Version: 6.00 Build 0)  -->
<svg version="1.1" id="レイヤー_1" xmlns="http://www.w3.org/2000/svg" xmlns:xlink="http://www.w3.org/1999/xlink" x="0px"
	 y="0px" viewBox="0 0 500 500" style="enable-background:new 0 0 500 500;" xml:space="preserve">
<path d="M498,451L368.7,321.7c24.3-33.4,38.7-74.6,38.7-119C407.4,90.9,316.5,0,204.7,0C92.9,0,2,90.9,2,202.7
	c0,111.8,90.9,202.7,202.7,202.7c42.4,0,81.7-13.1,114.3-35.4l130,130C449,500,498,451,498,451z M61.4,202.7
	c0-79,64.3-143.3,143.3-143.3S348,123.7,348,202.7S283.7,346,204.7,346C125.7,346,61.4,281.7,61.4,202.7z"/>
</svg>
