<?xml version="1.0" encoding="utf-8"?>
<!-- Generator: Adobe Illustrator 20.1.0, SVG Export Plug-In . SVG Version: 6.00 Build 0)  -->
<svg version="1.1" id="レイヤー_1" xmlns="http://www.w3.org/2000/svg" xmlns:xlink="http://www.w3.org/1999/xlink" x="0px"
	 y="0px" viewBox="0 0 174 45.1" style="enable-background:new 0 0 174 45.1;" xml:space="preserve">
<style type="text/css">
	.st0{fill:#FFFFFF;}
</style>
<path class="st0" d="M170.9,16.1c0.1,0.4,0.1,0.9,0.1,1.3c0.1,0.5-0.1,1,0,1.5c0.1,0.3,0.1,0.6,0.1,0.9c0,0.5,0,0.9,0.2,1.3
	c0.1,0.4,0.6,0.6,1,0.7c0.4,0.1,0.8,0.2,1.2,0.3c0.4,0.1,0.5,0.5,0.5,0.9c0,0.1,0.1,0.3,0,0.4c-0.2,0.3-0.1,0.8-0.5,1
	c-0.2,0.1-0.4,0.3-0.7,0.4c-0.3,0.1-0.6,0.2-0.9,0.3c-0.1,0.3-0.2,0.5-0.3,0.7c0.1,0.6,0.3,1.1,0.2,1.7c-0.1,0.5,0.1,0.9,0.1,1.4
	c0,0.3,0,0.5,0,0.8c0,0-0.1,0.1-0.2,0.1c0.2,0.3,0.1,0.7,0.2,1c0,0.5,0,0.7-0.2,0.9c0,0.1,0.1,0.2,0.1,0.3c-0.3,0.3-0.3,0.3-0.4,0.9
	c-0.1,0.2-0.2,0.5-0.4,0.7c-0.5,0.5-1,0.9-1.7,1.2c-0.7,0.2-1.4,0.3-2.2,0.3c-0.4,0-0.9,0-1.3-0.2c-0.2-0.1-0.5-0.2-0.6-0.5
	c-0.2-0.4-0.5-0.6-0.8-0.9c-0.1-0.2,0-0.3-0.1-0.5c-0.1-0.1-0.2-0.2-0.2-0.5c0-0.2,0-0.6-0.3-0.7c-0.1,0,0-0.3-0.1-0.4
	c-0.3-0.2-0.1-0.8-0.6-0.9c0.1-0.1,0.1-0.1,0.1-0.2c0,0-0.1-0.1-0.1-0.1c-0.1-0.1-0.2-0.2-0.2-0.3c-0.1-0.4-0.1-0.9-0.3-1.3
	c-0.1-0.5-0.3-0.9-0.5-1.4c-0.1-0.2-0.2-0.3,0-0.5c0,0,0.1,0.1,0,0c0.1,0,0,0,0,0c-0.1-0.1-0.2-0.1-0.3-0.2c0-0.4-0.1-0.7-0.1-1.1
	c0-0.3-0.1-0.6-0.2-0.9c0-0.3-0.2-0.6,0-1c-0.3,0.1-0.4,0.1-0.6,0.2c0.1,0.1,0.1,0.3,0.2,0.4c-0.1,0.1-0.2,0.1-0.3,0.2
	c0,0.1,0.3,0.2,0,0.4c-0.1,0.1,0.1,0.3,0,0.4c-0.1,0.3-0.3,0.5-0.2,0.8c0,0.3,0.1,0.5-0.1,0.8c-0.1,0.1,0,0.3-0.1,0.4
	c-0.1,0.4-0.2,0.9-0.5,1.3c0,0-0.1,0.1,0,0.1c0.2,0.6-0.2,0.9-0.4,1.3c0,0.1-0.1,0.1-0.1,0.2c-0.1,0.2,0,0.5-0.2,0.7
	c-0.2,0.2,0,0.6-0.4,0.6c-0.1,0.4-0.3,0.8-0.7,1.2c0.1,0.4-0.3,0.4-0.5,0.6c-0.4,0.5-0.9,1.1-1.5,1.4c-0.7,0.4-1.4,0.5-2.1,0.3
	c-0.2-0.1-0.4-0.2-0.5-0.5c-0.1-0.3-0.2-0.6-0.3-1c0-0.2,0.1-0.4,0.3-0.5c0.3-0.1,0.5-0.2,0.8-0.3c0-0.1-0.1-0.2-0.1-0.3
	c0,0,0.1-0.1,0.1-0.1c0.5-0.4,1.1-0.7,1.3-1.4c0-0.1,0.1-0.2,0.2-0.3c0.6-0.6,0.8-1.5,1.1-2.3c0.2-0.6,0.5-1.1,0.8-1.7
	c0,0,0.1-0.1,0.2-0.1c0-0.1-0.1-0.3-0.1-0.4c0.3-0.7,0.2-1.6,0.6-2.3c0-0.6,0.4-1.1,0.4-1.7c0-0.2-0.2-0.4,0-0.6
	c0,0-0.1-0.2-0.1-0.3c0.1-0.2,0.2-0.3,0.2-0.5c0.1,0,0.2,0,0.3,0c0,0,0,0,0,0c0,0,0,0-0.1,0c-0.1-0.1-0.2-0.2-0.4-0.3
	c0.1-0.7,0.3-1.3,0.3-2c0-0.5,0.1-1,0.2-1.6c0-0.3,0.1-0.6,0.1-0.9c0.1-0.8-0.1-1.5-0.6-2.1c-0.1-0.1-0.1-0.2-0.1-0.4
	c0-0.2-0.1-0.4-0.1-0.7c0-0.1,0-0.2,0-0.4c-0.2,0-0.4-0.3-0.6-0.5c-0.1-0.2-0.2-0.4-0.2-0.6c0-0.2,0-0.5,0-0.8c0,0,0.2-0.1,0.1-0.2
	c-0.1-0.4,0-0.6,0.3-0.9c0.2-0.2,0.4-0.4,0.7-0.5c0.2-0.1,0-0.4,0.3-0.4c0.6-0.2,1.1-0.1,1.5,0.4c0.1,0.1,0.2,0.3,0.4,0.4
	c0.3-0.2,0.6-0.5,0.9-0.7c0.4-0.3,0.9-0.7,1.3-1c0.1,0,0.1,0,0.2-0.1c0.3-0.4,0.7-0.7,0.9-1.1c0.2-0.4,0.7-0.6,1.2-0.7
	c0.4-0.1,0.8-0.2,1.2-0.2c0.4-0.1,0.8,0.1,1.1,0.1c0.5,0.1,0.7,0.4,1,0.6c0.3,0.2,0.5,0.4,0.8,0.6c0,0-0.1,0.1-0.1,0.2
	c0.1,0,0.2,0,0.4,0c0.1,0.2,0.2,0.3,0.3,0.5c0,0.2,0.3,0.4,0.2,0.7c-0.1,0.2,0.2,0.5,0.2,0.7c0,0.2-0.1,0.4-0.2,0.6
	c0,0.1-0.1,0.2,0,0.2c0.2,0.2-0.1,0.3-0.1,0.4c0,0,0,0,0,0c0,0,0,0,0,0c0.1,0.1,0.2,0.2,0.2,0.3c-0.1,0.5-0.1,1,0,1.5
	c0.1,0.3-0.1,0.5-0.1,0.8c0,0.3,0,0.7-0.1,1c0,0-0.1,0-0.2,0.1c0.1,0.2,0.2,0.3,0.2,0.5c0,0.2,0.1,0.5,0.1,0.7c0,0.2-0.2,0.4,0,0.5
	C171.1,15.9,171,16,170.9,16.1C170.9,16.1,170.9,16,170.9,16.1C170.9,16,170.9,16,170.9,16.1z M168.2,13.3
	C168.2,13.4,168.2,13.4,168.2,13.3C168.2,13.4,168.2,13.4,168.2,13.3c-0.1-0.1-0.3-0.1-0.2-0.4c0.1-0.3,0.1-0.6,0.2-0.9
	c0-0.2,0.2-0.5,0.1-0.6c-0.3-0.5,0-0.9,0-1.4c-0.1-0.1-0.2-0.1-0.3-0.2c0-0.2,0.2-0.2,0-0.4c-0.1-0.1-0.2-0.4-0.1-0.6
	c0.1-0.4-0.1-0.4-0.4-0.5c-0.8-0.1-1.4,0-2,0.5c-0.1,0.1-0.2,0.2-0.4,0.3c-0.5,0.2-1,0.4-1.4,0.8c-0.4,0.3-0.7,0.7-1.1,0.9
	c0,0-0.1,0.1-0.1,0.1c-0.2,0.3-0.1,0.7-0.1,1c0,0.3,0.1,0.5,0,0.8c0.4,0.2-0.2,0.5,0.1,0.7c-0.3,0.4-0.1,0.8,0,1.2
	c0.4-0.2,0.8-0.3,1.2-0.5c0.1,0,0.2,0,0.3,0c0.5,0,0.9,0,1.4,0.2c0.5,0.2,0.9,0.5,1.3,0.8c0.3,0.2,0.5,0.7,0.6,1.2
	c0.1,0.6,0.2,1.1-0.1,1.7c0.1,0.3-0.4,0.3-0.4,0.6c0,0.4-0.3,0.6-0.5,1c0,0.1-0.1,0.2-0.1,0.2c0.1,0.2,0,0.2-0.1,0.3
	c-0.1,0-0.1,0.1-0.2,0.2c-0.1,0.2-0.1,0.3-0.2,0.5c0.6,0.6,1.3,0.6,2,0.5c0.4-0.3,0-0.8,0.5-1c-0.1-0.1-0.2-0.2-0.2-0.2
	c-0.1-0.8-0.1-1.5-0.2-2.3c-0.3-0.2-0.1-0.6-0.1-0.8c0-0.2,0.1-0.4,0-0.6c0-0.5,0.1-1,0.1-1.5c0-0.6,0.4-1.1,0.1-1.6
	C168.1,13.4,168.2,13.4,168.2,13.3z M161.9,18.7c0,0.5,0,0.9-0.1,1.4c-0.1,0.3,0,0.6,0.1,0.8c0.1,0.2,0,0.5,0,0.6
	c0.3,0.7,0.2,1.4,0.6,2c-0.1,0.1-0.2,0.1-0.2,0.1c0.1,0.1,0.2,0.3,0.2,0.4c0.1,0.2,0.1,0.4,0,0.6c0.3,0.1,0.3,0.4,0.3,0.6
	c-0.1,0.3,0.2,0.4,0.1,0.7c-0.1,0.2,0.2,0.4,0,0.6c0.3,0.1,0.1,0.4,0.2,0.6c0,0.1,0.2,0.2,0.2,0.4c0.1,0.2,0.3,0.3,0.3,0.5
	c0,0.1-0.1,0.2-0.2,0.4c0,0,0.1,0,0.1,0c0.2,0.3,0.3,0.6,0.5,1c0.1,0.2,0.1,0.5,0.2,0.6c0.4,0.4,0.8,0.8,1.2,1.2
	c0.1,0.1,0.3,0.3,0.6,0.2c0.3-0.1,0.6,0,0.9,0c0.4,0,0.6-0.1,0.8-0.4c0.2-0.3,0.5-0.5,0.7-0.7c0-0.1-0.1-0.2-0.1-0.4
	c0-0.2,0.2-0.4,0-0.7c-0.1-0.1,0.1-0.3,0-0.5c-0.1-0.3-0.1-0.7-0.2-1.1c0-0.2,0-0.3,0-0.5c-0.1-0.4-0.1-0.7-0.1-1.1
	c0-0.6,0.1-1.2-0.4-1.7c-0.9,0-1.4-0.9-2.2-1.2c-0.1,0-0.2-0.2-0.2-0.3c-0.1-0.3-0.5-0.4-0.4-0.8c-0.5-0.5-0.3-1.1-0.3-1.7
	c0-0.5,0.3-1,0.3-1.6c-0.3-0.1-0.7-0.1-1-0.2c-0.3-0.1-0.6-0.2-0.9-0.3c-0.3-0.1-0.5-0.3-0.7-0.5c-0.6,0.2-0.2,0.9-0.7,1.1
	C161.8,18.6,161.9,18.7,161.9,18.7z M160.9,22.7C160.9,22.7,160.9,22.7,160.9,22.7c-0.1-0.1-0.1,0-0.2,0c0,0,0,0,0,0
	C160.8,22.7,160.8,22.7,160.9,22.7z M155.6,34.5C155.6,34.5,155.6,34.5,155.6,34.5c0.1,0,0.1,0,0.2,0c0,0,0,0,0,0
	C155.7,34.5,155.6,34.5,155.6,34.5z M165.9,15.1C166,15.1,166,15.1,165.9,15.1c0.1,0,0.1,0,0.1,0C166,15,166,15,165.9,15.1
	C166,15,166,15,165.9,15.1z M170.9,10.8C170.9,10.8,170.9,10.9,170.9,10.8C170.9,10.9,171,10.8,170.9,10.8
	C170.9,10.8,170.9,10.8,170.9,10.8C170.9,10.8,170.9,10.8,170.9,10.8z M170.1,11.5L170.1,11.5L170.1,11.5L170.1,11.5z M160.9,11.7
	C160.9,11.7,160.9,11.7,160.9,11.7C160.8,11.7,160.9,11.8,160.9,11.7C160.9,11.8,160.9,11.8,160.9,11.7z M160.9,12.2
	C160.9,12.2,160.9,12.2,160.9,12.2C160.9,12.2,160.9,12.3,160.9,12.2C160.9,12.3,160.9,12.3,160.9,12.2z M169.3,13.7
	C169.2,13.7,169.2,13.7,169.3,13.7C169.2,13.7,169.2,13.7,169.3,13.7C169.2,13.7,169.3,13.7,169.3,13.7z M169.5,14
	C169.5,14,169.5,14,169.5,14C169.5,14.1,169.5,14.1,169.5,14C169.5,14.1,169.5,14.1,169.5,14C169.5,14,169.5,14,169.5,14z
	 M165.9,15.6L165.9,15.6L165.9,15.6L165.9,15.6z M169.1,15.6C169.1,15.6,169.1,15.6,169.1,15.6C169.1,15.6,169.1,15.6,169.1,15.6
	C169.1,15.6,169.1,15.6,169.1,15.6C169.1,15.6,169.1,15.6,169.1,15.6z M161.4,16.8C161.4,16.8,161.4,16.7,161.4,16.8
	C161.4,16.7,161.4,16.7,161.4,16.8C161.4,16.8,161.4,16.8,161.4,16.8C161.4,16.8,161.4,16.8,161.4,16.8z M170.3,16.7L170.3,16.7
	L170.3,16.7L170.3,16.7z M166.6,18.2C166.6,18.2,166.5,18.2,166.6,18.2C166.5,18.2,166.5,18.2,166.6,18.2
	C166.5,18.2,166.5,18.2,166.6,18.2C166.6,18.2,166.6,18.2,166.6,18.2z M168.5,18.2C168.5,18.2,168.5,18.2,168.5,18.2
	C168.5,18.2,168.5,18.2,168.5,18.2C168.5,18.2,168.5,18.2,168.5,18.2C168.5,18.2,168.5,18.2,168.5,18.2z M169.8,18.2
	C169.8,18.2,169.7,18.2,169.8,18.2C169.7,18.2,169.7,18.2,169.8,18.2C169.8,18.2,169.8,18.2,169.8,18.2
	C169.8,18.2,169.8,18.2,169.8,18.2z M170.4,20.9C170.4,20.9,170.4,20.9,170.4,20.9C170.4,20.9,170.4,20.9,170.4,20.9
	C170.4,20.9,170.4,20.9,170.4,20.9C170.4,20.9,170.4,20.9,170.4,20.9z M160.9,22.2C160.9,22.2,160.9,22.2,160.9,22.2
	C160.9,22.2,160.9,22.2,160.9,22.2C160.9,22.2,160.8,22.2,160.9,22.2C160.8,22.2,160.8,22.2,160.9,22.2z M166.1,22.2
	C166,22.2,166,22.2,166.1,22.2C166,22.2,166,22.2,166.1,22.2C166,22.2,166,22.2,166.1,22.2z M169.1,22.7
	C169.1,22.7,169.1,22.7,169.1,22.7C169.1,22.7,169.1,22.7,169.1,22.7C169.1,22.7,169.1,22.7,169.1,22.7
	C169.1,22.7,169.1,22.7,169.1,22.7z M166.7,22.8L166.7,22.8L166.7,22.8L166.7,22.8z M167.7,23.2C167.7,23.2,167.7,23.2,167.7,23.2
	C167.7,23.2,167.7,23.2,167.7,23.2C167.7,23.2,167.7,23.2,167.7,23.2z M170.9,23.2C170.9,23.2,170.9,23.2,170.9,23.2
	C170.9,23.2,170.9,23.2,170.9,23.2C170.9,23.2,170.9,23.2,170.9,23.2C170.9,23.2,170.9,23.2,170.9,23.2z M172.5,23.6
	C172.5,23.6,172.5,23.6,172.5,23.6C172.4,23.6,172.4,23.6,172.5,23.6C172.5,23.6,172.5,23.6,172.5,23.6
	C172.5,23.6,172.5,23.6,172.5,23.6z M160.9,24.1L160.9,24.1L160.9,24.1L160.9,24.1z M169.2,24.1L169.2,24.1L169.2,24.1L169.2,24.1z
	 M170,24.4C170,24.4,170,24.3,170,24.4C170,24.3,170,24.4,170,24.4C170,24.4,170,24.4,170,24.4C170,24.4,170,24.4,170,24.4z
	 M171.3,24.5C171.3,24.5,171.3,24.5,171.3,24.5C171.3,24.5,171.3,24.5,171.3,24.5C171.3,24.5,171.3,24.5,171.3,24.5
	C171.3,24.5,171.3,24.5,171.3,24.5z M169.1,26.1C169.1,26,169.1,26,169.1,26.1C169.1,26,169.1,26,169.1,26.1
	C169.1,26,169.1,26.1,169.1,26.1C169.1,26.1,169.1,26.1,169.1,26.1z M158.2,28.6C158.2,28.6,158.2,28.6,158.2,28.6
	C158.2,28.6,158.2,28.6,158.2,28.6C158.1,28.6,158.1,28.6,158.2,28.6C158.2,28.6,158.2,28.6,158.2,28.6z M171.2,29.4L171.2,29.4
	L171.2,29.4L171.2,29.4z M171.4,29.7C171.3,29.7,171.3,29.7,171.4,29.7C171.3,29.7,171.3,29.7,171.4,29.7
	C171.3,29.7,171.3,29.7,171.4,29.7z M168.6,30.6C168.6,30.6,168.6,30.5,168.6,30.6C168.6,30.6,168.6,30.6,168.6,30.6
	C168.6,30.6,168.6,30.6,168.6,30.6z M171.7,30.5C171.7,30.5,171.7,30.5,171.7,30.5C171.6,30.6,171.7,30.6,171.7,30.5
	C171.7,30.6,171.7,30.6,171.7,30.5C171.7,30.6,171.7,30.5,171.7,30.5z M170.1,31.1C170.1,31.1,170.1,31.1,170.1,31.1
	C170.2,31.1,170.2,31.1,170.1,31.1C170.2,31,170.1,31,170.1,31.1C170.1,31,170.1,31.1,170.1,31.1z M165.6,32.2
	C165.5,32.2,165.5,32.2,165.6,32.2C165.5,32.2,165.5,32.2,165.6,32.2C165.5,32.2,165.5,32.3,165.6,32.2
	C165.5,32.3,165.5,32.2,165.6,32.2z M171,33.1L171,33.1L171,33.1L171,33.1z M156.4,33.2C156.4,33.2,156.3,33.2,156.4,33.2
	C156.3,33.3,156.3,33.3,156.4,33.2C156.4,33.3,156.4,33.3,156.4,33.2C156.4,33.3,156.4,33.3,156.4,33.2z M169.2,6.6L169.2,6.6
	L169.2,6.6L169.2,6.6z M168.3,6.8C168.2,6.8,168.2,6.8,168.3,6.8C168.2,6.8,168.2,6.8,168.3,6.8C168.2,6.9,168.2,6.9,168.3,6.8
	C168.2,6.9,168.2,6.9,168.3,6.8z M165.1,8.3C165.1,8.3,165.1,8.3,165.1,8.3C165.1,8.2,165.1,8.2,165.1,8.3
	C165.1,8.2,165.1,8.2,165.1,8.3C165.1,8.3,165.1,8.3,165.1,8.3z M170.1,8.8C170.1,8.8,170,8.8,170.1,8.8C170,8.8,170,8.8,170.1,8.8
	C170,8.8,170,8.8,170.1,8.8C170,8.8,170,8.8,170.1,8.8z M161.4,9.7L161.4,9.7L161.4,9.7L161.4,9.7z M169.1,10.4
	C169.1,10.4,169.1,10.4,169.1,10.4C169.1,10.4,169,10.4,169.1,10.4C169,10.4,169,10.4,169.1,10.4z M170.4,10.5
	C170.4,10.5,170.4,10.5,170.4,10.5C170.4,10.4,170.4,10.4,170.4,10.5C170.4,10.4,170.4,10.4,170.4,10.5
	C170.4,10.5,170.4,10.5,170.4,10.5z M169.5,10.8C169.5,10.8,169.5,10.8,169.5,10.8C169.5,10.8,169.5,10.8,169.5,10.8
	C169.5,10.9,169.5,10.8,169.5,10.8C169.5,10.8,169.5,10.8,169.5,10.8z M168.5,10.4L168.5,10.4L168.5,10.4L168.5,10.4z"/>
<path class="st0" d="M121.6,20.8c-0.3-0.2-0.6-0.4-0.9-0.6c-0.2-0.1,0-0.5-0.4-0.6c0,0,0-0.3,0-0.4c-0.3-0.7-0.1-1.3,0.1-1.9
	c0.1-0.4,0.6-0.6,1-0.5c0.8,0.1,1.5-0.2,2.1-0.7c0.4-0.3,0.9-0.6,1.4-0.9c0.8-0.6,1.7-0.8,2.5-1.3c0.2-0.1,0.4-0.3,0.7-0.4
	c0,0,0,0,0,0c0,0,0,0-0.1,0c0-0.1,0-0.2,0.1-0.2c0.5-0.4,0.9-1,1.2-1.6c0.1-0.3,0.9-1.1,1.2-1.3c0.1-0.1,0.2-0.3,0.3-0.5
	c0.2-0.8,0.7-1.4,1.1-2c0.6-0.8,1.1-1.6,1.1-2.6c0-0.1,0.1-0.1,0.1-0.2c-0.1-0.1-0.2-0.2-0.3-0.3c0-0.8,0.3-1.4,0.9-1.8
	c0.5,0.1,1,0.1,1.5,0.2c0.2,0,0.5,0.1,0.5,0.4c0,0.4,0.3,0.7,0.6,1c0.1,0.1,0.2,0.3,0.2,0.5c-0.1,0.1-0.1,0.2-0.2,0.3
	c0.1,0,0.1,0.1,0.2,0.1c0,0.1,0,0.1,0,0.1c-0.1,0.1-0.2,0.2-0.2,0.3c0.2,0.3-0.4,0.4-0.2,0.7c-0.2,0.3-0.3,0.5-0.5,0.8
	c-0.2,0.2-0.4,0.4-0.5,0.6c-0.3,0.6-0.9,0.7-1.2,1.3c-0.1,0.3-0.3,0.6-0.5,0.8c-0.3,0.4-0.6,0.7-1,1.1c0,0.1,0,0.3,0.1,0.4
	c0.2,0.1,0.5,0.2,0.7,0.2c0.7,0.2,0.9,0.7,0.7,1.4c-0.1,0.3-0.3,0.4-0.6,0.5c-0.2,0.1-0.4,0.2-0.5,0.4c-0.3,0.3-0.7,0.6-1,0.9
	c-0.1,0.1-0.1,0.2-0.2,0.2c-0.1,0.1-0.1,0.2-0.2,0.3c-0.2,0.2-0.5,0.2-0.5,0.6c-0.4,0.2-0.6,0.6-0.9,0.9c-0.4,0.5-0.9,0.9-1.2,1.4
	c-0.3,0.4-0.5,0.8-0.8,1.2c-0.1,0.1-0.2,0.1-0.2,0.2c-0.2,0.1-0.4,0.2-0.4,0.5c0,0.2-0.5,0.2-0.4,0.6c-0.6,0.4-0.8,1.1-1.3,1.5
	c-0.2,0.2-0.4,0.5-0.5,0.7c-0.1,0.3-0.5,0.3-0.6,0.6c-0.1,0.3-0.2,0.5-0.4,0.7c-0.2,0.3-0.5,0.5-0.7,0.8c0.1,0.3,0.2,0.6,0.3,0.9
	c-0.1,0.1-0.1,0.1-0.2,0.2c0.3,0.1,0.4,0.5,0.5,0.7c0,0.7,0.6,1.3,0.2,1.9c0.1,0.3,0.2,0.5,0.3,0.9c0.2-0.1,0.4-0.2,0.5-0.4
	c0.3-0.3,0.4-0.7,0.7-1c0.3-0.3,0.6-0.6,0.9-0.9c0.2,0.1,0.3,0.2,0.4,0.3c0,0.1,0,0.1,0,0.1c-0.3,0.1-0.2,0.4-0.3,0.7
	c-0.2,0.5-0.5,0.9-0.5,1.4c0,0.2-0.1,0.6-0.3,0.7c-0.4,0.2-0.2,0.6-0.3,0.8c-0.1,0.2-0.1,0.2-0.3,0.4c0.1,0.1,0.1,0.2,0.2,0.3
	c-0.4,0.3-0.6,0.6-0.7,1.1c0,0.1-0.3,0.2-0.4,0.4c0,0.9-0.9,1.4-1.7,0.9c-0.2-0.1-0.5-0.2-0.7-0.5c-0.2-0.4-0.5-0.7-0.5-1.2
	c0-0.3-0.1-0.6,0-0.9c0-0.3,0.2-0.6,0-0.9c0.3-0.2-0.1-0.5,0-0.7c0.1-0.2,0.2-0.5,0.2-0.7c0.1-0.5,0.1-1,0.2-1.6
	c0-0.1-0.1-0.2-0.1-0.3c-0.2,0.2-0.5,0.3-0.6,0.5c-0.1,0.3-0.2,0.5-0.5,0.7c-0.2,0.1-0.4,0.4-0.6,0.6c-0.2,0.2-0.2,0.5-0.4,0.8
	c-0.2,0.3-0.5,0.6-0.7,0.9c-0.1,0.2-0.2,0.4-0.3,0.5c-0.2,0.1-0.3,0.4-0.4,0.5c-0.3,0.2-0.7,0.4-1.1,0.5c-0.4,0.1-1-0.4-1.2-0.9
	c-0.2-0.5-0.2-0.7,0.2-1.2c0.1-0.1,0.1-0.2,0.2-0.3c0.1-0.1,0.2-0.2,0.3-0.2c0.4-0.2,0.8-0.3,1.1-0.4c0.5-0.7,1-1.3,1.7-1.7
	c0.3-0.2,0.5-0.5,0.7-0.7c0.4-0.4,0.7-0.8,1.2-1.1c0.1-0.1,0.2-0.3,0.3-0.5c0.1-0.2,0.2-0.4,0.4-0.6c0.3-0.4,0.7-0.8,1.1-1.3
	c0.1-0.2,0.2-0.4,0.3-0.5c0.3-0.5,0.7-0.9,1.1-1.4c0.1-0.1,0.2-0.1,0.2-0.2c0.4-0.7,0.7-1.3,1.1-2.1c-0.4,0.1-0.8,0.1-1,0.5
	c-0.1,0.2-0.3,0.3-0.5,0.4c-0.2,0.1-0.4,0.3-0.6,0.5c-0.1,0.2-0.5,0.3-0.7,0.4C122.5,21,122,21.1,121.6,20.8
	C121.6,20.8,121.6,20.8,121.6,20.8C121.6,20.8,121.6,20.8,121.6,20.8z M129.8,11.6C129.8,11.6,129.8,11.6,129.8,11.6
	C129.8,11.6,129.8,11.6,129.8,11.6C129.8,11.6,129.8,11.6,129.8,11.6C129.8,11.6,129.8,11.6,129.8,11.6z M129.8,12.1
	C129.8,12.1,129.8,12.1,129.8,12.1C129.8,12.1,129.8,12.1,129.8,12.1C129.8,12.1,129.8,12.1,129.8,12.1
	C129.8,12.1,129.8,12.1,129.8,12.1z M125.6,17C125.7,17,125.7,17,125.6,17C125.7,17,125.7,17,125.6,17z M128.9,17
	C128.9,17,128.9,17,128.9,17C128.9,17,128.9,17,128.9,17C128.9,17,128.9,17,128.9,17C128.9,17,128.9,17,128.9,17z M122.1,17.9
	C122.1,17.9,122.1,17.9,122.1,17.9C122,17.9,122.1,17.9,122.1,17.9C122.1,17.9,122.1,17.9,122.1,17.9z M125.3,17.9
	C125.3,17.9,125.3,17.9,125.3,17.9C125.3,17.9,125.3,17.9,125.3,17.9C125.3,17.9,125.3,18,125.3,17.9
	C125.3,18,125.3,17.9,125.3,17.9z M122.1,19.3C122.1,19.3,122.1,19.3,122.1,19.3C122.1,19.3,122.1,19.4,122.1,19.3
	C122.1,19.4,122.1,19.4,122.1,19.3C122.1,19.3,122.1,19.3,122.1,19.3z M121.2,19.6L121.2,19.6L121.2,19.6L121.2,19.6z M118.5,29.4
	C118.5,29.4,118.5,29.4,118.5,29.4C118.5,29.4,118.5,29.4,118.5,29.4C118.5,29.4,118.4,29.4,118.5,29.4
	C118.4,29.4,118.4,29.4,118.5,29.4z M123.6,29.4C123.6,29.4,123.7,29.4,123.6,29.4C123.7,29.4,123.6,29.4,123.6,29.4
	C123.6,29.4,123.6,29.4,123.6,29.4C123.6,29.4,123.6,29.4,123.6,29.4z M122,30.3C122.1,30.3,122.1,30.3,122,30.3
	C122.1,30.3,122.1,30.3,122,30.3C122.1,30.3,122.1,30.3,122,30.3C122,30.3,122,30.3,122,30.3z M122.1,31.7L122.1,31.7L122.1,31.7
	L122.1,31.7z M135.6,4.4C135.6,4.4,135.6,4.4,135.6,4.4C135.6,4.4,135.6,4.4,135.6,4.4C135.6,4.4,135.6,4.4,135.6,4.4
	C135.6,4.4,135.6,4.4,135.6,4.4z M134,5.3C134,5.3,134,5.3,134,5.3C133.9,5.3,133.9,5.3,134,5.3C133.9,5.3,133.9,5.3,134,5.3
	C133.9,5.3,133.9,5.3,134,5.3z M134.1,6.7C134.1,6.7,134.1,6.7,134.1,6.7C134,6.7,134,6.7,134.1,6.7C134,6.7,134.1,6.7,134.1,6.7
	C134.1,6.7,134.1,6.7,134.1,6.7z M132.5,7.6C132.5,7.6,132.5,7.6,132.5,7.6C132.5,7.6,132.5,7.6,132.5,7.6
	C132.5,7.6,132.5,7.6,132.5,7.6C132.5,7.6,132.5,7.6,132.5,7.6z"/>
<path class="st0" d="M31.7,30.1c-0.1,0.1-0.1,0.3-0.2,0.4c0.2,0.1,0.4,0.2,0.6,0.3c-0.1,1-3,1.3-4.8,0.5c0.1-0.5,0-1.1,0.2-1.5
	c0.5-0.6-0.6-1.1,0-1.6c0,0,0.1-0.1,0.1,0c0,0,0,0,0,0.1c-0.4-0.3-0.5-0.6,0-0.9c0,0,0.1,0.1,0.1,0.1c0,0-0.1,0-0.1-0.1
	c-0.1-0.2-0.2-0.6-0.2-0.6c0.7-0.3-0.5-1.4,0.4-1.5c-0.1-0.3-0.4-0.6-0.4-0.8c0.1-0.4-0.6-0.9,0.2-1.2c0,0,0,0,0.1,0.1
	c0,0-0.1,0-0.1,0c0-0.3-0.2-0.7-0.1-0.9c0.4-0.6-0.4-1.3,0.3-1.8c-1-0.5-0.4-1.3-0.3-2c0.1-0.7,0.1-1.4,0.1-2.1
	c0.1-0.1,0.3-0.2,0.4-0.2c0,0-0.1-0.1-0.1-0.1c-0.1,0.1-0.2,0.2-0.3,0.4c-0.1-0.1-0.3-0.3-0.3-0.4c0.1-0.8,0.2-1.5,0.3-2.3
	c0-0.2,0.2-0.3,0.4-0.4c-0.2-0.2-0.4-0.4-0.6-0.5c0.1-0.2,0.1-0.5,0.2-0.7c0,0,0.1,0,0.1-0.1c0,0,0,0.1-0.1,0.1
	c-0.4,0-0.3-0.3-0.3-0.6c0.1,0,0.1-0.1,0.1,0c0-0.1,0,0,0,0.1c-0.9-0.1-1.7-0.1-2.5,0.4c1.1,0.5-0.3,1.2,0.2,1.9
	c0.4,0.5,0.1,1.4,0.2,2.1c-0.1,0.1-0.3,0.1-0.6,0.3c0.3,0.1,0.5,0.2,0.7,0.3c0,0.1,0.1,0.2,0,0.3c-0.6,0.8-0.3,1.7-0.2,2.5
	c0.1,0.6,0.1,1-0.6,1.3c0.3,0.1,0.4,0.2,0.5,0.2c0.1,0.8,0,1.6,0.2,2.2c0.1,0.4-0.7,0.5-0.2,0.9c0.5,0.4-0.2,0.6-0.2,1
	c0.1,0.1,0.2,0.1,0.3,0.2c0,0.8,0,1.6,0,2.5c-0.1,0.1-0.3,0.2-0.5,0.4c0.2,0.1,0.4,0.2,0.4,0.2c0,1.1,0,2.2,0,3.4
	c-1.3,0-2.8,0-4.3,0c-0.1-1.3-0.4-2.6-0.1-4.1c0.2-0.8-0.4-1.8-0.2-2.6c0.2-0.9-0.2-1.9,0.3-2.7c-0.6-0.9-0.2-1.8,0-2.7
	c0.1-0.6-0.5-0.8-0.3-1.4c0.3-1,0.5-2.2,0.2-3.1c-0.4-1.2-0.1-2.2,0-3.2c-0.8-1-1.6-0.1-2.5-0.1c0,0.8,0,1.6,0,2.3
	c0,0,0,0.1-0.1,0.1c0,0,0-0.1,0-0.1c0.7,0.6,0,0.8-0.4,1.1c0.2,0.1,0.4,0.2,0.7,0.3c-0.6,1.2,0.2,2.3-0.1,3.6
	c-0.2,0.1-0.5,0.3-0.8,0.4c0.2,0.1,0.5,0.1,0.5,0.1c0.1,0.7,0.2,1.4,0.2,2.1c0,0.5,0.2,1,0,1.4c-0.3,0.9-0.2,1.8-0.1,2.6
	c0.1,0.6,0.1,1.2,0,1.8c-0.1,0.9,0,1.8,0,2.6c0,0,0.1,0,0.1,0.1c0.2,1.4-0.1,1.6-1.4,1.6c-1.1,0-2.2,0-3.4,0c0.2-1.5,0.5-2.9,0-4.3
	c-0.1-0.3,0-0.7,0.1-1.1c0.1-0.8,0.3-1.6,0-2.5c-0.2-0.6,0-1.4,0.2-2.1c0.1-0.2,0.2-0.3,0.1-0.6c-0.2-0.3-0.1-0.6-0.1-1
	c0,0,0.1-0.1,0.1-0.1s0,0-0.1,0.1c-0.3-0.2-0.3-0.4-0.2-0.7c0.1-0.2,0-0.4,0-0.7c0.2-0.2,0.5-0.4,0.8-0.7c0,0,0,0,0,0
	c-0.2,0-0.4,0-0.4,0c-0.1-0.8-0.2-1.5-0.3-2.1c0-0.2-0.1-0.5-0.1-0.7c0.1-0.4,0.5-1,0.3-1.3c-0.4-0.6,0.1-1,0-1.5
	c0-0.1-0.1-0.1-0.2-0.2l0,0c-0.3-0.8-0.2-1.5,0.4-2.3c-0.4-0.4-0.5-0.9-0.2-1.5c-0.8-0.2,0-1-0.6-1.3c0.6-0.2,1-0.3,1.4-0.4
	c0.4,0.2,0.7,0.4,1.1,0.5L16,7.3l-0.1-0.1c0-0.1,0.1-0.3,0.1-0.6c0.9,0.6,1.7-0.1,2.6,0.2C19,7,19.5,6.9,20.1,7
	c0.1-0.1,0.4-0.3,0.6-0.5c-0.5-1,0.2-2.1,0-3c-0.2-0.9-0.1-1.6-0.1-2.4c0-0.3,0.2-0.6,0.2-1c8.2,0,16.3,0,24.7,0
	c0.1,0.9,0.3,1.8,0.3,2.7c0,0.5-0.4,0.9-0.1,1.4c-0.6,0.5,0.3,1,0.1,1.6c-0.1,0.3-0.2,0.8-0.1,1c0.3,0.5-0.2,0.6-0.2,0.8
	c-0.1,0.2,0.1,0.4,0.2,0.6c0.1,0.8,0.2,1.5,0.3,2.3c-0.3,0.1-0.5,0.3-0.8,0.4c0.3,0.2,0.4,0.3,0.7,0.4c0,0.4-0.5,0.7-0.2,1.3
	c0.3,0.7,0.8,1.7-0.1,2.4c0.5,0.4,0,1,0.1,1.5c0.1,0.6,0,1.2,0.2,1.8c0.2,0.6-0.3,0.7-0.4,0.9c0.2,1,0.4,1.9,0.5,2.9
	c-0.2,0.1-0.4,0.2-0.9,0.5c0.3,0.2,0.5,0.3,0.8,0.5c-0.2,0.3-0.4,0.5-0.6,0.7c0.7,0.7,0.4,1.6,0.6,2.4c-0.2,0.2-0.4,0.3-0.7,0.5
	c0.2,0.2,0.4,0.3,0.7,0.5c-0.2,0.2-0.3,0.5-0.5,0.7c0.6,0.5,0.3,1.3,0.5,2c0.1,0.7-0.8,1.2,0.1,2.1c-1.1-0.1-1.9-0.3-2.6-0.3
	c-0.7,0-1.4,0.2-2.1,0.2c-0.1-1.5-0.1-2.8-0.1-4.2c0-0.7,0.2-1.3,0.1-2c-0.2-1.7,0.1-3.5-0.1-5.2c-0.1-0.4,0-0.8,0-1.2
	c0.1-1.1-0.1-2.1,0-3.2c0.2-1.8-0.2-3.6,0.1-5.4c0,0,0-0.1,0-0.1c-0.1-1-0.1-2-0.1-3c0.1-1.3-0.1-2.5-0.2-3.8c0.1-0.1,0.2-0.2,0,0
	c0-0.2,0-0.1,0,0.1c-0.2,0-0.5,0.1-0.7,0.1c-1.7-0.2-3.5,0.1-5.2-0.1c-1.9-0.2-3.8,0.4-5.6-0.2c-1.4,0.5-2.9,0.1-4.2,0
	C25.2,4,24.9,4.3,25,4.7c0,0.3,0.4,0.6,0.1,1c-0.2,0.2,0.1,0.7,0.1,1.1C26,7,26.9,6.7,27.6,7.2c0,0,0,0.1,0,0.1c0,0,0,0,0.1,0
	c0,0-0.1-0.1-0.1-0.1c0-0.1,0.1-0.3,0.1-0.4C31.4,7,35.1,7,38.6,6.9c0.7,0.8,0.4,1.3-0.2,1.8c0,0-0.1,0-0.1,0c0,0,0,0.1,0,0.1
	c0,0,0.1-0.1,0.1-0.1c0.2,0.1,0.5,0.1,0.6,0.1c0,1.2,0,2.3,0,3.6c0,0-0.2,0.2-0.6,0.5C38.8,13,38.9,13,39,13c-0.1,0.9-0.1,1.9-0.2,3
	c0,0,0.2,0.1,0.5,0.3c-0.3,0.3-0.5,0.5-0.7,0.8c0.1,0.1,0.3,0.1,0.3,0.2c0,0.6,0,1.3,0,1.9c0,0.3-0.2,0.6-0.3,1
	c0.1,0,0.3,0.1,0.6,0.2c-0.2,0.3-0.3,0.5-0.5,0.7c0.1,0.9,0.6,1.9,0.3,2.6c-0.3,0.7-0.1,1.3-0.1,2c0,0.8,0.2,1.5,0.3,2.4
	c-0.2,0.1-0.4,0.3-0.7,0.6c0.2,0.1,0.4,0.2,0.6,0.3c-0.3,0.8-0.1,1.6,0.2,2.4c-1.5,0.9-3,0.2-4.4,0.1c-0.2,0-0.4-0.4-0.5-0.6
	c0-0.1,0.2-0.3,0.4-0.5c0.1,0.1,0.2,0.1,0,0c0.2,0,0.1,0-0.1,0c-0.1-0.3-0.3-0.7-0.3-1c0-0.5,0.1-1.1,0.1-1.6c0-0.4-0.1-0.9-0.1-1.5
	c0,0,0.2-0.2,0.4-0.4c-0.1-0.1-0.3-0.1-0.5-0.3c0.1-0.8,0.4-1.6,0.3-2.3c-0.2-1.2-0.1-2.3,0-3.4c-0.6-0.5,0.2-1.1-0.2-1.8
	c-0.3-0.4,0.2-1.3,0.2-1.9c0-0.4,0-0.9-0.1-1.5c0,0,0.2-0.2,0.5-0.4c-0.2-0.1-0.4-0.1-0.6-0.2c0.1-0.7,0.1-1.5,0.2-2.3
	c-1-0.1-1.8-0.4-2.6,0.4c0.1,0.6,0.2,1.2,0.4,1.9c-0.2,0.1-0.4,0.2-0.6,0.3c0.2,0.2,0.4,0.3,0.7,0.5c-0.4,0.5-0.5,0.9-0.3,1.6
	c0.2,0.6,0.1,1.3,0.2,2c-0.3,0.1-0.5,0.1-0.9,0.2c0.3,0.2,0.5,0.4,0.8,0.6c-0.5,0.4-0.3,0.8-0.2,1.3c0.1,0.8,0.7,1.7-0.2,2.4
	c0.6,0.5-0.1,1.1,0.2,1.6c0.2,0.3,0.2,0.7,0.2,1.2c-0.2,0.1-0.4,0.2-0.6,0.3c0.2,0.1,0.4,0.3,0.7,0.4c-0.3,0.2-0.5,0.4-0.7,0.6
	c0.7,0.9,0.5,1.9,0.7,3.1C32,30.2,31.9,30.1,31.7,30.1c-0.1,0-0.1,0-0.1-0.1C31.7,30,31.7,30.1,31.7,30.1z M23.5,29.5
	C23.5,29.5,23.6,29.4,23.5,29.5C23.6,29.4,23.5,29.5,23.5,29.5c0,0.1,0,0.1-0.1,0.1C23.5,29.6,23.5,29.5,23.5,29.5z M15.9,30.4
	C15.9,30.4,16,30.4,15.9,30.4C15.9,30.4,15.9,30.4,15.9,30.4c-0.1,0-0.1,0-0.1,0C15.8,30.3,15.9,30.3,15.9,30.4z M37.9,29.8
	C37.8,29.8,37.8,29.9,37.9,29.8C37.8,29.8,37.8,29.8,37.9,29.8c0-0.1,0.1-0.1,0.1-0.1C37.9,29.7,37.9,29.8,37.9,29.8z M35.5,28.3
	C35.5,28.3,35.4,28.3,35.5,28.3C35.4,28.3,35.5,28.3,35.5,28.3c0.1,0,0.1,0,0.1,0.1C35.6,28.4,35.5,28.4,35.5,28.3z M23.8,28.3
	c0,0-0.1-0.1-0.1-0.1C23.7,28.2,23.8,28.3,23.8,28.3c0.1,0,0.1,0,0.1,0.1C23.9,28.4,23.8,28.4,23.8,28.3z M43.1,25.4
	C43.1,25.4,43.2,25.4,43.1,25.4C43.2,25.4,43.1,25.4,43.1,25.4C43.1,25.4,43.1,25.4,43.1,25.4C43.1,25.4,43.1,25.4,43.1,25.4z
	 M31.4,25.4c0,0,0.1,0.1,0.1,0.1C31.5,25.5,31.4,25.4,31.4,25.4L31.4,25.4L31.4,25.4z M45.2,24.8C45.2,24.8,45.2,24.8,45.2,24.8
	C45.2,24.9,45.2,24.8,45.2,24.8C45.1,24.8,45.1,24.7,45.2,24.8C45.1,24.7,45.1,24.8,45.2,24.8z M29.7,22.5
	C29.7,22.5,29.7,22.5,29.7,22.5C29.7,22.5,29.7,22.5,29.7,22.5c-0.1,0-0.1,0-0.1-0.1C29.6,22.4,29.6,22.4,29.7,22.5z M18,22.5
	c0,0,0.1,0.1,0.1,0.1C18,22.5,18,22.5,18,22.5C17.9,22.4,17.9,22.4,18,22.5C17.9,22.4,17.9,22.4,18,22.5z M44.9,21.6
	c0,0,0.1-0.1,0.1-0.1C44.9,21.5,44.9,21.6,44.9,21.6c0,0.1,0,0.1-0.1,0.1C44.8,21.7,44.8,21.6,44.9,21.6z M35.5,21
	c0,0,0.1,0.1,0.1,0.1C35.6,21.1,35.5,21,35.5,21c-0.1,0-0.1,0-0.1-0.1C35.4,21,35.5,21,35.5,21z M45.2,20.4
	C45.2,20.4,45.2,20.4,45.2,20.4c-0.1,0-0.1,0-0.1-0.1C45.1,20.4,45.1,20.4,45.2,20.4z M29.1,20.4c0,0,0,0.1,0,0.1c0,0,0,0,0.1,0
	C29.1,20.5,29.1,20.5,29.1,20.4c-0.1,0-0.1,0-0.1-0.1C29,20.4,29,20.4,29.1,20.4z M21.8,20.4c0,0,0.1,0.1,0.1,0.1
	C21.8,20.5,21.8,20.5,21.8,20.4c-0.1,0-0.1,0-0.1,0C21.7,20.4,21.7,20.4,21.8,20.4z M29.9,16L29.9,16L29.9,16C30,16,30,16,29.9,16z
	 M29.7,15.1C29.7,15.2,29.7,15.2,29.7,15.1C29.7,15.2,29.7,15.2,29.7,15.1c-0.1,0-0.1,0-0.1-0.1C29.6,15.1,29.6,15.1,29.7,15.1z
	 M23.2,14.6L23.2,14.6L23.2,14.6C23.2,14.6,23.2,14.6,23.2,14.6z M15.9,14.6C15.9,14.6,16,14.6,15.9,14.6
	C16,14.6,15.9,14.6,15.9,14.6C15.9,14.5,15.8,14.5,15.9,14.6C15.8,14.5,15.9,14.5,15.9,14.6z M45.2,13.1c0,0,0,0.1,0,0.1
	c0,0,0.1,0,0.1,0C45.3,13.2,45.2,13.2,45.2,13.1C45.1,13.1,45.1,13,45.2,13.1C45.1,13,45.1,13,45,13C45.1,13,45.1,13.1,45.2,13.1z
	 M17.4,12.2C17.4,12.2,17.5,12.1,17.4,12.2C17.5,12.1,17.4,12.2,17.4,12.2C17.4,12.2,17.4,12.2,17.4,12.2z M37,10.2
	C37,10.2,37,10.2,37,10.2c0,0.1,0,0.1,0,0.1C36.9,10.3,36.9,10.2,37,10.2z M25.3,10.2C25.3,10.2,25.3,10.2,25.3,10.2
	C25.3,10.2,25.2,10.2,25.3,10.2C25.2,10.2,25.2,10.2,25.3,10.2z M29.7,7.8C29.7,7.9,29.7,7.9,29.7,7.8C29.7,7.9,29.7,7.9,29.7,7.8
	C29.6,7.8,29.6,7.8,29.7,7.8C29.6,7.8,29.6,7.8,29.7,7.8z M23.8,4.9C23.8,4.9,23.9,5,23.8,4.9C23.9,5,23.8,4.9,23.8,4.9
	c-0.1,0-0.1-0.1-0.1-0.1C23.7,4.8,23.8,4.9,23.8,4.9z M40.2,2.9C40.2,2.8,40.2,2.8,40.2,2.9C40.2,2.8,40.2,2.8,40.2,2.9
	C40.2,2.9,40.1,2.9,40.2,2.9C40.1,2.9,40.1,2.9,40.2,2.9z M37.6,1.4c0,0,0,0.1,0,0.1c0,0,0,0,0.1,0C37.6,1.5,37.6,1.5,37.6,1.4
	c0,0-0.1,0-0.1-0.1C37.5,1.4,37.5,1.4,37.6,1.4z M24.7,0.8C24.7,0.8,24.7,0.7,24.7,0.8C24.7,0.8,24.7,0.8,24.7,0.8
	c0,0.1,0,0.1-0.1,0.1C24.6,0.9,24.7,0.8,24.7,0.8z M23.8,21C23.8,21,23.9,21,23.8,21C23.9,21.1,23.8,21,23.8,21
	C23.8,20.9,23.7,20.8,23.8,21C23.7,20.8,23.7,20.9,23.8,21z M38.4,27.7C38.5,27.6,38.6,27.5,38.4,27.7
	C38.5,27.5,38.5,27.6,38.4,27.7L38.4,27.7L38.4,27.7z M18,10.8C18,10.8,18,10.8,18,10.8C18,10.8,18,10.8,18,10.8
	C17.9,10.7,17.9,10.5,18,10.8C17.8,10.6,17.9,10.7,18,10.8z M23.2,6.4C23.4,6.3,23.5,6.3,23.2,6.4C23.4,6.2,23.3,6.3,23.2,6.4
	C23.2,6.4,23.2,6.4,23.2,6.4C23.2,6.4,23.2,6.4,23.2,6.4z M31.1,16.6C31.2,16.6,31.2,16.7,31.1,16.6C31.2,16.7,31.1,16.6,31.1,16.6
	C31.1,16.5,31,16.4,31.1,16.6C31,16.4,31.1,16.5,31.1,16.6z M21.8,1.4C21.8,1.4,21.8,1.4,21.8,1.4C21.8,1.5,21.8,1.4,21.8,1.4
	C21.7,1.3,21.7,1.2,21.8,1.4C21.6,1.2,21.7,1.3,21.8,1.4z M30,0.8C30,0.9,30,1.1,30,0.8C30.1,1,30,0.9,30,0.8
	C29.9,0.7,29.9,0.6,30,0.8C29.8,0.6,29.9,0.7,30,0.8z M34.9,2.3c0.2,0,0.4-0.1,0.6-0.1c0,0,0-0.1-0.1-0.1
	C35.3,2.1,35.1,2.2,34.9,2.3L34.9,2.3L34.9,2.3z M29.1,12.2c0.2,0,0.4-0.1,0.6-0.1c0,0,0-0.1,0-0.1C29.5,12.1,29.3,12.2,29.1,12.2
	c0,0,0,0.1-0.1,0.1C29,12.3,29,12.3,29.1,12.2z M23.2,2.3c0.2,0,0.5-0.1,0.7-0.1c0-0.1-0.1-0.2-0.1-0.3C23.6,2,23.4,2.2,23.2,2.3
	C23.2,2.3,23.2,2.3,23.2,2.3z M22.7,12.7c0.1-0.1,0.1-0.2,0.2-0.2c-0.2-0.1-0.4-0.3-0.5-0.4c0,0,0,0.1-0.1,0.1
	C22.4,12.3,22.5,12.5,22.7,12.7z M15.1,8.3c0,0.1,0.1,0.1,0.1,0.2c0.1-0.1,0.3-0.1,0.4-0.2c0,0,0-0.1,0-0.1
	C15.4,8.2,15.3,8.3,15.1,8.3z M21.9,13c-0.1,0-0.1-0.1-0.2-0.1c0,0.1,0,0.2,0,0.2c0.1,0,0.1,0.1,0.2,0.1
	C21.9,13.1,21.9,13.1,21.9,13z M43.1,21.2c0,0,0-0.1,0-0.1c-0.1,0-0.1,0-0.2,0c0,0,0,0.1,0.1,0.1C43,21.2,43.1,21.2,43.1,21.2z
	 M15.6,27.3C15.6,27.3,15.6,27.3,15.6,27.3c-0.1-0.1-0.2-0.1-0.3-0.1c0,0,0,0.1,0,0.1C15.5,27.4,15.5,27.3,15.6,27.3z M26,1.2
	c-0.1-0.1-0.1-0.1-0.2-0.2c0,0-0.1,0.1-0.1,0.1c0,0.1,0.1,0.1,0.1,0.2C25.8,1.3,25.9,1.2,26,1.2z M31.8,1.1C31.9,1,32,1,32,1
	c-0.1,0-0.2-0.1-0.2-0.1c0,0-0.1,0-0.1,0C31.7,1,31.8,1,31.8,1.1z M37,12.1C37,12.1,37,12.1,37,12.1c-0.1-0.1-0.3-0.1-0.7,0
	C36.8,12.1,36.9,12.1,37,12.1z M16.4,16.3c-0.1,0-0.1-0.1-0.2-0.1c0,0-0.1,0.1-0.1,0.1c0,0.1,0.1,0.1,0.1,0.2
	C16.3,16.5,16.3,16.4,16.4,16.3z M17.5,16.4c0-0.1,0.1-0.1,0.1-0.2c0,0-0.1-0.1-0.1-0.1c-0.1,0-0.1,0.1-0.2,0.1
	C17.4,16.3,17.4,16.4,17.5,16.4z M33.5,1.6c0,0,0.1,0,0.1-0.1c-0.1-0.1-0.1-0.1-0.2-0.2c0,0-0.1,0.1-0.1,0.1
	C33.3,1.5,33.4,1.5,33.5,1.6z M44.6,25.8C44.6,25.8,44.6,25.8,44.6,25.8c0.1,0.1,0.2,0.1,0.3,0.1c0,0,0,0,0-0.1
	C44.8,25.8,44.7,25.8,44.6,25.8z M37.7,29c-0.1-0.1-0.1-0.1-0.2-0.2c0,0-0.1,0.1-0.1,0.1C37.5,29,37.5,29,37.7,29
	C37.6,29.1,37.6,29,37.7,29z M42.9,29.7C42.9,29.6,42.9,29.6,42.9,29.7c-0.1-0.1-0.3-0.1-0.4-0.1c0,0,0,0,0,0.1
	C42.6,29.7,42.7,29.7,42.9,29.7z M16.9,14.3c0-0.1,0-0.1-0.1-0.2c-0.1,0-0.2,0.1-0.2,0.1c0,0.1,0,0.2,0,0.2
	C16.7,14.4,16.8,14.3,16.9,14.3z M23.9,9.4c-0.1-0.1-0.1-0.1-0.2-0.2c0,0-0.1,0.1-0.1,0.1c0,0.1,0.1,0.1,0.1,0.2
	C23.8,9.4,23.8,9.4,23.9,9.4z M25.7,8.1C25.7,8.1,25.7,8.1,25.7,8.1c-0.1,0.1-0.1,0.2-0.1,0.4c0,0,0,0,0.1,0
	C25.8,8.3,25.8,8.2,25.7,8.1z M17.8,26.6c0.1,0,0.1,0.1,0.2,0.1c0-0.1,0-0.1,0-0.2c0,0-0.1-0.1-0.1-0.1
	C17.9,26.5,17.8,26.6,17.8,26.6z M22.9,18c0.1,0.1,0.1,0.1,0.2,0.2c0.1-0.1,0.2-0.2,0.3-0.2c0,0-0.1-0.1-0.1,0
	C23.1,17.9,23,17.9,22.9,18z M14.6,14.8c0,0-0.1,0.1-0.1,0.1c0,0,0,0.1,0,0.1c0,0,0.1-0.1,0.1-0.1C14.6,14.8,14.6,14.8,14.6,14.8z
	 M22.7,1.2C22.8,1.2,22.8,1.2,22.7,1.2c0.1-0.1,0.1-0.1,0.1-0.2c0,0-0.1,0-0.1,0C22.7,1.1,22.7,1.2,22.7,1.2z M27.1,1
	C27.1,1,27.1,0.9,27.1,1C27,0.9,27,0.9,26.9,0.9C27,1,27,1,27,1C27,1,27.1,1,27.1,1z M45.3,1.7c-0.1-0.1-0.1-0.2-0.1-0.2
	c0,0-0.1,0-0.1,0C45.1,1.6,45.1,1.6,45.3,1.7z M30.8,2.1L30.8,2.1l0.1,0L30.8,2.1z M39.9,2.1c0,0-0.1,0-0.1,0
	C39.8,2.1,39.9,2.1,39.9,2.1C39.9,2.1,39.9,2.1,39.9,2.1z M21.6,24.7c0-0.1,0-0.2,0-0.2c0,0-0.1,0-0.1,0
	C21.5,24.5,21.6,24.6,21.6,24.7z M22.5,24.3c0,0,0,0.1,0,0.1c0,0,0.1,0,0.1,0c0-0.1,0-0.1,0-0.2C22.6,24.3,22.5,24.3,22.5,24.3z
	 M29,24.6c0,0,0-0.1,0-0.1C28.9,24.5,28.9,24.6,29,24.6C28.9,24.6,29,24.6,29,24.6z M32.8,2.8c0,0,0.1,0,0.1,0
	C32.9,2.7,32.8,2.7,32.8,2.8C32.8,2.7,32.8,2.7,32.8,2.8z M43,24.4c0,0,0.1,0,0.1,0C43.1,24.4,43.1,24.3,43,24.4
	C43.1,24.3,43.1,24.3,43,24.4z M17.3,24.7c0,0,0.1,0,0.1,0C17.4,24.7,17.3,24.6,17.3,24.7C17.3,24.6,17.3,24.7,17.3,24.7z M22.7,4.2
	C22.7,4.2,22.7,4.1,22.7,4.2c-0.1-0.1-0.1-0.1-0.2-0.1c0,0,0,0.1,0,0.1C22.6,4.2,22.7,4.2,22.7,4.2z M43.4,4.2c0,0,0.1,0,0.1,0
	c0,0,0,0,0-0.1C43.5,4.1,43.4,4.1,43.4,4.2C43.4,4.1,43.4,4.2,43.4,4.2z M23.7,16.4c0,0,0-0.1,0-0.1c0,0-0.1,0-0.1,0
	C23.6,16.4,23.6,16.4,23.7,16.4C23.7,16.4,23.7,16.4,23.7,16.4z M16.6,25.3c-0.1,0-0.1,0-0.2,0c0,0,0.1,0.1,0.1,0.1
	C16.5,25.3,16.5,25.3,16.6,25.3z M23.8,25.3c0,0,0.1,0,0.1,0c0,0-0.1-0.1-0.1-0.1c0,0-0.1,0-0.1,0C23.7,25.3,23.7,25.3,23.8,25.3z
	 M18.1,7.7C18.1,7.7,18,7.6,18.1,7.7c-0.1-0.1-0.2-0.1-0.2-0.1c0,0,0.1,0.1,0.1,0.1C18,7.8,18,7.7,18.1,7.7z M35.6,25.3
	c-0.1,0-0.2,0-0.2,0C35.4,25.2,35.5,25.3,35.6,25.3z M18.4,8.5c0-0.1,0-0.1,0-0.2c0,0-0.1,0-0.1,0C18.3,8.4,18.3,8.5,18.4,8.5z
	 M21.6,17.4c0,0,0.1,0,0.1,0c0,0,0-0.1,0-0.1C21.8,17.3,21.7,17.3,21.6,17.4C21.7,17.3,21.7,17.3,21.6,17.4z M31.8,8.3
	c-0.1,0-0.2,0-0.2,0c0,0,0.1,0.1,0.1,0.1C31.7,8.4,31.8,8.3,31.8,8.3z M37.6,17.3c0,0-0.1,0-0.1,0c0,0,0,0.1,0,0.1
	C37.6,17.4,37.6,17.4,37.6,17.3C37.7,17.3,37.6,17.3,37.6,17.3z M45.1,17.4c0,0,0.1,0,0.1,0c0,0-0.1-0.1-0.1-0.1c0,0-0.1,0-0.1,0
	C45,17.4,45.1,17.4,45.1,17.4z M17.7,8.8c0,0-0.1,0-0.1,0c0,0,0,0,0,0.1C17.6,8.9,17.6,8.9,17.7,8.8C17.7,8.9,17.7,8.9,17.7,8.8z
	 M16.1,9.1C16.1,9.2,16.1,9.2,16.1,9.1c0.1,0.1,0.1,0.1,0.1,0.1c0,0,0-0.1,0-0.1C16.2,9.1,16.2,9.1,16.1,9.1z M19.6,9.4
	c0,0,0-0.1,0-0.1C19.6,9.3,19.5,9.3,19.6,9.4C19.5,9.3,19.5,9.4,19.6,9.4z M27.9,9.1c0,0-0.1,0-0.1,0c0,0,0,0.1,0,0.1
	c0,0,0.1,0,0.1,0C28,9.2,27.9,9.1,27.9,9.1z M16.8,25.8c0,0-0.1,0-0.1,0c0,0,0,0,0,0.1C16.7,25.9,16.8,25.9,16.8,25.8
	C16.8,25.9,16.8,25.8,16.8,25.8z M28.5,25.9c0,0,0.1,0,0.1-0.1c0,0-0.1-0.1-0.1-0.1C28.5,25.8,28.4,25.8,28.5,25.9
	C28.4,25.9,28.5,25.9,28.5,25.9z M36,25.8c0,0-0.1,0.1-0.1,0.1c0,0,0,0.1,0,0.1c0,0,0.1-0.1,0.1-0.1C36,25.9,36,25.9,36,25.8z
	 M35.6,9.5c0,0-0.1,0-0.1-0.1c0,0,0,0.1,0,0.1C35.5,9.5,35.6,9.5,35.6,9.5z M43.2,18.6c0,0,0,0.1,0,0.1c0,0,0.1,0,0.1,0
	C43.3,18.7,43.3,18.7,43.2,18.6C43.3,18.6,43.3,18.6,43.2,18.6z M45,18.5c-0.1,0-0.1,0-0.2,0c0,0,0,0.1,0,0.1
	C44.9,18.6,44.9,18.5,45,18.5z M38.1,26.6c0,0,0-0.1-0.1-0.1c0,0-0.1,0.1-0.1,0.1c0,0.1,0.1,0.1,0.1,0.2
	C38,26.6,38.1,26.6,38.1,26.6z M21.5,10.1c0,0,0.1,0,0.1,0C21.5,10,21.5,10,21.5,10.1C21.4,10,21.4,10,21.5,10.1
	C21.4,10,21.4,10,21.5,10.1z M29.8,26.7c-0.1,0-0.2,0-0.2-0.1c0,0,0,0.1,0,0.1C29.6,26.8,29.7,26.8,29.8,26.7z M43.9,16.4
	C43.9,16.5,43.9,16.5,43.9,16.4c0.1,0.1,0.1,0.1,0.1,0.1c0,0,0-0.1,0-0.1C43.9,16.4,43.9,16.4,43.9,16.4z M37,26.8c0,0,0.1,0,0.1,0
	c0,0-0.1-0.1-0.1-0.1c0,0-0.1,0-0.1,0C36.9,26.7,36.9,26.7,37,26.8z M22.6,20.2c0,0,0-0.1,0-0.1C22.5,20.1,22.5,20.1,22.6,20.2
	C22.4,20.1,22.5,20.2,22.6,20.2C22.5,20.2,22.5,20.2,22.6,20.2z M38,10.8C38,10.8,38,10.8,38,10.8c0.1-0.1,0.1-0.1,0.1-0.2
	C38,10.7,38,10.7,38,10.8C37.9,10.8,38,10.8,38,10.8z M30,20.2l-0.1,0L30,20.2L30,20.2z M24.5,27.3c-0.1,0-0.2,0-0.2,0
	c0,0,0,0.1,0,0.1C24.4,27.4,24.4,27.3,24.5,27.3z M15.8,11.2c0,0.1,0,0.1,0,0.2c0,0,0.1-0.1,0.1-0.1C15.8,11.3,15.8,11.3,15.8,11.2z
	 M36,11.5c0,0,0-0.1,0-0.1C36,11.4,35.9,11.4,36,11.5C35.9,11.4,35.9,11.4,36,11.5z M31.6,11.4C31.7,11.5,31.7,11.5,31.6,11.4
	c0.1,0.1,0.1,0.1,0.1,0.1c0,0,0-0.1,0-0.1C31.7,11.4,31.7,11.4,31.6,11.4z M43.4,11.5c0,0,0.1,0,0.1,0c0,0-0.1-0.1-0.1-0.1
	c0,0-0.1,0.1-0.1,0.1C43.4,11.5,43.4,11.5,43.4,11.5z M31.5,28.4c0,0-0.1,0-0.1,0C31.4,28.5,31.4,28.5,31.5,28.4
	C31.4,28.5,31.5,28.5,31.5,28.4C31.5,28.5,31.5,28.4,31.5,28.4z M43,28.4C43,28.5,43,28.5,43,28.4c0.1,0.1,0.1,0.1,0.2,0.1
	c0,0,0-0.1,0-0.1C43.1,28.4,43.1,28.4,43,28.4z M15.2,12.6c0,0,0-0.1,0-0.1c0,0,0,0-0.1,0C15.2,12.5,15.1,12.5,15.2,12.6
	C15.1,12.6,15.2,12.6,15.2,12.6z M21.6,28.8c0,0,0,0.1,0,0.1c0,0,0,0,0.1,0C21.6,28.9,21.7,28.9,21.6,28.8
	C21.7,28.9,21.6,28.8,21.6,28.8z M30.1,12.8c0,0,0-0.1,0-0.1C30.1,12.7,30,12.8,30.1,12.8C30,12.8,30.1,12.9,30.1,12.8
	C30.1,12.9,30.1,12.9,30.1,12.8z M14.6,22.3c0,0,0-0.1,0-0.1C14.6,22.1,14.5,22.2,14.6,22.3C14.5,22.2,14.6,22.2,14.6,22.3
	C14.6,22.3,14.6,22.3,14.6,22.3z M30.7,22.1c0,0.1,0,0.2,0,0.2c0,0,0.1-0.1,0.1-0.1C30.7,22.2,30.7,22.1,30.7,22.1z M14.7,29.5
	c0,0,0-0.1,0-0.1c0,0-0.1,0.1-0.1,0.1C14.5,29.5,14.6,29.6,14.7,29.5C14.6,29.6,14.6,29.6,14.7,29.5z M16.5,29.3c0,0-0.1,0-0.1,0
	C16.4,29.4,16.5,29.4,16.5,29.3C16.5,29.4,16.5,29.3,16.5,29.3z M22,29.7l0.1,0L22,29.7L22,29.7z M22.1,22.3
	C22.1,22.3,22.1,22.3,22.1,22.3c-0.1-0.1-0.1-0.1-0.1-0.1c0,0,0,0.1,0,0.1C22.1,22.4,22.1,22.4,22.1,22.3z M21.5,14.2
	C21.5,14.1,21.5,14.1,21.5,14.2c-0.1-0.1-0.1-0.1-0.2-0.1c0,0,0,0.1,0,0.1C21.4,14.2,21.5,14.2,21.5,14.2z M24.2,14.2l0,0.1
	L24.2,14.2L24.2,14.2z M28.7,14.2C28.7,14.2,28.6,14.2,28.7,14.2c-0.1-0.1-0.2,0-0.1,0c0,0,0.1,0.1,0.1,0.1
	C28.7,14.3,28.7,14.3,28.7,14.2z M36,14.3c0,0,0-0.1-0.1-0.1c0,0-0.1,0.1-0.1,0.1c0,0.1,0.1,0.1,0.1,0.2C36,14.4,36,14.3,36,14.3z
	 M43.3,14.3c0,0,0-0.1,0-0.1c0,0-0.1,0.1-0.1,0.1C43.2,14.3,43.3,14.4,43.3,14.3C43.3,14.4,43.3,14.4,43.3,14.3z M17.2,20.3
	L17.2,20.3L17.2,20.3L17.2,20.3z M38,22.3L38,22.3L38,22.3L38,22.3z M35.9,27.3L35.9,27.3L35.9,27.3L35.9,27.3z M35.1,29.7
	L35.1,29.7L35.1,29.7L35.1,29.7z"/>
<path class="st0" d="M23,40.7c0.2,0.1,0.4,0.2,0.7,0.3c-0.1,0.2,0,0.4-0.1,0.4c-0.2,0.1-0.1,0.2-0.1,0.4c-0.2,0.2-0.5,0-0.6,0.3
	c0.2,0,0.3,0,0.5,0c0,0.2,0,0.3,0,0.4c0,0.1-0.3,0.1-0.1,0.3c-0.1,0-0.1,0.1-0.2,0.1c-0.2,0-0.3,0-0.5,0.2c0.2,0,0.4,0,0.6,0.1
	c0.3,0.3-0.2,0.5,0,0.7c-0.3,0.1-0.5,0.2-0.8,0.2c0,0,0,0,0,0.1c0.1,0,0.2,0,0.3,0c0.3,0,0.4,0.2,0.3,0.4c-0.1,0.4-0.3,0.5-0.8,0.4
	c-0.2-0.1-0.4-0.1-0.6,0c-0.1,0.1-0.3,0-0.4,0c-0.3,0-0.5-0.1-0.8,0c-0.1,0-0.1,0-0.2,0c-0.5-0.1-0.5-0.1-0.4-0.7
	c0-0.5,0.2-1,0.3-1.5c0-0.2,0-0.3,0-0.5c-0.2,0-0.3-0.1-0.5-0.1c0.1-0.4,0-0.7,0.2-1c0.1-0.1,0.2-0.2,0.3-0.3
	c0.2-0.1,0.4-0.2,0.5-0.5c0,0,0,0,0,0c0,0,0,0,0,0c-0.2,0-0.3,0-0.5,0c0-0.3,0.1-0.5,0.1-0.7c0-0.2,0.2-0.2,0.3-0.2
	c0.3,0,0.6,0,0.8,0c0.1,0,0.3,0,0.3-0.2c-0.2-0.2-0.5,0.1-0.7,0c-0.2,0-0.5,0-0.8-0.1c0.2-0.6,0.7-1,0.9-1.6c0.4,0,0.8,0,1.2,0
	c0,0.1,0,0.2,0.1,0.3c0.7,0,1.4,0.1,2.2,0.1c-0.1,0.3-0.1,0.6-0.2,0.9c-0.4,0-0.9,0-1.3,0c0,0.2-0.1,0.3-0.1,0.4
	c0.4,0,0.9,0.1,1.3,0.1c0,0.2-0.1,0.4-0.1,0.6c0.2-0.1,0.3-0.3,0.3-0.6c0-0.3,0.1-0.5,0.2-0.8c0.1-0.2,0.1-0.5,0.2-0.7
	c0.6,0,3.2-0.1,3.6,0.1c-0.1,0.2-0.1,0.3-0.2,0.5c0,0,0.1,0,0.1,0.1C28.1,38.9,28,38.9,28,39c0,0.2,0.1,0.4-0.1,0.7
	c-0.1,0.1,0,0.2,0,0.3c0,0.2-0.1,0.4-0.1,0.6c0,0.1,0,0.3-0.1,0.4c0,0.1-0.1,0.3-0.1,0.4c-0.1,0.3-0.2,0.5-0.1,0.8
	c-0.2,0.1-0.2,0.2-0.1,0.4c0,0-0.1,0.2-0.2,0.2c-0.2,0.1-0.4,0.1-0.7,0.1c0,0.2-0.3,0.4-0.1,0.7c0.1,0,0.2,0,0.2-0.1
	c0-0.1,0-0.2,0-0.2c0-0.1,0.1-0.1,0.1-0.2c0.3,0,0.6,0,0.8,0c0.2,0.5,0,0.8-0.2,1.2c-0.3,0.5-0.7,0.5-1.1,0.6c-0.3,0.1-0.7,0-1-0.2
	c0-0.1,0-0.2,0-0.4c0-0.3-0.2-0.6,0-0.8c0-0.1,0-0.2,0-0.3c0,0,0,0,0,0c0,0,0,0,0,0c-0.1,0-0.1,0-0.2,0c0,0.2,0,0.4-0.1,0.5
	c-0.1,0.3-0.7,0.9-0.9,0.9c-0.3,0.1-0.5,0.1-0.9,0c0.2-0.2,0.1-0.4,0.2-0.6c0.1-0.2,0.1-0.4,0.1-0.7c0.3-0.1,0.5-0.3,0.6-0.7
	c-0.1-0.1-0.3-0.1-0.4-0.2c0-0.2,0.1-0.4,0.1-0.5c0-0.2-0.1-0.4,0-0.5c0.1-0.1,0-0.3,0.1-0.4c0.1-0.1,0-0.3,0.1-0.5
	c0-0.2,0.1-0.3,0.2-0.6C23.7,40.4,23.3,40.4,23,40.7C23,40.7,22.9,40.7,23,40.7C22.9,40.7,23,40.7,23,40.7z M26.3,41.6
	c-0.4-0.2-0.8-0.1-1.2,0.1c0.3,0.5,0.7,0.2,1,0.2C26.1,41.8,26.2,41.7,26.3,41.6z M26.5,40.4c-0.2-0.2-0.2-0.3-0.2-0.3
	c-0.3,0-0.6-0.1-0.9,0.2C25.6,40.7,25.9,40.7,26.5,40.4z M25.5,39c0.1,0.1,0.2,0.3,0.3,0.3c0.2,0,0.5,0.1,0.7,0
	c0.1,0,0.3-0.1,0.1-0.3C26.3,38.9,26,38.8,25.5,39z M20.7,43c0.3,0.1,0.6,0.1,0.9,0C21.3,42.9,21.1,42.6,20.7,43z M21.2,44.1
	C21.2,44.1,21.2,44.1,21.2,44.1c-0.1-0.1-0.2-0.2-0.3-0.2c-0.2,0-0.3,0-0.5,0c0.1,0.1,0.1,0.2,0.2,0.2C20.8,44.2,21,44.1,21.2,44.1z
	 M22.4,40.5c-0.4-0.1-0.4-0.1-0.7,0.2C22,40.8,22.2,40.7,22.4,40.5z M21,41.8c0,0,0,0.1,0,0.1c0.2,0,0.5,0.1,0.7,0c0,0,0-0.1,0-0.1
	C21.4,41.8,21.2,41.8,21,41.8z M26.5,38.4C26.5,38.4,26.5,38.4,26.5,38.4C26.4,38.4,26.4,38.4,26.5,38.4
	C26.5,38.4,26.5,38.4,26.5,38.4C26.5,38.4,26.5,38.4,26.5,38.4z M22.9,38.8L22.9,38.8L22.9,38.8L22.9,38.8z M25.4,43.9
	C25.4,44,25.4,44,25.4,43.9C25.4,44,25.4,44,25.4,43.9z M21.7,44.3C21.7,44.3,21.7,44.3,21.7,44.3C21.7,44.3,21.7,44.3,21.7,44.3
	C21.7,44.3,21.7,44.3,21.7,44.3C21.7,44.3,21.7,44.3,21.7,44.3z M27.1,42.2C27.1,42.2,27.1,42.1,27.1,42.2
	C27.1,42.1,27.1,42.2,27.1,42.2C27.1,42.2,27.1,42.2,27.1,42.2C27.1,42.2,27.1,42.2,27.1,42.2z M26.4,44.6
	C26.4,44.6,26.5,44.6,26.4,44.6C26.5,44.6,26.5,44.6,26.4,44.6C26.5,44.6,26.5,44.6,26.4,44.6C26.4,44.6,26.4,44.6,26.4,44.6z"/>
<path class="st0" d="M12.4,44.9c0-0.2,0-0.3,0.1-0.4c-0.5-0.1-0.8,0.5-1.3,0.3c-0.1-0.1,0.3-0.2,0-0.3c0.1-0.3,0.1-0.5,0.2-0.8
	c0.1-0.2,0.3-0.3,0.5-0.4c0.4-0.2,0.5-0.5,0.6-0.9c-0.2,0-0.3,0-0.5-0.1c-0.2-0.2,0-0.4,0-0.6c0.1-0.2,0.2-0.2,0.4-0.2
	c0.3,0,0.5,0,0.8,0c-0.1-0.2-0.3-0.3-0.5-0.2c-0.2,0.1-0.4,0.1-0.6,0c0-0.6,0-0.7,0.7-1c0.2-0.1,0.4-0.2,0.6-0.3
	c-0.2,0-0.3-0.1-0.5-0.1c-0.1,0-0.3,0-0.5-0.1c0.1-0.3,0.2-0.5,0.3-0.7c0.2,0,0.4,0,0.7,0c0,0,0.1-0.1,0.2-0.2c0,0-0.1-0.1-0.1-0.1
	c-0.4-0.2-0.9-0.1-1.3,0c-0.1,0-0.2,0.4-0.2,0.5c0,0,0,0.1,0,0.1c-0.1,0-0.1,0.1-0.2,0.1c0.1,0.2,0,0.4,0,0.6c0,0.1-0.1,0.5-0.1,0.6
	c0,0.1-0.1,0.2-0.1,0.3c0,0.4-0.2,0.7-0.2,1.1c0,0.2-0.1,0.5-0.1,0.7c0,0.2-0.1,0.5-0.2,0.7c-0.2,0.3-0.4,0.7-0.6,1
	c-0.3,0.3-0.6,0.4-0.9,0.5c-0.1,0-0.2,0-0.3,0c0-0.2,0.2-0.3,0-0.5c0.1-0.4,0-0.8,0.3-1.1c0.2-0.1,0.3-0.3,0.3-0.5
	c0.1-0.1,0.2-0.3,0.2-0.4c0,0,0,0-0.1,0c0.1-0.6,0.3-1.2,0.4-1.8c0.2-0.6,0.3-1.2,0.4-1.9c0-0.2,0-0.3,0.1-0.5
	c0-0.2,0.2-0.3,0.4-0.3c0.9,0,1.9,0,2.8,0c0.1,0,0.2-0.1,0.3-0.1c0.1-0.2,0.3-0.2,0.5-0.2c0.4,0,0.8,0,1.1,0
	c0.1,0.1,0.2,0.2,0.3,0.3c0.9,0,1.9,0,2.8,0.1c0,0.2-0.1,0.3-0.1,0.5c0,0.2-0.1,0.3-0.4,0.3c-0.3,0-0.5,0-0.8,0c0,0.1,0,0.2,0,0.3
	c0.2,0,0.4,0,0.6,0c0.3,0.2,0.1,0.5,0,0.7c-0.2,0-0.4,0.1-0.6,0.1c0.1,0.1,0.2,0.2,0.2,0.3c0.2,0.1,0.3,0.3,0.3,0.5
	c0,0.2,0,0.5-0.4,0.6c-0.2-0.1-0.5-0.2-0.8-0.3c0,0.1,0,0.2,0,0.3c-0.1,0-0.2,0.1-0.3,0.1c0,0,0,0,0,0.1c0.5,0,0.9,0,1.4,0.1
	c-0.1,0.3-0.1,0.5-0.2,0.8c-0.6,0-1.2,0-1.8,0c-0.7,0-1.5,0-2.2,0c-0.1,0-0.3,0-0.4,0c-0.1,0-0.3,0-0.5,0.1c0.1,0.2,0.3,0.3,0.4,0.3
	c0.4,0,0.8,0.1,1.2,0.1c0.5,0,1.1-0.1,1.6-0.1c0.5,0,0.9,0.1,1.4,0.1c0,0.2-0.1,0.3-0.1,0.4c0,0.1,0.1,0.3-0.1,0.4
	c0.2,0.2,0,0.3,0,0.4c0,0.1,0,0.3-0.1,0.4c0,0.1-0.1,0.3-0.1,0.5C16,44.9,14.2,44.9,12.4,44.9z M13.6,41.5c1.1,0,2.2,0,3.3,0
	c-0.2-0.1-0.4-0.2-0.6-0.3c-0.2,0-0.4,0-0.6,0c-0.1-0.3-0.1-0.6,0.1-0.7c0.2-0.2,0.4-0.3,0.6-0.4c0.2-0.1,0.3-0.1,0.4-0.4
	c-0.2,0-0.3,0-0.4,0c-0.2,0-0.3,0-0.4-0.2c0.1-0.2,0.1-0.4,0.2-0.7c0.2,0,0.5,0,0.7,0c0-0.1,0.1-0.2,0.2-0.3c-0.1,0-0.1-0.1-0.2-0.1
	c-0.3,0-0.5,0-0.8,0c-0.5,0-1,0-1.5,0c0,0.1,0,0.3,0,0.4c0.2,0,0.5,0,0.7,0c0.2,0.5,0.1,0.7-0.4,0.8c-0.1,0-0.2,0-0.3,0.1
	c0.2,0.2,0.4,0.5,0.6,0.6c-0.1,0.3,0,0.6-0.4,0.8c-0.2-0.1-0.5-0.2-0.7-0.3C14.1,41.4,13.8,41.4,13.6,41.5z M14.1,44
	c0.7,0.2,1.4,0.1,2.1,0.1c0.4,0,0.4-0.1,0.4-0.6c-0.9-0.1-1.7-0.2-2.5,0.1C14,43.8,14.1,43.9,14.1,44z M15.8,44.6
	C15.8,44.6,15.8,44.6,15.8,44.6c0,0-0.1,0-0.1,0C15.7,44.6,15.8,44.6,15.8,44.6z M16.4,43L16.4,43L16.4,43L16.4,43z M15.7,37.8
	C15.7,37.8,15.7,37.8,15.7,37.8C15.7,37.8,15.7,37.8,15.7,37.8C15.7,37.8,15.7,37.8,15.7,37.8z M14.8,40.5
	C14.8,40.5,14.8,40.5,14.8,40.5C14.8,40.6,14.8,40.6,14.8,40.5C14.8,40.6,14.8,40.6,14.8,40.5C14.8,40.6,14.8,40.5,14.8,40.5z
	 M12.9,40.8C12.9,40.8,12.9,40.8,12.9,40.8C12.9,40.8,12.9,40.8,12.9,40.8C12.9,40.8,12.9,40.8,12.9,40.8z M15.8,43.2L15.8,43.2
	L15.8,43.2L15.8,43.2z M17,43.2L17,43.2L17,43.2L17,43.2z M15.8,38.4C15.8,38.4,15.8,38.4,15.8,38.4C15.8,38.4,15.8,38.4,15.8,38.4
	C15.8,38.4,15.8,38.4,15.8,38.4C15.8,38.4,15.8,38.4,15.8,38.4z M17.1,38.4C17.1,38.4,17,38.4,17.1,38.4C17,38.4,17,38.4,17.1,38.4
	C17.1,38.4,17.1,38.4,17.1,38.4C17.1,38.4,17.1,38.4,17.1,38.4z M13.9,39.2C13.9,39.2,13.9,39.2,13.9,39.2
	C13.9,39.2,13.9,39.2,13.9,39.2C13.9,39.2,13.9,39.2,13.9,39.2C13.9,39.2,13.9,39.2,13.9,39.2z M17.6,39.2
	C17.6,39.2,17.6,39.2,17.6,39.2C17.6,39.2,17.6,39.2,17.6,39.2C17.6,39.2,17.6,39.2,17.6,39.2C17.6,39.2,17.6,39.2,17.6,39.2z
	 M11.4,39.8C11.4,39.8,11.4,39.9,11.4,39.8C11.4,39.8,11.4,39.8,11.4,39.8C11.4,39.8,11.4,39.8,11.4,39.8
	C11.4,39.8,11.4,39.8,11.4,39.8z"/>
<path class="st0" d="M134.8,33.9c-0.3-0.1-0.6-0.2-0.8-0.3c-0.7-0.2-1.4-0.4-2-0.9c-0.3-0.2-0.6-0.3-0.9-0.5
	c-0.3-0.2-0.4-0.5-0.6-0.8c0,0,0-0.1,0.1-0.1c-0.5,0-0.3-0.7-0.7-0.8c0-0.4-0.3-0.8-0.4-1.2c-0.1-0.4-0.2-0.8,0-1.1
	c-0.1-0.1-0.2-0.2-0.2-0.2c0-0.4,0.1-0.9,0.1-1.3c0-0.4-0.2-0.8-0.4-1.2c0.4-0.3,0.7-0.7,0.6-1.2c0.3-0.3,0.1-0.7,0.3-1.1
	c0.1-0.2,0.2-0.6,0.1-0.9c-0.1-0.4,0.1-0.6,0.1-0.9c0-0.4,0.2-0.8,0.1-1.3c0-0.2-0.1-0.6,0.3-0.7c-0.1-0.3-0.3-0.6,0.2-0.9
	c0.1,0,0.1-0.1,0.1-0.1c0-0.5,0.4-0.8,0.7-1c0.5-0.2,1-0.5,1.5-0.3c0.9,0.2,1.8,0.2,2.7,0.2c0.8,0,1.2,0.1,1.5,1
	c0.1,0.2,0.1,0.4,0.2,0.5c0,0.4-0.1,0.8-0.5,1c-0.4,0.3-0.5,0.7-0.9,0.9c-0.2,0.1-0.3,0.3-0.5,0.4c-0.3,0.2-0.6,0.3-0.7,0.6
	c-0.1,0.1-0.2,0.2-0.4,0.3c-0.3,0.1-0.4,0.3-0.6,0.5c-0.2,0.3-0.6,0.5-0.9,0.7c-0.3,0.3-0.7,0.5-1,0.9c-0.3,0.4-0.8,0.8-0.7,1.4
	c0,0.2-0.3,0.2-0.2,0.4c0.1,0.1,0.1,0.3,0.1,0.5c0,0.2,0.1,0.3,0.1,0.5c0,0.2,0,0.4,0,0.6c0,0.2,0.3,0.3,0.1,0.6
	c0,0,0.1,0.2,0.2,0.3c0.3,0.4,0.5,0.8,0.9,1.1c0.7,0.4,1.4,0.6,2.2,0.7c0.6,0.1,1.2,0.1,1.8,0c0.8-0.3,1.6-0.3,2.4-0.5
	c0.6-0.2,1.2-0.1,1.8,0c0.3,0.1,0.6,0.3,1,0.4c0,0,0,0.1,0,0.1c1,0.6,0.7,0.7,0.5,1.5c0,0.1,0,0.1-0.1,0.2c-0.4,0.3-0.7,0.7-1.1,0.8
	c-1.2,0.3-2.1,1.1-3.2,1.6c-0.2,0.1-0.5,0.3-0.8,0.3c-0.5,0.1-1,0.2-1.4,0.4c-0.3,0.2-0.6,0.2-0.9,0.3c-0.3,0.1-0.5,0.1-0.8,0
	C133.8,34.6,134.8,34.6,134.8,33.9z M133.3,18.5c-0.1,0.1-0.4,0.2-0.4,0.4c-0.1,0.3,0,0.7-0.4,1c0,0,0,0.1,0,0.1c0,0.1,0,0.2,0,0.3
	c-0.1,0.4-0.3,0.7-0.4,1.1c-0.1,0.1-0.1,0.3,0.2,0.4c0.2-0.2,0.5-0.4,0.7-0.7c0.4-0.5,0.7-1,1.1-1.5c0.2-0.2,0.3-0.5,0.2-0.8
	C133.9,18.8,133.7,18.7,133.3,18.5z M131.8,21.9C131.8,21.9,131.8,22,131.8,21.9C131.8,22,131.8,22,131.8,21.9
	C131.8,22,131.8,22,131.8,21.9C131.8,22,131.8,21.9,131.8,21.9z M131.3,23.5L131.3,23.5L131.3,23.5L131.3,23.5z M137.6,30.4
	C137.5,30.4,137.5,30.4,137.6,30.4C137.5,30.4,137.5,30.4,137.6,30.4C137.5,30.4,137.5,30.4,137.6,30.4z"/>
<path class="st0" d="M3.7,44.1c0.1-0.1,0.1-0.2,0.2-0.3c-0.2-0.1-0.4-0.1-0.6-0.2c0.2-1.6,0.7-3.2,1-4.8c0.4-0.1,0.7-0.1,1.1,0
	c0.2,0,0.4,0,0.5-0.2c0-0.1,0-0.2-0.1-0.3c-0.4,0-0.8-0.1-1.3-0.1c-0.1,0-0.1-0.1-0.2-0.1c0.1-0.2,0.1-0.5,0.2-0.7
	c1.8,0,3.7,0,5.5,0c0.2,0.2,0.3,0.3,0.1,0.5c0,0-0.1,0.1-0.1,0.2c0,0.2-0.1,0.3-0.3,0.3c-0.3,0-0.7,0-1,0c-0.3,0-0.5,0-0.8,0
	c-0.2,0-0.3,0.1-0.4,0.3c0.2,0.3,0.5,0.2,0.8,0.2c0.5,0,1,0,1.5,0c0,0.6-0.2,1.1-0.2,1.6c0,0,0,0,0,0c-0.3,0.1-0.1,0.4-0.2,0.6
	c0,0,0,0.1,0,0.1c-0.3,0.2-0.1,0.5-0.1,0.7C9.4,41.9,9.3,42,9.2,42c0.1,0.2,0.2,0.3-0.1,0.4c0,0,0.1,0.1,0.1,0.1
	c-0.1,0.4-0.2,0.8-0.2,1.2c-0.2,0-0.3,0.1-0.5,0.1c0,0.4,0.4,0.6,0.5,0.9c-0.6,0.1-1.1,0.2-1.6,0.1c-0.2,0-0.4-0.1-0.4-0.4
	c0-0.2-0.4-0.2-0.2-0.4c-0.2-0.3-0.5-0.2-0.8-0.2c-0.2,0-0.4,0.1-0.5,0.4c0,0.2-0.1,0.3-0.2,0.4c-0.1,0.1-0.2,0.2-0.3,0.2
	c-0.1,0-0.2,0.1-0.3,0.1c-0.6,0-1.2,0-1.8-0.1c0.1-0.1,0.3-0.2,0.4-0.3C3.4,44.3,3.6,44.2,3.7,44.1C3.7,44.1,3.8,44.1,3.7,44.1
	c0.1,0.1,0.1,0.1,0.1,0.1C3.8,44.2,3.8,44.2,3.7,44.1C3.8,44.2,3.7,44.1,3.7,44.1z M5.6,39.8c0.3,0.1,0,0.2,0.1,0.4
	c0.8,0.1,1.6,0.2,2.4,0c0-0.1,0-0.2-0.1-0.3C7.2,39.8,6.5,39.8,5.6,39.8z M7.6,42.7c-0.2-0.3-0.2-0.3-0.4-0.3c-0.3,0-0.7-0.1-1-0.1
	c-0.3,0-0.7-0.1-0.9,0.1c0,0-0.1,0.1-0.1,0.1c0.1,0.1,0.1,0.2,0.2,0.3C6.1,42.7,6.9,42.9,7.6,42.7z M7.9,41.1c-1.2-0.1-2-0.1-2.5,0
	c0,0.1,0,0.2,0.1,0.3c0.7,0,1.5,0,2.2,0C7.8,41.3,7.9,41.2,7.9,41.1z M5.4,40.5C5.4,40.5,5.4,40.5,5.4,40.5
	C5.3,40.5,5.4,40.5,5.4,40.5C5.4,40.5,5.4,40.5,5.4,40.5C5.4,40.5,5.4,40.5,5.4,40.5z M3.9,42.5C3.9,42.5,3.9,42.5,3.9,42.5
	C3.9,42.5,3.9,42.5,3.9,42.5C3.9,42.5,3.9,42.5,3.9,42.5z M8.7,37.7C8.7,37.7,8.7,37.7,8.7,37.7C8.7,37.7,8.7,37.7,8.7,37.7
	C8.7,37.7,8.7,37.7,8.7,37.7C8.7,37.7,8.7,37.7,8.7,37.7z M6.8,37.9C6.8,37.9,6.9,37.9,6.8,37.9C6.9,37.9,6.8,37.9,6.8,37.9
	C6.8,37.8,6.8,37.9,6.8,37.9C6.8,37.9,6.8,37.9,6.8,37.9z M7.5,43.9C7.5,43.9,7.5,43.8,7.5,43.9C7.4,43.8,7.4,43.9,7.5,43.9
	C7.4,43.9,7.5,43.9,7.5,43.9C7.5,43.9,7.5,43.9,7.5,43.9z M9.2,41.1C9.2,41.1,9.2,41.1,9.2,41.1C9.2,41.1,9.2,41.1,9.2,41.1
	C9.2,41.1,9.1,41.1,9.2,41.1C9.1,41.1,9.2,41.1,9.2,41.1z M5,43.5C5,43.5,4.9,43.5,5,43.5C4.9,43.5,5,43.5,5,43.5z M6.3,43.5
	C6.3,43.5,6.3,43.5,6.3,43.5C6.3,43.5,6.3,43.5,6.3,43.5z M8.6,43.5C8.6,43.5,8.6,43.5,8.6,43.5C8.5,43.5,8.5,43.5,8.6,43.5
	C8.5,43.5,8.5,43.5,8.6,43.5C8.6,43.5,8.6,43.5,8.6,43.5z M4.7,43.9L4.7,43.9L4.7,43.9L4.7,43.9z M6,41.6C6,41.6,6,41.6,6,41.6
	C6,41.6,6,41.6,6,41.6C6,41.6,6,41.6,6,41.6z M7.7,39.2C7.6,39.2,7.6,39.2,7.7,39.2C7.6,39.2,7.6,39.2,7.7,39.2
	C7.6,39.2,7.6,39.2,7.7,39.2C7.7,39.2,7.7,39.2,7.7,39.2z M4.4,42.1L4.4,42.1L4.4,42.1L4.4,42.1z M5.7,42.1
	C5.7,42.1,5.7,42.1,5.7,42.1C5.7,42,5.7,42.1,5.7,42.1C5.7,42.1,5.7,42.1,5.7,42.1C5.7,42.1,5.7,42.1,5.7,42.1z M4.5,42.3
	C4.5,42.3,4.5,42.3,4.5,42.3C4.5,42.3,4.5,42.3,4.5,42.3C4.5,42.3,4.5,42.4,4.5,42.3C4.5,42.4,4.5,42.3,4.5,42.3z M9.2,39.8
	C9.2,39.8,9.2,39.8,9.2,39.8C9.2,39.8,9.2,39.8,9.2,39.8C9.2,39.8,9.2,39.8,9.2,39.8C9.2,39.8,9.2,39.8,9.2,39.8z"/>
<path class="st0" d="M27.7,44.9c0-0.2,0.3-0.2,0.1-0.4c0.1-0.3,0.1-0.6,0.2-0.9c0.1-0.2,0.2-0.1,0.4-0.2c0.5,0,1.1-0.2,1.5-0.5
	c0.5-0.3,0.9-0.7,1-1.3c0,0,0.1-0.1,0.1-0.2c-0.8,0-1.6-0.1-2.3-0.1c0-0.5,0-0.5,0.2-0.9c0.4,0,0.7,0,1.1,0c-0.2-0.2,0-0.4-0.2-0.6
	c-0.1-0.1-0.2-0.3-0.3-0.5c0,0,0.1-0.1,0.1-0.2c-0.4,0-0.4-0.4-0.5-0.7c-0.1-0.1-0.1-0.2-0.2-0.4c0.1-0.3,0.4-0.1,0.6-0.2
	c0.1,0,0.3,0,0.4,0c0.1,0,0.3,0.1,0.4,0.1c0.2,0.2,0.3,0.5,0.5,0.7c0.1,0.3,0.2,0.5,0.2,0.8c0.1,0.2,0.2,0.5-0.1,0.7
	c0.3,0,0.5,0,0.7,0c0.4-0.8,0.3-1.7,0.6-2.6c0.3,0,0.6,0,0.9,0c0,0,0.1,0,0.1,0c0.1,0.1,0.2,0.1,0.2,0.2c0,0-0.1,0.1-0.2,0.2
	c0,0,0.1,0.1,0.1,0.1c0,0.2,0,0.3-0.1,0.5c0,0.1-0.1,0.2-0.1,0.4c0,0-0.1,0.1-0.1,0.1c0.1,0.3,0,0.5-0.1,0.8c0,0.3,0,0.4,0.3,0.4
	c0.5,0,0.9,0,1.4,0.1c0.4,0,0.8,0,1.3,0c0.2,0.6,0,0.9-0.7,0.9c-0.5,0-1,0-1.5,0c-0.2,0-0.4,0-0.5,0.2c0,0,0,0.1,0,0.1
	c-0.2,0.4,0,0.8-0.2,1.1c0,0.1,0,0.3,0,0.5c0.1,0.3,0.5,0.4,0.9,0.3c0.2-0.1,0.4-0.2,0.4-0.4c0.1-0.2,0.1-0.3,0.2-0.5
	c0.1-0.2,0.3-0.2,0.5-0.2c0.3,0,0.6,0,0.9,0.1c-0.1,0.1-0.2,0.2-0.2,0.3c0,0,0.1,0,0.1,0.1c0,0,0,0.1,0,0.1c-0.1,0.5-0.2,1-0.6,1.3
	c-0.2,0.2-0.5,0.3-0.8,0.3c-0.6,0.2-1.3,0.1-1.9,0.1c-0.2,0-0.5,0-0.6-0.3c0-0.1-0.1-0.1-0.2-0.2c0-0.2,0-0.4-0.1-0.6
	c-0.1-0.2,0-0.3,0-0.5c0-0.2,0.1-0.4,0.1-0.6c0.1-0.3,0.2-0.7,0.1-1c0,0,0-0.1,0.1-0.2c-0.1,0-0.2-0.1-0.4-0.1c0,0.1,0,0.1,0,0.2
	c0.1,0.2-0.3,0.1-0.1,0.3c0.1,0.1,0,0.3-0.1,0.4c-0.2,0.3-0.3,0.7-0.6,1c-0.2,0.2-0.4,0.5-0.6,0.7c-0.6,0.6-1.3,0.7-2.1,0.8
	C28.2,45,27.9,44.9,27.7,44.9z M30.3,40.5C30.3,40.5,30.3,40.5,30.3,40.5C30.3,40.4,30.3,40.4,30.3,40.5c-0.1,0-0.1,0-0.1,0
	C30.2,40.5,30.3,40.5,30.3,40.5z M29.6,43.7C29.6,43.7,29.6,43.7,29.6,43.7C29.6,43.7,29.6,43.8,29.6,43.7
	C29.6,43.8,29.6,43.8,29.6,43.7C29.6,43.8,29.6,43.7,29.6,43.7z M30.7,39.9C30.7,39.9,30.7,39.9,30.7,39.9
	C30.7,39.9,30.7,39.9,30.7,39.9C30.7,39.9,30.7,39.9,30.7,39.9z M30.2,38.5C30.1,38.5,30.1,38.5,30.2,38.5
	C30.1,38.5,30.1,38.5,30.2,38.5C30.1,38.5,30.1,38.5,30.2,38.5z M30.8,40.5C30.8,40.5,30.8,40.5,30.8,40.5
	C30.8,40.5,30.8,40.4,30.8,40.5C30.7,40.4,30.7,40.5,30.8,40.5C30.7,40.5,30.7,40.5,30.8,40.5z M33,43.1C33,43.1,33,43.1,33,43.1
	C33,43.1,33,43.1,33,43.1C33,43.2,33,43.2,33,43.1C33,43.2,33,43.1,33,43.1z M32.4,40.7C32.4,40.7,32.4,40.7,32.4,40.7
	C32.4,40.7,32.4,40.7,32.4,40.7C32.4,40.7,32.4,40.7,32.4,40.7C32.4,40.7,32.4,40.7,32.4,40.7z M30.8,40.9
	C30.8,40.9,30.8,40.9,30.8,40.9C30.7,40.9,30.7,40.9,30.8,40.9C30.8,40.9,30.8,40.9,30.8,40.9z M33,40.9C33,40.9,33,40.9,33,40.9
	C33,40.9,33,40.9,33,40.9C33,40.9,33,40.9,33,40.9C33,40.9,33,40.9,33,40.9z M30.1,43.3C30,43.3,30,43.3,30.1,43.3
	C30,43.3,30,43.3,30.1,43.3C30,43.3,30.1,43.3,30.1,43.3C30.1,43.3,30.1,43.3,30.1,43.3z M35.2,41.3C35.1,41.3,35.1,41.3,35.2,41.3
	C35.1,41.3,35.1,41.3,35.2,41.3C35.1,41.3,35.2,41.3,35.2,41.3C35.2,41.3,35.2,41.3,35.2,41.3z M29.3,43.5L29.3,43.5L29.3,43.5
	L29.3,43.5z M28.8,44.3C28.9,44.3,28.9,44.3,28.8,44.3C28.9,44.3,28.9,44.3,28.8,44.3C28.9,44.3,28.9,44.3,28.8,44.3z M29,43.9
	C29,43.9,29,43.9,29,43.9C28.9,44,28.9,44,29,43.9C29,44,29,44,29,43.9C29,44,29,43.9,29,43.9z M28.6,44.7
	C28.6,44.7,28.6,44.7,28.6,44.7C28.6,44.7,28.6,44.7,28.6,44.7C28.6,44.7,28.6,44.7,28.6,44.7C28.6,44.7,28.6,44.7,28.6,44.7z
	 M33.7,44.7C33.6,44.7,33.6,44.7,33.7,44.7C33.6,44.7,33.6,44.7,33.7,44.7C33.6,44.7,33.6,44.7,33.7,44.7
	C33.6,44.7,33.7,44.7,33.7,44.7z"/>
<path class="st0" d="M49.2,41.9c0.4-0.7,0.6-1.5,0.7-2.3c-0.4-0.1-0.8-0.2-1.2-0.1c-0.1,0-0.2,0-0.3,0c-0.2,0-0.5,0-0.7,0
	c-0.1,0-0.3,0-0.4,0c-0.5,0-1.1,0-1.6,0c-0.1,0.1-0.2,0.3-0.3,0.4c0,0.1,0.1,0.2-0.1,0.3c0,0,0,0.1,0,0.1c0,0.1,0,0.2,0,0.3
	c-0.5,0.2-0.8,0.2-1.3,0c0-0.2,0.1-0.5,0.1-0.7c0-0.1,0-0.4,0.2-0.4c-0.1-0.2,0.1-0.4,0.1-0.6c0-0.2,0.1-0.3,0.3-0.3
	c0.1,0,0.2,0,0.3,0c0.5,0,1.1,0,1.6,0c0.1-0.1,0.1-0.1,0.2-0.2c0.1-0.1,0-0.2,0.1-0.3c0.1-0.1-0.1-0.2,0.1-0.3
	c0.4-0.1,0.8-0.1,1.3-0.1c0.1,0,0.2,0.1,0.2,0.2c0,0.2,0,0.4,0,0.6c0.9,0.3,1.8,0,2.8,0.2c-0.1,0.2-0.1,0.3-0.2,0.4
	c0,0.1,0,0.3,0,0.4c0,0.1-0.2,0.2-0.1,0.3c0.1,0.2,0,0.2-0.1,0.3c0,0.1,0.1,0.1,0.1,0.2c-0.1,0.2-0.3,0.4-0.2,0.7c0,0,0,0.1-0.1,0.1
	c0,0-0.1,0.1-0.1,0.1c0.1,0.3-0.1,0.4-0.1,0.7c-0.1,0.4-0.3,0.8-0.5,1.2c-0.2,0.4-0.5,0.7-0.9,1c-0.5,0.4-1.1,0.7-1.8,0.9
	c-1,0.2-2,0.2-3,0.1c0.1-0.5,0.2-0.9,0.3-1.4c0.2,0,0.4,0,0.7,0c0.4,0,0.9,0,1.3,0c0.4-0.1,0.8-0.2,1.3-0.4c0.2-0.1,0.4-0.2,0.5-0.3
	C48.8,42.6,49,42.2,49.2,41.9C49.2,41.9,49.2,41.9,49.2,41.9C49.2,42,49.2,41.9,49.2,41.9z M46.9,44.1C46.9,44.1,46.9,44,46.9,44.1
	c0,0-0.1,0-0.1,0c0,0,0,0,0,0C46.8,44.1,46.9,44.1,46.9,44.1z M44.5,39.8L44.5,39.8L44.5,39.8L44.5,39.8z M44.6,40.1
	C44.6,40,44.6,40,44.6,40.1C44.6,40,44.6,40,44.6,40.1C44.6,40.1,44.6,40.1,44.6,40.1C44.6,40.1,44.6,40.1,44.6,40.1z M45.1,40
	C45.1,40,45.1,40,45.1,40C45.1,40,45.1,40,45.1,40C45.1,40,45.1,40,45.1,40C45.1,40,45.1,40,45.1,40z M45.6,44L45.6,44L45.6,44
	L45.6,44z M49.9,39.4L49.9,39.4L49.9,39.4L49.9,39.4z"/>
<path class="st0" d="M57.9,44.9c-0.6,0.2-1.2,0.2-1.8,0c0-0.3-0.2-0.5-0.3-0.7c-0.1-0.2-0.2-0.5-0.5-0.6c-0.3,0.1-0.6,0.3-1,0.6
	c-0.3,0.2-0.7,0.3-1.1,0.5c-0.7,0.3-1.5,0.4-2.3,0.5c-0.1,0-0.2,0-0.4-0.1c0.1-0.4,0.2-0.8,0.2-1.1c0-0.2,0.2-0.4,0.4-0.4
	c0.6,0,1.1-0.1,1.7-0.2c0.2-0.1,0.5-0.1,0.7-0.2c0.2-0.1,0.4-0.2,0.7-0.3c0.5-0.1,0.8-0.5,1.2-0.9c0.4-0.4,0.7-0.8,0.9-1.3
	c0.2-0.4,0.2-0.9,0.4-1.4c-0.3,0-0.5-0.1-0.8-0.1c-0.5,0-1,0-1.6,0c-0.8,0-1.6,0-2.4-0.1c0,0-0.1,0-0.2,0c0-0.2,0.1-0.5,0.1-0.7
	c0.2-0.2,0.4-0.1,0.6-0.1c0.7-0.1,1.4,0,2.1,0c0.4,0,0.8,0,1.1,0c0.3,0,0.7,0,1,0c0.3,0,0.5,0,0.9,0c0,0.3,0.1,0.6,0.1,0.8
	c-0.3,0.1,0,0.5-0.3,0.6c0,0,0.1,0.1,0.1,0.1c0,0,0,0.1,0,0.1c0,0.1-0.1,0.2-0.1,0.4c0,0.2-0.2,0.6-0.4,0.8C57.1,41,57,41.2,57,41.4
	c-0.1,0.1-0.2,0.3-0.2,0.4c-0.1,0.1-0.2,0.2-0.3,0.3c-0.1,0.2-0.1,0.4-0.2,0.7c0.5,0.2,0.7,0.6,1,1C57.5,44.1,57.7,44.5,57.9,44.9z
	 M51.8,44.1C51.8,44.1,51.8,44.1,51.8,44.1C51.8,44.1,51.8,44.1,51.8,44.1C51.8,44.1,51.8,44.1,51.8,44.1
	C51.8,44.1,51.8,44.1,51.8,44.1C51.8,44.1,51.8,44.1,51.8,44.1z M56.3,44.1C56.3,44.1,56.2,44.1,56.3,44.1
	C56.2,44.1,56.3,44.1,56.3,44.1C56.3,44.1,56.3,44.1,56.3,44.1C56.3,44.1,56.3,44.1,56.3,44.1z M54.1,38.3
	C54.1,38.3,54.1,38.3,54.1,38.3c0,0-0.1,0-0.1,0C54,38.3,54,38.3,54.1,38.3z M52.1,43.9C52.1,43.9,52.1,43.9,52.1,43.9
	C52.1,43.9,52.1,43.9,52.1,43.9C52.1,43.8,52.1,43.9,52.1,43.9C52.1,43.9,52.1,43.9,52.1,43.9z M54,43.2L54,43.2L54,43.2L54,43.2z
	 M54.5,43.2C54.5,43.2,54.5,43.2,54.5,43.2C54.5,43.2,54.5,43.2,54.5,43.2C54.5,43.2,54.5,43.2,54.5,43.2z M55.2,38.6
	C55.2,38.6,55.2,38.6,55.2,38.6C55.2,38.6,55.2,38.6,55.2,38.6C55.2,38.6,55.2,38.6,55.2,38.6C55.2,38.6,55.2,38.6,55.2,38.6z
	 M56.5,38.6C56.5,38.6,56.5,38.6,56.5,38.6C56.4,38.6,56.5,38.6,56.5,38.6C56.5,38.6,56.5,38.6,56.5,38.6z M57.5,38.6
	C57.5,38.6,57.5,38.6,57.5,38.6C57.5,38.6,57.5,38.6,57.5,38.6C57.5,38.6,57.5,38.6,57.5,38.6C57.5,38.6,57.5,38.6,57.5,38.6z
	 M51.3,44.1C51.3,44.1,51.3,44.1,51.3,44.1C51.3,44.1,51.3,44.1,51.3,44.1C51.3,44.1,51.3,44.1,51.3,44.1
	C51.3,44.1,51.3,44.1,51.3,44.1z M51,44.6C51,44.6,51,44.6,51,44.6C51,44.6,51,44.6,51,44.6C51,44.6,51,44.6,51,44.6
	C51,44.6,51,44.6,51,44.6z M56.5,44.8C56.5,44.8,56.5,44.8,56.5,44.8C56.5,44.8,56.5,44.8,56.5,44.8C56.5,44.8,56.5,44.8,56.5,44.8z
	 M55.8,42.3C55.8,42.3,55.8,42.3,55.8,42.3C55.8,42.3,55.8,42.4,55.8,42.3C55.9,42.4,55.9,42.3,55.8,42.3
	C55.9,42.3,55.9,42.3,55.8,42.3z"/>
<path class="st0" d="M67.1,22.6c0-0.4,0.4-0.6,0.6-0.9c0.5-0.5,0.9-1.1,1.4-1.6c0.2-0.2,0.3-0.3,0.6-0.2c0,0,0,0,0,0c0,0,0,0-0.1,0
	c-0.1-0.1-0.2-0.2-0.3-0.4c0.2-0.1,0.3-0.1,0.5-0.2c0,0,0-0.1,0-0.1c-0.2-0.1-0.5-0.2-0.7-0.2c-0.3-0.1-0.7,0.1-0.9-0.4
	c0,0-0.2,0-0.4,0c0.1-0.3,0.1-0.5,0.2-0.7c0.6-0.1,1.2-0.3,1.8-0.2c0.5,0,0.8-0.3,0.8-0.9c0-0.2,0-0.4,0.3-0.4c0,0.1,0,0.2,0.1,0.3
	c0,0,0,0,0.1,0c0-0.1-0.1-0.2-0.1-0.3c-0.5-0.2-1-0.3-1.5-0.5c-0.1,0-0.2-0.2-0.4-0.3c0,0,0,0,0-0.1c0,0,0,0,0,0.1
	c-0.1,0-0.1,0-0.3-0.1c0.1-0.2,0.1-0.3,0.2-0.5c0.6-0.1,1.1-0.2,1.6-0.3c0-0.6,0-1-0.2-1.5c-0.1-0.4,0-0.8,0-1.2
	c0.6-0.3,1.2,0.1,1.8,0.2c0.4,0.1,0.5,0.7,0.2,1.2c-0.2,0.4-0.2,0.4,0,0.9c0.4-0.2,0.8-0.6,1.3-0.2c0.3,0.3,0.3,0.2,0.3,0.8
	c-0.3,0.3-0.7,0.6-1.2,0.4c0,0-0.1,0-0.1,0.1c-0.2,0.1-0.3,0.2-0.6,0.3c-0.1,0.4-0.2,0.8-0.3,1.2c1.1-0.3,2.2-0.5,3.3-0.2
	c0.1,0.3,0.2,0.7,0.4,1.1c-0.6,0.1-1,0.2-1.6,0.1c-0.5-0.1-1.1,0.1-1.7,0.2c0.4,1.1,1.2,1.8,1.9,2.5c0.7,0.6,1.7,0.9,2.6,1.4
	c-0.2,0.1-0.3,0.1-0.4,0.1c0,0.1,0.1,0.1,0.1,0.2c-0.9,0.1-1.7,0.2-2.6,0.3c-0.6,0-1.1-0.4-1.2-1c0-0.1,0-0.2-0.1-0.2
	c-0.4,0,0-0.8-0.6-0.7c0-0.1-0.1-0.1-0.1-0.2c0,0,0,0,0,0c0.1,0,0.1,0.1,0.2,0.1c-0.1,0.2-0.1,0.3-0.2,0.5c0,0,0,0,0,0
	c0,0,0,0,0-0.1c0.1,0.1,0.2,0.3,0.1,0.4c0,0.4-0.1,0.9,0,1.3c0.1,0.5,0,0.9,0.2,1.5c-0.2-0.1-0.3-0.1-0.4-0.2c0-0.1-0.1-0.2-0.1-0.2
	c0,0,0,0-0.1,0.1c0.1,0.1,0.1,0.1,0.2,0.2c0,0.2,0,0.4,0.1,0.7c-0.2,0.1-0.5,0.3-0.8,0.4c-0.3,0.1-0.4,0-0.4-0.4c0,0,0,0,0-0.1
	c0,0,0,0,0,0.1c-0.1,0-0.3-0.1-0.3-0.1c-0.1-0.5-0.4-1-0.2-1.6c0.1-0.2,0-0.5,0.1-0.7c0-0.1,0.2-0.2,0.3-0.3
	c0.1,0.1,0.1,0.1,0.2,0.2c0,0.1,0,0.1,0,0.1c0,0.1,0,0,0,0c-0.1-0.1-0.1-0.1-0.2-0.2c-0.1-0.2-0.4-0.4,0-0.6c0,0,0,0,0.1,0
	c0,0,0,0-0.1,0c-0.2-0.4-0.2-0.7,0-1.1c0,0,0,0,0,0c0,0,0,0-0.1,0c-0.1,0-0.2-0.1-0.3,0c-0.2,0-0.3,0.1-0.5,0.2
	c0,0.1-0.1,0.3-0.2,0.4c-0.3,0.3-0.7,0.5-1,0.8c-0.2,0.2-0.5,0.4-0.7,0.5c-0.4,0.2-0.9,0.4-1.3,0.6c-0.1,0-0.2,0-0.4,0
	c0.2-0.2,0.3-0.3,0.4-0.4c0,0,0,0,0.1,0c0,0,0,0-0.1,0C66.6,22.6,66.8,22.6,67.1,22.6C67.1,22.7,67.1,22.7,67.1,22.6
	C67.2,22.7,67.1,22.7,67.1,22.6z M73.9,21.1C73.9,21.1,73.9,21.2,73.9,21.1C73.9,21.2,73.9,21.1,73.9,21.1
	C73.8,21.1,73.8,21.1,73.9,21.1C73.8,21.1,73.8,21.1,73.9,21.1z M70.9,20.4C70.9,20.4,70.9,20.4,70.9,20.4
	C70.9,20.4,70.9,20.4,70.9,20.4C70.8,20.4,70.8,20.3,70.9,20.4C70.8,20.3,70.8,20.3,70.9,20.4z M71.9,19.9
	C71.9,19.9,71.9,19.9,71.9,19.9C71.9,19.9,71.9,19.9,71.9,19.9C71.9,19.9,71.9,19.9,71.9,19.9C71.9,19.9,71.9,19.9,71.9,19.9z
	 M71.6,18.9C71.6,18.9,71.6,18.9,71.6,18.9C71.6,18.9,71.6,18.9,71.6,18.9C71.6,18.9,71.6,18.8,71.6,18.9
	C71.6,18.8,71.6,18.8,71.6,18.9z M70.4,18.7C70.4,18.7,70.5,18.7,70.4,18.7C70.5,18.7,70.4,18.7,70.4,18.7
	C70.4,18.7,70.4,18.7,70.4,18.7C70.4,18.7,70.4,18.7,70.4,18.7z M75.1,17.7L75.1,17.7L75.1,17.7c-0.1,0-0.1-0.1-0.2-0.1c0,0,0,0,0,0
	c0,0,0,0,0.1,0C75,17.6,75,17.6,75.1,17.7z M71.9,17.7C71.9,17.7,71.9,17.7,71.9,17.7C71.9,17.7,71.9,17.7,71.9,17.7
	C71.9,17.7,71.9,17.6,71.9,17.7C71.9,17.6,71.9,17.6,71.9,17.7z M71.9,16.2C71.9,16.2,71.9,16.2,71.9,16.2
	C71.9,16.2,71.9,16.2,71.9,16.2C71.9,16.1,71.9,16.1,71.9,16.2C71.9,16.1,71.9,16.1,71.9,16.2C71.9,16.1,71.9,16.1,71.9,16.2z
	 M71.6,12.7C71.6,12.7,71.6,12.7,71.6,12.7C71.6,12.7,71.6,12.7,71.6,12.7C71.6,12.7,71.6,12.7,71.6,12.7c-0.1-0.1-0.1-0.1-0.1-0.1
	C71.5,12.6,71.6,12.6,71.6,12.7z M74.6,21.9C74.6,21.9,74.6,21.9,74.6,21.9c0.1,0,0.1,0,0.2,0c0,0,0,0,0,0
	C74.7,21.9,74.6,21.9,74.6,21.9z M71.7,22.7C71.6,22.7,71.6,22.7,71.7,22.7c-0.1-0.1-0.1,0-0.1,0C71.5,22.8,71.6,22.8,71.7,22.7
	C71.6,22.8,71.6,22.8,71.7,22.7z M73.1,20.3C73,20.3,73,20.2,73,20.2c0,0-0.1,0.1-0.1,0.1C72.9,20.3,73,20.3,73.1,20.3z M72.1,12.6
	C72.1,12.6,72.1,12.6,72.1,12.6C72.1,12.6,72,12.6,72.1,12.6C72,12.6,72,12.7,72.1,12.6C72.1,12.7,72.1,12.6,72.1,12.6z M70.9,12.9
	C70.9,13,70.9,13,70.9,12.9C70.9,13,70.9,13,70.9,12.9C71,13,71,13,70.9,12.9C71,12.9,70.9,12.9,70.9,12.9z M71,14.5
	C71,14.5,70.9,14.5,71,14.5C70.9,14.5,70.9,14.5,71,14.5C70.9,14.5,70.9,14.5,71,14.5C70.9,14.5,71,14.5,71,14.5z M72.8,14.8
	L72.8,14.8L72.8,14.8L72.8,14.8z M71.6,15C71.6,15,71.6,15,71.6,15C71.6,15,71.6,15,71.6,15C71.6,15,71.6,15,71.6,15
	C71.6,15,71.6,15,71.6,15z M69.8,15.6C69.8,15.5,69.7,15.5,69.8,15.6C69.7,15.5,69.7,15.5,69.8,15.6C69.7,15.6,69.7,15.6,69.8,15.6
	C69.7,15.6,69.8,15.6,69.8,15.6z M71.3,15.6C71.3,15.6,71.3,15.6,71.3,15.6C71.3,15.6,71.3,15.6,71.3,15.6
	C71.3,15.6,71.3,15.6,71.3,15.6z M71.7,16.7C71.6,16.7,71.6,16.7,71.7,16.7C71.6,16.7,71.6,16.7,71.7,16.7
	C71.6,16.7,71.6,16.7,71.7,16.7C71.6,16.7,71.7,16.7,71.7,16.7z M72.4,17.6c0,0-0.1,0-0.1,0C72.3,17.6,72.3,17.6,72.4,17.6
	C72.4,17.6,72.4,17.6,72.4,17.6z M74.5,17.7C74.6,17.7,74.6,17.7,74.5,17.7C74.6,17.6,74.5,17.6,74.5,17.7
	C74.5,17.6,74.5,17.7,74.5,17.7C74.5,17.7,74.5,17.7,74.5,17.7z M71.2,17.8C71.2,17.8,71.2,17.8,71.2,17.8c0,0.1,0,0.1,0,0.1
	C71.2,17.9,71.3,17.8,71.2,17.8C71.3,17.8,71.3,17.8,71.2,17.8z M73.6,17.7C73.6,17.7,73.6,17.7,73.6,17.7
	C73.5,17.7,73.5,17.8,73.6,17.7C73.6,17.8,73.6,17.8,73.6,17.7C73.6,17.8,73.6,17.7,73.6,17.7z M72.2,18.8
	C72.2,18.7,72.2,18.7,72.2,18.8C72.1,18.7,72.1,18.7,72.2,18.8C72.1,18.7,72.1,18.8,72.2,18.8z M72.1,19.4L72.1,19.4L72.1,19.4
	L72.1,19.4z M72.4,19.9C72.4,19.9,72.4,19.8,72.4,19.9C72.4,19.8,72.4,19.8,72.4,19.9C72.4,19.8,72.3,19.8,72.4,19.9
	C72.3,19.9,72.4,19.9,72.4,19.9z M73.5,21.8C73.5,21.7,73.5,21.7,73.5,21.8C73.5,21.7,73.5,21.7,73.5,21.8
	C73.5,21.7,73.5,21.7,73.5,21.8C73.5,21.7,73.5,21.7,73.5,21.8z M67.9,22c0,0,0,0.1,0,0.1C67.9,22.1,68,22.1,67.9,22
	C68,22,67.9,22,67.9,22z M68.6,21.9C68.6,21.9,68.6,22,68.6,21.9C68.6,22,68.6,22,68.6,21.9C68.6,21.9,68.6,21.9,68.6,21.9
	C68.6,21.9,68.6,21.9,68.6,21.9z M74,22C73.9,22,73.9,22,74,22C73.9,22,73.9,22,74,22C73.9,22.1,74,22.1,74,22C74,22,74,22,74,22z
	 M71.2,23.9c0,0,0,0.1,0,0.1C71.2,24,71.3,24,71.2,23.9C71.3,24,71.2,23.9,71.2,23.9z M68.8,21.4L68.8,21.4L68.8,21.4L68.8,21.4z"/>
<path class="st0" d="M120.7,10.1c-0.1-0.7,0.2-1.3,0.7-1.7c0.5-0.4,0.9-0.7,1.7-0.6c0.9,0.1,1.2,0.2,1.8,0.8
	c0.3,0.4,0.7,0.4,1.3,0.2c0.5-0.2,0.5-0.2,0.9-0.1c0,0.5,0,0.9-0.4,1.3c-0.2,0.2-0.3,0.5-0.4,0.8c-0.1,0.3-0.2,0.6-0.2,0.9
	c0,0.1-0.2,0.3-0.1,0.4c0.1,0.1,0.1,0.2,0.1,0.4c0,0.4-0.2,0.7-0.5,1c-0.8,0.8-1.6,0.8-2.6,0.6c-0.3-0.1-0.6-0.2-0.8-0.5
	c0-0.1-0.1-0.1-0.2-0.2c-0.2-0.2-0.5-0.3-0.6-0.7c0-0.1-0.2-0.1-0.3-0.2c0.1-0.1,0.1-0.1,0.2-0.2c-0.1-0.1-0.3-0.2-0.4-0.3
	C120.8,11.5,120.4,10.8,120.7,10.1C120.7,10.1,120.7,10.1,120.7,10.1C120.7,10.1,120.7,10.1,120.7,10.1z M121.2,11.1
	C121.2,11.1,121.2,11.1,121.2,11.1C121.2,11.1,121.1,11.1,121.2,11.1C121.2,11.1,121.2,11.1,121.2,11.1
	C121.2,11.1,121.2,11.1,121.2,11.1z M122.9,11.1L122.9,11.1L122.9,11.1L122.9,11.1z M123.1,12.5C123.1,12.5,123.1,12.5,123.1,12.5
	C123.1,12.5,123.1,12.5,123.1,12.5C123.1,12.5,123.1,12.5,123.1,12.5C123.1,12.5,123.1,12.5,123.1,12.5z M124.4,9.3L124.4,9.3
	L124.4,9.3L124.4,9.3z"/>
<path class="st0" d="M102.4,18c0,0.2,0.1,0.4,0.1,0.7c-0.1,0-0.2,0.1-0.4,0.2c0,0.2-0.1,0.3-0.1,0.5c0.1,0,0.1,0.1,0.2,0.1
	c0.2-0.1,0.4-0.1,0.6-0.2c0.4-0.3,0.9-0.3,1.3-0.1c0.4,0.2,1,0.3,1.2,0.8c0,0.7-0.5,1.2-0.2,2c-0.1,0.1-0.2,0.1-0.4,0.2
	c0.1,0.1,0.2,0.1,0.3,0.2c0,0.2,0.1,0.4,0,0.5c-0.2,0.2-0.1,0.4,0,0.6c0.1,0.1-0.3,0.3,0,0.5c0,0-0.1,0.3-0.2,0.4
	c0,0,0.1,0.1,0.2,0.1c-0.1,0.2-0.3,0.4-0.4,0.5c-0.2,0.3-0.4,0.4-0.7,0.4c-0.3,0-0.4-0.2-0.3-0.5c-0.3-0.1-0.2-0.4-0.4-0.6
	c-0.1-0.1-0.2-0.1-0.3-0.2c-0.4,0.3-0.8,0.3-1.3,0.2c-0.5,0-1,0.1-1.4,0.4c-0.2,0.1-0.5,0.2-0.8,0.3c-0.1-0.4-0.3-0.7-0.3-1
	c0-0.7,0-1.5,0-2.2c0,0,0-0.1,0-0.1c0.1-0.2-0.5-0.4-0.1-0.7c0.1-0.1,0-0.4-0.1-0.6c0-0.1-0.2-0.2-0.3-0.3c0.5-0.6,0.8-0.7,1.6-0.2
	c0.2-0.5,0.6-1,0.3-1.7c-0.4,0-0.7,0.1-1.1,0.1c-0.3,0-0.6-0.1-0.8-0.3c-0.1-0.1-0.1-0.4-0.1-0.7c0.5,0,0.9,0.1,1.3-0.1
	c0.6-0.2,1.3-0.2,1.9-0.4c0.6-0.2,1.2-0.3,1.8-0.5c0.8-0.3,1.5-0.1,1.9,0.8c-0.1,0.1-0.1,0.3-0.3,0.4
	C104.4,17.7,103.4,17.9,102.4,18C102.4,18,102.4,17.9,102.4,18C102.4,17.9,102.4,18,102.4,18z M100.6,23.4c0.8,0.2,1.6-0.1,2.4-0.2
	c0.2,0,0.4-0.2,0.4-0.3c0.1-0.4,0.2-0.8,0.2-1.2c0-0.2,0-0.4,0-0.6c0-0.2-0.2-0.4-0.2-0.6c-0.5-0.1-2.1,0-2.3,0.2
	c-0.2,0.1-0.3,0.3-0.5,0.5c0.7,0.6,1.4-0.1,2.1,0.2c0.1,0.1,0.3,0.3,0.4,0.5c-0.1,0.4-0.3,0.5-0.6,0.5c-0.6,0.1-1.3,0.1-1.9,0.4
	C100.5,23,100.5,23.2,100.6,23.4z M99.9,17.9C99.9,17.9,99.9,17.9,99.9,17.9C99.9,17.9,99.9,17.9,99.9,17.9
	C99.9,17.9,99.9,17.9,99.9,17.9C99.9,17.9,99.9,17.9,99.9,17.9z M99.8,20.1C99.8,20.2,99.9,20.2,99.8,20.1
	C99.9,20.1,99.9,20.1,99.8,20.1C99.8,20.1,99.8,20.1,99.8,20.1z M102.4,23.8C102.4,23.8,102.5,23.8,102.4,23.8
	C102.5,23.7,102.4,23.7,102.4,23.8C102.4,23.7,102.4,23.7,102.4,23.8C102.4,23.8,102.4,23.8,102.4,23.8z M103.6,24.1
	C103.6,24.1,103.6,24.1,103.6,24.1C103.6,24.1,103.6,24,103.6,24.1C103.6,24,103.6,24,103.6,24.1z"/>
<path class="st0" d="M84.8,14.8c0,0,0.1,0.1,0.1,0.1c-0.2,0.6-0.2,1.2,0,1.8c-0.3,0.3,0.2,0.6-0.1,0.9c1,0.1,1.9-0.4,2.4-1.4
	c0.8,0.1,1.6,0.2,1.9,1.1c-0.3,0.4-0.7,0.8-1.2,0.9c-0.7,0.2-1.4,0.4-2.2,0.6c-0.7,0.2-1.4,0.5-2.1,1c-0.3,0.2-0.6,0.3-0.9,0.5
	c-0.1,0-0.2,0.1-0.2,0.1c0.2,0.4-0.4,0.4-0.3,0.8c0.1,0.4,0.2,0.7,0.6,0.9c0.8,0.3,1.5,0.4,2.4,0.3c0.6-0.1,1.2-0.2,1.8-0.3
	c0.4-0.1,0.9-0.3,1.2,0.3c0.8,0,0.6,0.7,0.8,1.2c-1.3,0.7-2.7,0.9-4.2,0.7c-1.4-0.3-2.8-0.5-3.7-1.9c0-0.3-0.1-0.7-0.1-1.1
	c0,0,0.1-0.1,0.2-0.1c0-0.1-0.1-0.1-0.2-0.3c0.1,0,0.2-0.1,0.3-0.1c0.1-0.2,0.2-0.4,0.3-0.6c0.3-0.4,0.7-0.7,1.2-0.9
	c0.1,0,0.3-0.2,0.3-0.3c0.1-0.6,0.2-1.2,0.2-1.7c0-0.3-0.1-0.6-0.1-0.9c0-0.3,0.2-0.6,0.1-0.8c-0.2-0.2,0.2-0.5-0.1-0.7
	c0,0,0-0.1,0-0.2c0.1-0.4,0-0.7-0.4-1c0.1-0.2,0.3-0.3,0.4-0.5c0.4,0,0.7,0.1,1,0.4c0.5-0.2,0.6,0.3,0.8,0.4c0,0.2-0.4,0.3-0.1,0.6
	C85,14.5,84.9,14.7,84.8,14.8C84.8,14.8,84.8,14.8,84.8,14.8C84.8,14.8,84.8,14.9,84.8,14.8C84.8,14.8,84.8,14.8,84.8,14.8z
	 M88,23.4C88,23.4,88,23.4,88,23.4C88,23.4,88,23.4,88,23.4C88,23.4,87.9,23.4,88,23.4C88,23.3,88,23.4,88,23.4z M86.6,17.7
	C86.6,17.6,86.7,17.6,86.6,17.7C86.7,17.6,86.7,17.6,86.6,17.7C86.6,17.7,86.6,17.7,86.6,17.7C86.6,17.7,86.6,17.7,86.6,17.7z
	 M83.9,16.2C83.9,16.2,84,16.2,83.9,16.2C84,16.2,83.9,16.2,83.9,16.2C83.9,16.1,83.9,16.1,83.9,16.2C83.9,16.1,83.9,16.1,83.9,16.2
	C83.9,16.1,83.9,16.1,83.9,16.2z M84.1,15C84.1,14.9,84.1,14.9,84.1,15C84.1,14.9,84.1,14.9,84.1,15C84.1,15,84.1,15,84.1,15
	C84.1,15,84.1,15,84.1,15z M83.9,13.9C84,13.9,84,13.9,83.9,13.9C84,13.9,83.9,13.9,83.9,13.9C83.9,13.9,83.9,13.9,83.9,13.9
	C83.9,13.9,83.9,13.9,83.9,13.9z M82.4,22.6c0.1,0,0.2,0,0.3-0.1c0,0,0-0.1,0-0.1C82.6,22.5,82.5,22.6,82.4,22.6
	C82.4,22.6,82.4,22.7,82.4,22.6C82.4,22.6,82.4,22.6,82.4,22.6z M85.2,22.9c0,0-0.1,0.1-0.1,0.1c0,0,0.1,0,0.1,0
	C85.2,23,85.2,23,85.2,22.9C85.2,22.9,85.2,22.9,85.2,22.9z M84.8,18.6C84.8,18.6,84.8,18.6,84.8,18.6c0.1,0,0.1,0,0.2,0
	c0,0,0,0,0,0C84.9,18.6,84.9,18.6,84.8,18.6z M83.8,16.7L83.8,16.7L83.8,16.7L83.8,16.7z M81.9,20.9C81.9,20.9,81.9,21,81.9,20.9
	C81.9,21,81.9,21,81.9,20.9C81.9,21,81.9,21,81.9,20.9C81.9,20.9,81.9,20.9,81.9,20.9z M85,22.5C85,22.5,85,22.5,85,22.5
	C85,22.5,85,22.5,85,22.5C85,22.6,85,22.6,85,22.5C85,22.5,85,22.5,85,22.5z M88.6,23.1C88.6,23.1,88.6,23.1,88.6,23.1
	C88.6,23.1,88.6,23.1,88.6,23.1C88.6,23.2,88.6,23.2,88.6,23.1C88.6,23.2,88.6,23.1,88.6,23.1z M86.7,23.6
	C86.8,23.6,86.8,23.6,86.7,23.6C86.8,23.6,86.8,23.6,86.7,23.6C86.8,23.6,86.8,23.6,86.7,23.6C86.8,23.6,86.8,23.6,86.7,23.6z
	 M84.6,16.7L84.6,16.7L84.6,16.7L84.6,16.7z"/>
<path class="st0" d="M36.5,43.3c0.5-0.1,1-0.4,1.4-0.8c0.3-0.3,0.6-0.8,0.8-1.2c0.2-0.4,0.2-0.9,0.5-1.3c-0.1-0.2,0.1-0.4,0.1-0.6
	c0.1-0.2,0.1-0.5,0.1-0.7c0.1-0.2,0.1-0.5,0.2-0.7c0.3,0,0.6,0,1,0c-0.1,0.1-0.2,0.2-0.2,0.2c0.1,0,0.1,0.1,0.2,0.1
	c0,0.1-0.1,0.2-0.1,0.3c0.1,0.5-0.1,1-0.2,1.5c0,0.3-0.1,0.6-0.2,0.9c-0.1,0.4-0.3,0.8-0.4,1.2c-0.1,0.2-0.2,0.4-0.3,0.6
	c-0.1,0.3-0.3,0.4-0.5,0.7c-0.1,0.1-0.2,0.2-0.3,0.4c-0.1,0.1-0.4,0.1-0.4,0.4c0,0-0.1,0.1-0.2,0.1c-0.6,0.2-1.2,0.4-1.8,0.6
	C36.2,44.3,36.4,43.8,36.5,43.3z M40.2,40C40.2,40,40.2,40,40.2,40c0,0-0.1,0-0.1,0c0,0,0,0,0,0C40.1,40,40.1,40,40.2,40z M40.2,39
	C40.2,39,40.2,39,40.2,39C40.2,39,40.2,39,40.2,39C40.2,39,40.2,39,40.2,39z"/>
<path class="st0" d="M43.2,39.5c0.2,0.3,0.2,0.3,0.1,0.6c0.1,0.1,0.2,0.2,0.2,0.2c-0.1,0.1,0.2,0.2,0,0.4c-0.1,0.1,0.2,0.2,0,0.4
	c0.2,0.2,0.1,0.5,0.2,0.8c0.1,0.2,0.1,0.4,0.1,0.7c0,0-0.1,0.1-0.1,0.1c0.3,0.1,0.3,0.3,0.2,0.5c-0.1,0.3,0,0.5,0.1,0.8
	c0,0.2,0,0.2-0.1,0.3c0.3,0.2,0,0.5,0.3,0.8c-0.5,0-1,0-1.5,0c0-0.3-0.1-0.7-0.2-1.1c0,0,0.1-0.1,0.2-0.1c-0.1-0.1-0.2-0.1-0.3-0.2
	c0.1-0.2,0.1-0.5,0-0.7c-0.1-0.2,0-0.5,0.1-0.7c-0.1-0.1-0.2-0.1-0.3-0.2c0.1,0,0.1-0.1,0.1-0.1c0-0.2,0-0.4-0.1-0.5
	c0-0.1,0-0.2,0-0.2c-0.1-0.1-0.1-0.2-0.1-0.4c0-0.2,0-0.4-0.1-0.7c0-0.2,0-0.4-0.1-0.6c-0.1-0.3,0-0.6-0.2-0.8
	c0-0.2,0.1-0.4,0.1-0.7c0.3,0,0.7,0,1,0c0.1,0.3,0.1,0.5,0.2,0.8c0,0-0.1,0-0.1,0.1C43.2,39,43.4,39.2,43.2,39.5
	C43.2,39.5,43.2,39.5,43.2,39.5C43.2,39.5,43.2,39.5,43.2,39.5z M43.3,44C43.3,44,43.3,44,43.3,44C43.3,44,43.3,44.1,43.3,44
	C43.3,44.1,43.3,44.1,43.3,44z M42.7,41.6C42.7,41.6,42.7,41.6,42.7,41.6C42.6,41.6,42.6,41.6,42.7,41.6
	C42.7,41.6,42.7,41.6,42.7,41.6C42.7,41.6,42.7,41.6,42.7,41.6z"/>
<path class="st0" d="M98.1,14.5c0.2-0.1,0.5-0.3,0.7-0.2c0.7,0.1,1.3-0.2,2-0.3c0.6,0,1.2-0.1,1.8-0.2c0.5-0.1,1-0.2,1.5-0.2
	c0.9,0.1,1.7,0.5,2.3,1.3c0.1,0.1,0.1,0.3,0.2,0.5c-0.2,0.1-0.3,0.2-0.4,0.2c-0.8,0.2-1.5,0.4-2.3,0.5c-0.2,0-0.5,0-0.6-0.3
	c0.2-0.3,0.4-0.6,0.6-0.9c-0.2-0.1-0.3-0.2-0.5-0.2c-1,0-2,0.1-3,0.2c-0.5,0-1,0.1-1.5,0.2c-0.9,0-1.7,0.3-2.5,0.6c0,0,0,0,0,0
	c0,0,0,0,0.1,0c-0.2,0.4-0.3,0.8-0.5,1.2c-0.2,0.3-0.5,0.5-0.8,0.4c-0.2,0-0.3-0.1-0.5-0.1c-0.1-0.2-0.3-0.4-0.4-0.6
	c0.1-0.5,0.5-0.8,0.7-1.3c0.2-0.4,0.3-1,0.7-1.3c0.3,0.1,0.7,0,0.7,0.6C97,14.5,97.5,14.5,98.1,14.5C98.1,14.5,98.1,14.5,98.1,14.5
	C98.1,14.5,98.1,14.5,98.1,14.5z M95.8,14.6C95.8,14.6,95.8,14.6,95.8,14.6C95.8,14.6,95.8,14.6,95.8,14.6
	C95.8,14.6,95.8,14.6,95.8,14.6z M104.1,14.6C104.1,14.6,104.1,14.6,104.1,14.6C104.1,14.6,104.1,14.6,104.1,14.6
	C104.1,14.6,104.1,14.6,104.1,14.6z"/>
<path class="st0" d="M96.9,25.3c-0.8-0.3-1-0.9-0.9-1.6c0.1-0.7,0.3-1.4,0.4-2c0-0.1,0.2-0.2,0.3-0.2c-0.1-0.3-0.2-0.7-0.4-1.2
	c-0.8,0.6-1.6,1.1-2.4,1.7c0,0-0.1-0.1-0.1-0.1c0-0.1,0-0.3,0.1-0.4c0.7-0.9,1.5-1.7,2.2-2.6c0.3-0.4,0.4-1,0.6-1.5
	c0.1-0.4,0.2-0.9,0.3-1.3c0.8-0.1,0.8-0.1,1.9,0.8c-0.7,0.6-1,1.5-1.6,2.3c0.2,0.2,0.4,0.4,0.7,0.7c-0.3,0.2,0,0.4,0,0.7
	c-0.1,0.2-0.2,0.5-0.1,0.7c0.1,0.3,0.1,0.5-0.3,0.7c0.2,0,0.3,0,0.4,0.1c-0.4,0.5-0.2,1.1-0.1,1.6c0,0.3-0.1,0.4-0.3,0.6
	c0.1,0.1,0.2,0.1,0.3,0.1C97.6,24.7,97.4,25.1,96.9,25.3z M97.8,17.3C97.8,17.3,97.8,17.3,97.8,17.3C97.8,17.3,97.8,17.2,97.8,17.3
	C97.8,17.3,97.7,17.3,97.8,17.3C97.7,17.3,97.8,17.3,97.8,17.3z M96.9,22.5L96.9,22.5L96.9,22.5L96.9,22.5z"/>
<path class="st0" d="M68.1,15.9c0.1,0.1,0.2,0.2,0.4,0.4c-0.5,0.2-0.2,1-0.9,0.9c0.1,0.1,0.1,0.2,0.2,0.4c-0.3,0.2-0.5,0.6-0.3,0.9
	c0.1,0.3-0.2,0.6,0.2,0.9c-0.3,0.1-0.4,0.2-0.6,0.2c-0.6,0.1-1.2,0.1-1.9,0.2c-0.1,0.2-0.3,0.5-0.5,0.9c-0.4,0.2-0.6-0.2-0.9-0.4
	c0.3-0.2-0.4-0.6,0.3-0.7c-0.2-0.1-0.3-0.2-0.5-0.3c0.1-0.5,0-1,0-1.5c-0.5-0.3,0-0.7-0.1-1c-0.3-0.3-0.4-0.6,0-1.1
	c0.5,0.1,1,0.1,1.8,0.2c0.4-0.1,0.9-0.3,1.5-0.5c0.2,0,0.4-0.1,0.5,0C67.4,15.6,67.8,15.6,68.1,15.9c-0.1,0-0.1,0.1-0.2,0.1
	c0,0,0.1,0.1,0.1,0.1C68.1,16,68.1,15.9,68.1,15.9z M66.6,18.7C66.7,18.7,66.7,18.7,66.6,18.7C66.7,18.7,66.7,18.7,66.6,18.7
	C66.6,18.7,66.6,18.7,66.6,18.7C66.6,18.7,66.6,18.7,66.6,18.7z M64.9,16.8c0,0.4,0.3,0.8-0.1,1.2c0.1,0.2,0.3,0.4,0.4,0.6
	c0.5,0,0.9-0.1,1.1-0.6c0.2-0.5,0.3-1-0.1-1.5C65.7,16.6,65.3,16.7,64.9,16.8z M65,19C65,19,65,19,65,19c-0.1,0-0.1,0-0.1,0
	C64.9,19.1,65,19.1,65,19C65,19.1,65,19.1,65,19z M67,16.4C67,16.4,66.9,16.4,67,16.4C66.9,16.4,66.9,16.4,67,16.4
	C66.9,16.4,66.9,16.4,67,16.4C67,16.4,67,16.4,67,16.4z M66.6,16.6c0,0,0,0.1,0,0.1C66.6,16.6,66.6,16.6,66.6,16.6z M67.1,16.7
	C67.1,16.7,67.1,16.7,67.1,16.7C67.2,16.8,67.2,16.8,67.1,16.7C67.2,16.7,67.2,16.7,67.1,16.7C67.2,16.7,67.2,16.7,67.1,16.7z
	 M66.1,18.7C66.1,18.6,66.1,18.6,66.1,18.7C66.1,18.6,66,18.6,66.1,18.7C66,18.6,66,18.7,66.1,18.7C66.1,18.7,66.1,18.7,66.1,18.7z
	 M64.2,19.7C64.2,19.7,64.1,19.7,64.2,19.7C64.1,19.7,64.1,19.8,64.2,19.7C64.1,19.8,64.2,19.8,64.2,19.7
	C64.2,19.7,64.2,19.7,64.2,19.7z M64.5,18.6L64.5,18.6L64.5,18.6L64.5,18.6z"/>
<path class="st0" d="M34.1,40.2c0.2-0.5,0.5-0.9,0.8-1.3c0.1-0.1,0-0.3,0.1-0.4c0.1-0.1,0.1-0.3,0.1-0.5c0.9-0.1,1.3-0.1,1.7,0.1
	c-0.1,0.2-0.2,0.3-0.2,0.5c0,0.4-0.3,0.6-0.4,0.9c0,0.1-0.1,0.2-0.2,0.3c-0.1,0-0.2,0.1-0.2,0.2C35.3,40.4,34.7,40.5,34.1,40.2z
	 M36.1,38.2C36.1,38.2,36.2,38.2,36.1,38.2C36.2,38.2,36.1,38.2,36.1,38.2C36.1,38.2,36.1,38.2,36.1,38.2
	C36.1,38.2,36.1,38.2,36.1,38.2z"/>
<path class="st0" d="M2,38.8c0.1-0.1,0.1-0.1,0.2-0.1c0.1-0.1,0.1-0.2,0.2-0.3c0.4-0.2,0.8-0.5,1.2-0.8c0,0,0.1,0,0.1,0
	C3.9,37.7,4,37.8,3.8,38c0.1,0.1,0,0.2,0,0.3c0,0.2,0,0.3-0.2,0.3c0.1,0.1,0.1,0.1,0.1,0.1c-0.1,0.3-0.3,0.5-0.6,0.7
	c-0.5,0.3-1,0.6-1.5,0.9c-0.2,0.1-0.4,0.1-0.6,0c0.2-0.1,0-0.4,0.3-0.5c-0.2-0.3,0.1-0.4,0.2-0.6c0,0-0.1-0.1-0.1-0.2
	C1.5,38.9,1.8,38.9,2,38.8C2,38.8,2,38.8,2,38.8C2,38.8,2,38.8,2,38.8z"/>
<path class="st0" d="M3.2,40.4c0.1,0.1,0.1,0.2,0.1,0.3c-0.2,0.1-0.1,0.2-0.1,0.3c-0.1,0.2-0.2,0.4-0.4,0.6c-0.5,0.3-1,0.7-1.6,1
	c-0.2,0.1-0.4,0.1-0.6,0.2c0-0.1-0.1-0.2-0.1-0.3c0-0.1,0.1-0.2,0.1-0.3c0,0,0.1,0,0.2,0c0-0.1-0.1-0.1-0.1-0.2
	c0.1-0.1,0.1-0.2,0.2-0.3c0.1-0.2,0.2-0.3,0.4-0.4c0.6-0.3,1.2-0.5,1.7-1C3,40,3.2,39.9,3.5,39.8c-0.1,0.2-0.3,0.3-0.2,0.5
	C3.3,40.3,3.2,40.4,3.2,40.4z M1.8,41.4C1.9,41.4,1.9,41.4,1.8,41.4C1.9,41.4,1.9,41.4,1.8,41.4C1.8,41.4,1.8,41.4,1.8,41.4
	C1.8,41.4,1.8,41.4,1.8,41.4z M2.6,41.2C2.6,41.2,2.6,41.2,2.6,41.2c0,0.1,0,0.1,0.1,0.1C2.6,41.3,2.7,41.2,2.6,41.2
	C2.6,41.2,2.6,41.2,2.6,41.2z M2,41.1C2,41.1,2,41.1,2,41.1C2,41.1,2,41.1,2,41.1C2,41.1,2,41.1,2,41.1C2,41.1,2,41.1,2,41.1z
	 M1,41.7C1,41.7,1,41.7,1,41.7C1,41.7,1,41.7,1,41.7C1,41.7,1,41.7,1,41.7C1,41.7,1,41.7,1,41.7z"/>
<path class="st0" d="M0,44.9c0.1-0.4,0.1-0.7,0.3-1c0.2-0.4,0.2-0.4,0.6-0.6c0.5-0.3,1.1-0.6,1.6-0.9c0.1-0.1,0.3-0.1,0.5-0.2
	C3,42.6,2.7,43,2.7,43.4c0,0.2-0.3,0.4-0.4,0.5c-0.5,0.4-1.1,0.7-1.7,0.9C0.4,44.8,0.2,44.8,0,44.9z M1.1,43.9
	C1.1,43.9,1.1,43.9,1.1,43.9C1.1,43.9,1.1,43.9,1.1,43.9C1.1,43.9,1.1,43.9,1.1,43.9C1.1,43.9,1.1,43.9,1.1,43.9z M2.6,42.6
	C2.6,42.6,2.6,42.6,2.6,42.6L2.6,42.6L2.6,42.6z M2.1,43.3L2.1,43.3L2.1,43.3L2.1,43.3z M1.4,43.5C1.4,43.5,1.4,43.5,1.4,43.5
	C1.4,43.5,1.4,43.5,1.4,43.5C1.4,43.5,1.4,43.5,1.4,43.5C1.4,43.5,1.4,43.5,1.4,43.5z M2.2,43.6C2.2,43.5,2.2,43.5,2.2,43.6
	C2.2,43.5,2.2,43.5,2.2,43.6C2.2,43.6,2.2,43.6,2.2,43.6C2.2,43.6,2.2,43.6,2.2,43.6z"/>
<path class="st0" d="M99.1,12.9c0.1-0.1,0.1-0.2,0.2-0.3c-0.2-0.1-0.4-0.2-0.6-0.3c0-0.1,0-0.1,0.1-0.2c0.4-0.3,0.8-0.2,1.2,0
	c0.1,0.1,0.3,0.1,0.4,0.2c0.4,0.1,0.6,0.3,0.5,0.7c0,0.2,0,0.3,0,0.5c-0.4,0.1-0.7,0.2-1.1,0.4c0-0.2,0-0.3,0-0.4
	C99.4,13.7,99.5,13.1,99.1,12.9z"/>
<path class="st0" d="M26.5,38.4C26.5,38.4,26.5,38.4,26.5,38.4C26.5,38.4,26.5,38.4,26.5,38.4C26.4,38.4,26.4,38.4,26.5,38.4
	C26.5,38.4,26.5,38.4,26.5,38.4z"/>
<polygon class="st0" points="22.9,38.8 22.8,38.8 22.9,38.7 "/>
<path class="st0" d="M25.4,43.9C25.4,44,25.4,44,25.4,43.9C25.4,44,25.4,44,25.4,43.9z"/>
<path class="st0" d="M21.7,44.3C21.7,44.3,21.7,44.3,21.7,44.3C21.7,44.3,21.7,44.3,21.7,44.3C21.7,44.3,21.7,44.3,21.7,44.3
	C21.7,44.3,21.7,44.3,21.7,44.3z"/>
<path class="st0" d="M27.1,42.2C27.1,42.2,27.1,42.2,27.1,42.2C27.1,42.2,27.1,42.2,27.1,42.2C27.1,42.2,27.1,42.1,27.1,42.2
	C27.1,42.1,27.1,42.2,27.1,42.2z"/>
<path class="st0" d="M26.4,44.6C26.4,44.6,26.4,44.6,26.4,44.6C26.5,44.6,26.5,44.6,26.4,44.6C26.5,44.6,26.5,44.6,26.4,44.6
	C26.5,44.6,26.4,44.6,26.4,44.6z"/>
<path class="st0" d="M20.3,40.4C20.3,40.4,20.3,40.4,20.3,40.4C20.3,40.4,20.3,40.4,20.3,40.4L20.3,40.4z"/>
<path class="st0" d="M23,40.7C23,40.7,22.9,40.7,23,40.7C22.9,40.7,23,40.7,23,40.7L23,40.7z"/>
<path class="st0" d="M25.1,43.3C25.1,43.3,25.1,43.3,25.1,43.3C25.1,43.3,25.1,43.3,25.1,43.3L25.1,43.3z"/>
<path class="st0" d="M15.8,44.6c0,0-0.1,0-0.1,0C15.7,44.6,15.8,44.6,15.8,44.6C15.8,44.6,15.8,44.6,15.8,44.6z"/>
<polygon class="st0" points="16.4,43 16.5,43.1 16.4,43.1 "/>
<path class="st0" d="M15.7,37.8C15.7,37.8,15.7,37.8,15.7,37.8C15.7,37.8,15.7,37.8,15.7,37.8C15.7,37.8,15.7,37.8,15.7,37.8z"/>
<path class="st0" d="M14.8,40.5C14.8,40.5,14.8,40.6,14.8,40.5C14.8,40.6,14.8,40.6,14.8,40.5C14.8,40.6,14.8,40.6,14.8,40.5
	C14.8,40.5,14.8,40.5,14.8,40.5z"/>
<path class="st0" d="M12.9,40.8C12.9,40.8,12.9,40.8,12.9,40.8C12.9,40.8,12.9,40.8,12.9,40.8C12.9,40.8,12.9,40.8,12.9,40.8z"/>
<polygon class="st0" points="15.8,43.2 15.8,43.2 15.8,43.2 "/>
<polygon class="st0" points="17,43.2 17.1,43.2 17.1,43.2 "/>
<path class="st0" d="M15.8,38.4C15.8,38.4,15.8,38.4,15.8,38.4C15.8,38.4,15.8,38.4,15.8,38.4C15.8,38.4,15.8,38.4,15.8,38.4
	C15.8,38.4,15.8,38.4,15.8,38.4z"/>
<path class="st0" d="M17.1,38.4C17.1,38.4,17.1,38.4,17.1,38.4C17.1,38.4,17.1,38.4,17.1,38.4C17,38.4,17,38.4,17.1,38.4
	C17,38.4,17.1,38.4,17.1,38.4z"/>
<path class="st0" d="M13.9,39.2C13.9,39.2,13.9,39.2,13.9,39.2C13.9,39.2,13.9,39.2,13.9,39.2C13.9,39.2,13.9,39.2,13.9,39.2
	C13.9,39.2,13.9,39.2,13.9,39.2z"/>
<path class="st0" d="M17.6,39.2C17.6,39.2,17.6,39.2,17.6,39.2C17.6,39.2,17.6,39.2,17.6,39.2C17.6,39.2,17.6,39.2,17.6,39.2
	C17.6,39.2,17.6,39.2,17.6,39.2z"/>
<path class="st0" d="M11.4,39.8C11.4,39.8,11.4,39.8,11.4,39.8C11.4,39.8,11.4,39.8,11.4,39.8C11.4,39.8,11.4,39.8,11.4,39.8
	C11.4,39.9,11.4,39.8,11.4,39.8z"/>
<path class="st0" d="M5.4,40.5C5.4,40.5,5.4,40.5,5.4,40.5C5.4,40.5,5.4,40.5,5.4,40.5C5.4,40.5,5.3,40.5,5.4,40.5
	C5.4,40.5,5.4,40.5,5.4,40.5z"/>
<path class="st0" d="M3.9,42.5C3.9,42.5,3.9,42.5,3.9,42.5C3.9,42.5,3.9,42.5,3.9,42.5C3.9,42.5,3.9,42.5,3.9,42.5z"/>
<path class="st0" d="M8.7,37.7C8.7,37.7,8.7,37.7,8.7,37.7C8.7,37.7,8.7,37.7,8.7,37.7C8.7,37.7,8.7,37.7,8.7,37.7
	C8.7,37.7,8.7,37.7,8.7,37.7z"/>
<path class="st0" d="M6.8,37.9C6.8,37.9,6.8,37.9,6.8,37.9C6.8,37.9,6.8,37.9,6.8,37.9C6.8,37.9,6.9,37.9,6.8,37.9
	C6.9,37.9,6.8,37.9,6.8,37.9z"/>
<path class="st0" d="M7.5,43.9C7.5,43.9,7.5,43.9,7.5,43.9C7.5,43.9,7.4,43.9,7.5,43.9C7.4,43.9,7.4,43.8,7.5,43.9
	C7.5,43.8,7.5,43.9,7.5,43.9z"/>
<path class="st0" d="M9.2,41.1C9.2,41.1,9.1,41.1,9.2,41.1C9.1,41.1,9.2,41.1,9.2,41.1C9.2,41.1,9.2,41.1,9.2,41.1
	C9.2,41.1,9.2,41.1,9.2,41.1z"/>
<path class="st0" d="M5,43.5C5,43.5,4.9,43.5,5,43.5C4.9,43.5,5,43.5,5,43.5z"/>
<path class="st0" d="M6.3,43.5C6.3,43.5,6.3,43.5,6.3,43.5C6.3,43.5,6.3,43.5,6.3,43.5z"/>
<path class="st0" d="M8.6,43.5C8.6,43.5,8.5,43.5,8.6,43.5C8.5,43.5,8.5,43.5,8.6,43.5C8.5,43.5,8.5,43.5,8.6,43.5
	C8.6,43.5,8.6,43.5,8.6,43.5z"/>
<polygon class="st0" points="4.7,43.9 4.8,43.9 4.8,43.9 "/>
<path class="st0" d="M6,41.6C6,41.6,6,41.6,6,41.6C6,41.6,6,41.6,6,41.6C6,41.6,6,41.6,6,41.6z"/>
<path class="st0" d="M7.7,39.2C7.7,39.2,7.7,39.2,7.7,39.2C7.6,39.2,7.6,39.2,7.7,39.2C7.6,39.2,7.6,39.2,7.7,39.2
	C7.6,39.2,7.6,39.2,7.7,39.2z"/>
<polygon class="st0" points="4.4,42.1 4.4,42.1 4.4,42.1 "/>
<path class="st0" d="M5.7,42.1C5.7,42.1,5.7,42.1,5.7,42.1C5.7,42.1,5.7,42.1,5.7,42.1C5.7,42.1,5.7,42,5.7,42.1
	C5.7,42.1,5.7,42.1,5.7,42.1z"/>
<path class="st0" d="M4.5,42.3C4.5,42.3,4.5,42.4,4.5,42.3C4.5,42.4,4.5,42.3,4.5,42.3C4.5,42.3,4.5,42.3,4.5,42.3
	C4.5,42.3,4.5,42.3,4.5,42.3z"/>
<path class="st0" d="M9.2,39.8C9.2,39.8,9.2,39.8,9.2,39.8C9.2,39.8,9.2,39.8,9.2,39.8C9.2,39.8,9.2,39.8,9.2,39.8
	C9.2,39.8,9.2,39.8,9.2,39.8z"/>
<path class="st0" d="M3.7,44.1C3.7,44.1,3.8,44.2,3.7,44.1L3.7,44.1C3.8,44.1,3.7,44.1,3.7,44.1L3.7,44.1z"/>
<path class="st0" d="M3.8,44.2C3.8,44.2,3.8,44.2,3.8,44.2C3.8,44.2,3.8,44.2,3.8,44.2L3.8,44.2z"/>
<path class="st0" d="M30.3,40.5c0,0-0.1,0-0.1,0C30.2,40.4,30.2,40.4,30.3,40.5C30.3,40.4,30.3,40.4,30.3,40.5
	C30.3,40.5,30.3,40.5,30.3,40.5z"/>
<path class="st0" d="M29.6,43.7C29.6,43.7,29.6,43.8,29.6,43.7C29.6,43.8,29.6,43.8,29.6,43.7C29.6,43.8,29.6,43.7,29.6,43.7
	C29.6,43.7,29.6,43.7,29.6,43.7z"/>
<path class="st0" d="M30.7,39.9C30.7,39.9,30.7,39.9,30.7,39.9C30.7,39.9,30.7,39.9,30.7,39.9C30.7,39.9,30.7,39.9,30.7,39.9z"/>
<path class="st0" d="M30.2,38.5C30.1,38.5,30.1,38.5,30.2,38.5C30.1,38.5,30.1,38.5,30.2,38.5C30.1,38.5,30.1,38.5,30.2,38.5z"/>
<path class="st0" d="M30.8,40.5C30.7,40.5,30.7,40.5,30.8,40.5C30.7,40.5,30.7,40.4,30.8,40.5C30.8,40.4,30.8,40.5,30.8,40.5
	C30.8,40.5,30.8,40.5,30.8,40.5z"/>
<path class="st0" d="M33,43.1C33,43.1,33,43.2,33,43.1C33,43.2,33,43.2,33,43.1C33,43.1,33,43.1,33,43.1C33,43.1,33,43.1,33,43.1z"
	/>
<path class="st0" d="M32.4,40.7C32.4,40.7,32.4,40.7,32.4,40.7C32.4,40.7,32.4,40.7,32.4,40.7C32.4,40.7,32.4,40.7,32.4,40.7
	C32.4,40.7,32.4,40.7,32.4,40.7z"/>
<path class="st0" d="M30.8,40.9C30.8,40.9,30.8,40.9,30.8,40.9C30.7,40.9,30.7,40.9,30.8,40.9C30.8,40.9,30.8,40.9,30.8,40.9z"/>
<path class="st0" d="M33,40.9C33,40.9,33,40.9,33,40.9C33,40.9,33,40.9,33,40.9C33,40.9,33,40.9,33,40.9C33,40.9,33,40.9,33,40.9z"
	/>
<path class="st0" d="M30.1,43.3C30.1,43.3,30.1,43.3,30.1,43.3C30.1,43.3,30,43.3,30.1,43.3C30,43.3,30,43.3,30.1,43.3
	C30,43.3,30,43.3,30.1,43.3z"/>
<path class="st0" d="M35.2,41.3C35.2,41.3,35.2,41.3,35.2,41.3C35.2,41.3,35.1,41.3,35.2,41.3C35.1,41.3,35.1,41.3,35.2,41.3
	C35.1,41.3,35.1,41.3,35.2,41.3z"/>
<polygon class="st0" points="29.3,43.5 29.3,43.5 29.3,43.5 "/>
<path class="st0" d="M28.8,44.3C28.9,44.3,28.9,44.3,28.8,44.3C28.9,44.3,28.9,44.3,28.8,44.3C28.9,44.3,28.9,44.3,28.8,44.3z"/>
<path class="st0" d="M29,43.9C29,43.9,29,44,29,43.9C29,44,29,44,29,43.9C28.9,44,28.9,44,29,43.9C29,43.9,29,43.9,29,43.9z"/>
<path class="st0" d="M28.6,44.7C28.6,44.7,28.6,44.7,28.6,44.7C28.6,44.7,28.6,44.7,28.6,44.7C28.6,44.7,28.6,44.7,28.6,44.7
	C28.6,44.7,28.6,44.7,28.6,44.7z"/>
<path class="st0" d="M33.7,44.7C33.6,44.7,33.6,44.7,33.7,44.7C33.6,44.7,33.6,44.7,33.7,44.7C33.6,44.7,33.6,44.7,33.7,44.7
	C33.6,44.7,33.6,44.7,33.7,44.7z"/>
<path class="st0" d="M46.9,44.1c0,0-0.1,0-0.1,0c0,0,0,0,0,0C46.8,44,46.9,44,46.9,44.1C46.9,44,46.9,44.1,46.9,44.1z"/>
<polygon class="st0" points="44.5,39.8 44.4,39.8 44.5,39.8 "/>
<path class="st0" d="M44.6,40.1C44.6,40.1,44.6,40.1,44.6,40.1C44.6,40.1,44.6,40.1,44.6,40.1C44.6,40,44.6,40,44.6,40.1
	C44.6,40,44.6,40,44.6,40.1z"/>
<path class="st0" d="M45.1,40C45.1,40,45.1,40,45.1,40C45.1,40,45.1,40,45.1,40C45.1,40,45.1,40,45.1,40C45.1,40,45.1,40,45.1,40z"
	/>
<polygon class="st0" points="45.6,44 45.5,44.1 45.5,44 "/>
<polygon class="st0" points="49.9,39.4 49.8,39.4 49.9,39.4 "/>
<path class="st0" d="M49.2,41.9C49.2,41.9,49.2,42,49.2,41.9C49.2,42,49.2,41.9,49.2,41.9L49.2,41.9z"/>
<path class="st0" d="M54.1,38.3c0,0-0.1,0-0.1,0C54,38.3,54,38.3,54.1,38.3C54.1,38.3,54.1,38.3,54.1,38.3z"/>
<path class="st0" d="M52.1,43.9C52.1,43.9,52.1,43.9,52.1,43.9C52.1,43.9,52.1,43.8,52.1,43.9C52.1,43.9,52.1,43.9,52.1,43.9
	C52.1,43.9,52.1,43.9,52.1,43.9z"/>
<polygon class="st0" points="54,43.2 53.9,43.1 54,43.1 "/>
<path class="st0" d="M54.5,43.2C54.5,43.2,54.5,43.2,54.5,43.2C54.5,43.2,54.5,43.2,54.5,43.2C54.5,43.2,54.5,43.2,54.5,43.2z"/>
<path class="st0" d="M55.2,38.6C55.2,38.6,55.2,38.6,55.2,38.6C55.2,38.6,55.2,38.6,55.2,38.6C55.2,38.6,55.2,38.6,55.2,38.6
	C55.2,38.6,55.2,38.6,55.2,38.6z"/>
<path class="st0" d="M56.5,38.6C56.5,38.6,56.5,38.6,56.5,38.6C56.5,38.6,56.5,38.6,56.5,38.6C56.5,38.6,56.5,38.6,56.5,38.6z"/>
<path class="st0" d="M57.5,38.6C57.5,38.6,57.5,38.6,57.5,38.6C57.5,38.6,57.5,38.6,57.5,38.6C57.5,38.6,57.5,38.6,57.5,38.6
	C57.5,38.6,57.5,38.6,57.5,38.6z"/>
<path class="st0" d="M51.3,44.1C51.3,44.1,51.3,44.1,51.3,44.1C51.3,44.1,51.3,44.1,51.3,44.1C51.3,44.1,51.3,44.1,51.3,44.1
	C51.3,44.1,51.3,44.1,51.3,44.1z"/>
<path class="st0" d="M56.3,44.1C56.3,44.1,56.2,44.1,56.3,44.1C56.2,44.1,56.3,44.1,56.3,44.1L56.3,44.1z"/>
<path class="st0" d="M51,44.6C51,44.6,51,44.6,51,44.6C51,44.6,51,44.6,51,44.6C51,44.6,51,44.6,51,44.6C51,44.6,51,44.6,51,44.6z"
	/>
<path class="st0" d="M56.5,44.8C56.5,44.8,56.5,44.8,56.5,44.8C56.5,44.8,56.5,44.8,56.5,44.8C56.5,44.8,56.5,44.8,56.5,44.8z"/>
<path class="st0" d="M55.8,42.3C55.9,42.3,55.9,42.3,55.8,42.3C55.9,42.3,55.9,42.4,55.8,42.3C55.8,42.4,55.8,42.3,55.8,42.3
	C55.8,42.3,55.8,42.3,55.8,42.3z"/>
<path class="st0" d="M56.3,44.1C56.3,44.1,56.3,44.1,56.3,44.1C56.3,44.1,56.3,44.1,56.3,44.1L56.3,44.1z"/>
<path class="st0" d="M51.8,44.1C51.8,44.1,51.8,44.1,51.8,44.1C51.8,44.1,51.8,44.1,51.8,44.1L51.8,44.1z"/>
<path class="st0" d="M51.8,44.1C51.8,44.1,51.8,44.1,51.8,44.1C51.8,44.1,51.8,44.1,51.8,44.1C51.8,44.1,51.8,44.1,51.8,44.1
	L51.8,44.1z"/>
<path class="st0" d="M40.2,40c0,0-0.1,0-0.1,0c0,0,0,0,0,0C40.1,40,40.1,40,40.2,40C40.2,40,40.2,40,40.2,40z"/>
<path class="st0" d="M40.2,39C40.2,39,40.2,39,40.2,39C40.2,39,40.2,39,40.2,39C40.2,39,40.2,39,40.2,39z"/>
<path class="st0" d="M43.3,44C43.3,44.1,43.3,44.1,43.3,44C43.3,44.1,43.3,44,43.3,44C43.3,44,43.3,44,43.3,44z"/>
<path class="st0" d="M42.7,41.6C42.7,41.6,42.7,41.6,42.7,41.6C42.7,41.6,42.7,41.6,42.7,41.6C42.6,41.6,42.6,41.6,42.7,41.6
	C42.7,41.6,42.7,41.6,42.7,41.6z"/>
<path class="st0" d="M43.2,39.5C43.2,39.5,43.2,39.5,43.2,39.5C43.2,39.5,43.2,39.5,43.2,39.5L43.2,39.5z"/>
<path class="st0" d="M36.1,38.2C36.1,38.2,36.1,38.2,36.1,38.2C36.1,38.2,36.1,38.2,36.1,38.2C36.1,38.2,36.2,38.2,36.1,38.2
	C36.2,38.2,36.1,38.2,36.1,38.2z"/>
<path class="st0" d="M2,38.8C2,38.8,2,38.8,2,38.8C2,38.8,2,38.8,2,38.8L2,38.8z"/>
<path class="st0" d="M2.6,41.2C2.6,41.2,2.6,41.2,2.6,41.2c0.1,0.1,0.1,0.1,0.1,0.1C2.6,41.3,2.6,41.3,2.6,41.2
	C2.6,41.2,2.6,41.2,2.6,41.2z"/>
<path class="st0" d="M2,41.1C2,41.1,2,41.1,2,41.1C2,41.1,2,41.1,2,41.1C2,41.1,2,41.1,2,41.1C2,41.1,2,41.1,2,41.1z"/>
<path class="st0" d="M1.8,41.4C1.9,41.4,1.9,41.4,1.8,41.4C1.9,41.4,1.9,41.4,1.8,41.4L1.8,41.4z"/>
<path class="st0" d="M1,41.7C1,41.7,1,41.7,1,41.7C1,41.7,1,41.7,1,41.7C1,41.7,1,41.7,1,41.7C1,41.7,1,41.7,1,41.7z"/>
<path class="st0" d="M1.8,41.4C1.8,41.4,1.8,41.4,1.8,41.4C1.8,41.4,1.8,41.4,1.8,41.4L1.8,41.4z"/>
<polygon class="st0" points="2.1,43.3 2.1,43.3 2.1,43.3 "/>
<path class="st0" d="M1.4,43.5C1.4,43.5,1.4,43.5,1.4,43.5C1.4,43.5,1.4,43.5,1.4,43.5C1.4,43.5,1.4,43.5,1.4,43.5
	C1.4,43.5,1.4,43.5,1.4,43.5z"/>
<path class="st0" d="M2.2,43.6C2.2,43.6,2.2,43.6,2.2,43.6C2.2,43.6,2.2,43.6,2.2,43.6C2.2,43.5,2.2,43.5,2.2,43.6
	C2.2,43.5,2.2,43.5,2.2,43.6z"/>
<polygon class="st0" points="2.6,42.6 2.6,42.5 2.6,42.6 "/>
<path class="st0" d="M2.6,42.6C2.6,42.6,2.6,42.6,2.6,42.6L2.6,42.6z"/>
<path class="st0" d="M1.1,43.9C1.1,43.9,1.1,43.9,1.1,43.9C1.1,43.9,1.1,43.9,1.1,43.9L1.1,43.9z"/>
<path class="st0" d="M1.1,43.9C1.1,43.9,1.1,43.9,1.1,43.9C1.1,43.9,1.1,43.9,1.1,43.9L1.1,43.9z"/>
</svg>
